<?xml version="1.0" encoding="iso-8859-1"?>
<!-- Generator: Adobe Illustrator 19.0.0, SVG Export Plug-In . SVG Version: 6.00 Build 0)  -->
<svg version="1.1" id="Layer_1" xmlns="http://www.w3.org/2000/svg" xmlns:xlink="http://www.w3.org/1999/xlink" x="0px" y="0px"
	 viewBox="0 0 512 512" style="enable-background:new 0 0 512 512;" xml:space="preserve">
<g>
	<path style="fill:#DAE0E3;" d="M416.488,122.658C363.156,96.871,314.457,66.919,256,66.919S148.844,96.871,95.514,122.658
		c-53.331,25.79-125.427,56.014-58.483,171.97l13.981-4.252c18.874-5.286,44.479-12.792,80.864-18.668
		c32.075-5.178,72.528-9.087,124.124-9.087c110.124,0,169.48,17.809,204.986,27.755l13.981,4.25
		C541.916,178.672,469.816,148.448,416.488,122.658z"/>
	<path style="fill:#FAAC18;" d="M256,262.621c-51.596,0-92.049,3.91-124.124,9.087c-36.385,5.876-61.99,13.382-80.864,18.668
		l-13.981,4.252l11.209,67.687c35.172-9.766,94.716-28.528,207.76-28.528s172.587,18.762,207.76,28.528l11.208-67.687l-13.981-4.252
		c-18.872-5.286-44.479-12.792-80.865-18.668C348.048,266.532,307.594,262.621,256,262.621z"/>
	<path style="fill:#4D7EB7;" d="M256,333.786c-113.045,0-172.589,18.762-207.76,28.528C18.538,413.756,129.944,445.08,256,445.08
		c126.055,0,237.462-31.323,207.76-82.766C428.586,352.548,369.044,333.786,256,333.786z"/>
</g>
<g>
	<path style="fill:#000001;" d="M484.543,298.016c25.09-43.989,32.882-79.708,23.797-109.142
		c-12.007-38.895-51.258-57.778-82.797-72.951c-1.582-0.76-3.15-1.515-4.705-2.267c-8.302-4.015-16.634-8.203-24.691-12.253
		C350.637,78.527,307.651,56.92,256,56.92c-51.65,0-94.636,21.606-140.143,44.482c-8.059,4.051-16.392,8.239-24.695,12.255
		c-1.553,0.75-3.121,1.505-4.701,2.265c-31.541,15.173-70.793,34.056-82.801,72.951c-9.086,29.435-1.295,65.155,23.797,109.143
		l10.365,62.599c-7.693,15.735-3.993,28.491,0.7,36.617C63.173,439.929,171.083,455.08,256,455.08s192.827-15.15,217.478-57.847
		c4.691-8.126,8.394-20.881,0.699-36.617L484.543,298.016z M56.282,349.674l-7.953-48.031c2.591-0.792,4.908-1.5,5.383-1.636
		l3.81-1.07c34.995-9.843,93.569-26.316,198.479-26.316c104.914,0,163.486,16.474,198.484,26.317l3.785,1.064
		c0.492,0.141,2.813,0.849,5.404,1.641l-7.954,48.032C419.29,339.471,359.612,323.788,256,323.788
		C152.388,323.787,92.709,339.469,56.282,349.674z M22.769,194.771c9.432-30.557,42.865-46.639,72.36-60.828
		c1.593-0.766,3.174-1.526,4.737-2.283c8.442-4.083,16.846-8.306,24.972-12.391C168.167,97.49,209.092,76.918,256,76.918
		s87.835,20.572,131.166,42.353c8.124,4.085,16.526,8.307,24.969,12.389c1.565,0.757,3.145,1.518,4.738,2.284
		c29.496,14.19,62.927,30.273,72.359,60.828c6.921,22.426,0.51,51.99-19.053,87.948c-4.199-1.283-5.998-1.831-6.497-1.971
		l-3.783-1.063c-13.993-3.936-31.652-8.9-54.334-13.501c6.806-7.686,11.964-17.613,15.085-29.405
		c1.414-5.339-1.77-10.812-7.106-12.225c-5.342-1.414-10.812,1.77-12.226,7.107c-2.805,10.6-8.956,24.083-22.32,29.753
		c-32.091-5.035-72.279-8.794-122.996-8.794c-50.719,0-90.908,3.76-122.999,8.794c-13.363-5.669-19.516-19.152-22.321-29.753
		c-1.413-5.339-6.887-8.521-12.226-7.107c-5.339,1.413-8.52,6.886-7.106,12.225c3.121,11.792,8.278,21.719,15.087,29.405
		c-22.68,4.6-40.337,9.564-54.328,13.499l-3.788,1.065c-0.5,0.14-2.298,0.687-6.498,1.971
		C22.258,246.761,15.847,217.199,22.769,194.771z M456.159,387.233c-16.007,27.725-100.185,47.848-200.158,47.848
		S71.849,414.958,55.842,387.233c-1.966-3.404-3.998-8.658-0.675-16.472c0.763-0.214,1.536-0.432,2.321-0.653
		c34.997-9.845,93.571-26.322,198.511-26.322c104.94,0,163.513,16.477,198.511,26.322c0.785,0.221,1.559,0.439,2.322,0.653
		C460.157,378.575,458.123,383.829,456.159,387.233z"/>
	<path style="fill:#000001;" d="M256,229.084c20.487,0,39.577-11.021,49.819-28.764c2.762-4.783,1.121-10.898-3.662-13.659
		c-4.783-2.762-10.897-1.121-13.659,3.661c-4.971,8.611-13.14,14.789-22.498,17.391v-46.948h10.296c5.524,0,9.999-4.477,9.999-9.999
		s-4.476-9.999-9.999-9.999H266v-10.299c0-5.523-4.479-9.999-9.999-9.999c-5.524,0-9.999,4.477-9.999,9.999v10.299h-10.3
		c-5.523,0-9.999,4.477-9.999,9.999s4.477,9.999,9.999,9.999h10.3v46.948c-9.36-2.602-17.53-8.779-22.5-17.391
		c-2.762-4.783-8.876-6.421-13.659-3.661c-4.783,2.761-6.422,8.876-3.661,13.659C216.422,218.061,235.511,229.084,256,229.084z"/>
	<path style="fill:#000001;" d="M97.345,215.599c0.536,0.085,1.067,0.127,1.593,0.127c4.563,0,8.608-3.132,9.702-7.629
		c1.19-4.774-1.297-9.813-5.994-11.691c-5.127-2.051-10.946,0.442-12.997,5.571c-0.275,0.688-0.48,1.439-0.598,2.17
		C88.179,209.598,91.893,214.726,97.345,215.599z"/>
</g>
<g>
</g>
<g>
</g>
<g>
</g>
<g>
</g>
<g>
</g>
<g>
</g>
<g>
</g>
<g>
</g>
<g>
</g>
<g>
</g>
<g>
</g>
<g>
</g>
<g>
</g>
<g>
</g>
<g>
</g>
</svg>
