<svg id="Capa_1" enable-background="new 0 0 502 502" height="512" viewBox="0 0 502 502" width="512" xmlns="http://www.w3.org/2000/svg" xmlns:xlink="http://www.w3.org/1999/xlink"><linearGradient id="lg1"><stop offset="0" stop-color="#d4dbdb"/><stop offset="1" stop-color="#f3f3f3"/></linearGradient><linearGradient id="SVGID_1_" gradientUnits="userSpaceOnUse" x1="251" x2="251" xlink:href="#lg1" y1="290.712" y2="90.063"/><linearGradient id="SVGID_3_" gradientUnits="userSpaceOnUse" x1="251" x2="251" xlink:href="#lg1" y1="499.973" y2="227.861"/><linearGradient id="SVGID_4_" gradientUnits="userSpaceOnUse" x1="16.132" x2="556.515" y1="257.167" y2="257.167"><stop offset="0" stop-color="#74d2e8"/><stop offset="1" stop-color="#baeaf5"/></linearGradient><linearGradient id="SVGID_5_" gradientUnits="userSpaceOnUse" x1="161.27" x2="380.327" y1="304.57" y2="304.57"><stop offset="0" stop-color="#53aae6"/><stop offset="1" stop-color="#a4d2f0"/></linearGradient><g><path d="m449.621 257.167c0-103.375-88.926-187.177-198.621-187.177s-198.621 83.802-198.621 187.177z" fill="url(#SVGID_1_)"/><path d="m449.621 257.167c0-103.375-88.926-187.177-198.621-187.177s-198.621 83.802-198.621 187.177z" fill="url(#SVGID_1_)"/><path d="m173.91 134.055c15.715-28.241 31.784-51.132 52.692-62.658-13.961 1.612-27.472 4.589-40.382 8.785-11.721 12.076-22.397 26.495-31.408 42.689-15.52 27.891-32.619 73.001-30.619 134.297h22.995c-2.133-56.465 12.591-97.718 26.722-123.113z" fill="#c2c8cf"/><path d="m328.09 134.055c-15.715-28.241-31.784-51.132-52.692-62.658 13.961 1.612 27.472 4.589 40.382 8.785 11.721 12.076 22.397 26.495 31.408 42.689 15.52 27.891 32.62 73.001 30.619 134.297h-22.995c2.133-56.465-12.591-97.718-26.722-123.113z" fill="#c2c8cf"/><path d="m251 432.01c-57.626 0-123.521-4.162-168.837-11.033-20.797-3.153-38.283-17.269-45.929-36.865l-33.109-84.854c-9.009-23.088 2.11-49.169 25.029-58.6 65.592-26.991 136.931-42.347 222.846-42.347s157.254 15.356 222.847 42.347c22.919 9.431 34.037 35.512 25.029 58.6l-33.108 84.853c-7.698 19.729-25.381 33.766-46.322 36.926-45.304 6.835-110.986 10.973-168.446 10.973z" fill="url(#SVGID_3_)"/><path d="m473.847 240.658c-65.593-26.991-136.932-42.347-222.847-42.347s-157.254 15.356-222.847 42.347c-22.919 9.431-34.037 35.512-25.029 58.6l6.542 16.766c70.699-31.923 147.283-50.328 241.334-50.328s170.635 18.405 241.334 50.327l6.542-16.766c9.008-23.087-2.11-49.168-25.029-58.599z" fill="url(#SVGID_4_)"/><circle cx="251" cy="304.57" fill="url(#SVGID_5_)" r="82.93"/><path d="m282.138 317.566c-5.151-3.715-12.34-2.55-16.054 2.603-1.024 1.421-2.237 2.668-3.584 3.729v-26.503h9.503c6.351 0 11.5-5.149 11.5-11.5s-5.149-11.5-11.5-11.5h-9.503v-9.06c0-6.351-5.149-11.5-11.5-11.5s-11.5 5.149-11.5 11.5v9.06h-9.503c-6.351 0-11.5 5.149-11.5 11.5s5.149 11.5 11.5 11.5h9.503v26.503c-1.347-1.061-2.56-2.309-3.585-3.729-3.714-5.151-10.901-6.317-16.054-2.603-5.152 3.714-6.317 10.902-2.603 16.054 7.805 10.825 20.418 17.288 33.741 17.288 13.322 0 25.936-6.462 33.741-17.288 3.715-5.152 2.55-12.339-2.602-16.054z" fill="#fff"/><path d="m166.325 171.527c-35.222 4.461-69.172 11.806-102.213 22.138-4.52 11.812-7.809 24.176-9.735 36.954 36.188-12.84 74.381-22.166 115.945-27.406 8.929-1.126 15.192-9.36 13.831-18.256-1.31-8.573-9.225-14.52-17.828-13.43z" fill="#c2c8cf"/></g></svg>