<svg width="100" height="100" viewBox="0 0 100 100" fill="none" xmlns="http://www.w3.org/2000/svg"><g clip-path="url(#clip0_2_3)"><path d="M37.5 23.249h25v7.812h-25V23.25z" fill="#E1E3E9"/><path d="M40.625 15.436h18.75v7.813h-18.75v-7.813z" fill="#FFCB7C"/><path d="M40.625 15.436a9.375 9.375 0 1118.75 0h-18.75z" class="lh-color" fill="#F5737F"/><path d="M33.545 88.873l6.347-57.812h20.215l6.348 57.812L61.5 85l-12 6-5-4.5-10.955 2.373z" fill="#fff"/><path d="M35.668 69.538h28.664L62.187 50H37.813l-2.145 19.538z" class="lh-color" fill="#F5737F"/><path d="M84.622 96.947l-6.25-9.174a1.953 1.953 0 00-1.614-.853h-8.553l-.972-8.859a1.954 1.954 0 00-3.883.427l.665 6.057-.773-1.102a1.953 1.953 0 00-2.496-.614L49.213 88.79l-2.74-3.915a1.953 1.953 0 00-2.498-.615l-8.438 4.361 1.881-17.13h18.125a1.953 1.953 0 000-3.907H37.847L39.52 52.35h20.96l.952 8.664a1.954 1.954 0 003.882-.426l-3.027-27.574h.213a1.953 1.953 0 001.953-1.953v-7.813a1.953 1.953 0 00-1.953-1.953h-1.172v-5.859c0-5.58-4.056-10.227-9.375-11.156V1.953a1.953 1.953 0 00-3.906 0V4.28c-5.318.929-9.375 5.576-9.375 11.156v5.86H37.5a1.953 1.953 0 00-1.953 1.953v7.812c0 1.079.875 1.953 1.953 1.953h.214l-5.92 53.906h-8.551c-.646 0-1.25.32-1.614.853l-6.25 9.173a1.953 1.953 0 003.228 2.2l5.668-8.32h6.997l-2.618 1.354a1.953 1.953 0 00-.956 2.352l1.377 4.132a1.954 1.954 0 003.706-1.236l-.849-2.546 12.32-6.368 7.456 10.652a1.953 1.953 0 103.2-2.24l-3.435-4.907 9.55-4.937 8.471 12.085a1.95 1.95 0 002.72.478 1.953 1.953 0 00.478-2.72l-4.274-6.1h7.307l5.668 8.32a1.95 1.95 0 002.714.515 1.952 1.952 0 00.515-2.713zM47.786 29.108v-3.906h4.427v3.906h-4.427zm-8.333 0v-3.906h4.427v3.906h-4.427zm16.667-3.906h4.427v3.906H56.12v-3.906zM50 8.014c3.416 0 6.3 2.322 7.159 5.47H42.841c.86-3.149 3.742-5.47 7.159-5.47zm-7.422 9.375h14.844v3.907H42.578v-3.907zm15.78 15.625l1.693 15.43H39.95l1.694-15.43h16.714z" fill="#000"/><path d="M48.047 58.6v2.734a1.953 1.953 0 003.906 0V58.6a1.953 1.953 0 00-3.906 0zM50 44.147a1.953 1.953 0 001.953-1.953v-2.735a1.953 1.953 0 00-3.906 0v2.735c0 1.079.874 1.953 1.953 1.953zM48.047 77.74v2.735a1.953 1.953 0 003.906 0V77.74a1.953 1.953 0 00-3.906 0zm14.904-9.584a1.968 1.968 0 00-.572 1.38c0 .516.209 1.018.572 1.382a1.96 1.96 0 001.38.572 1.96 1.96 0 001.382-.572c.363-.364.572-.866.572-1.381 0-.514-.209-1.018-.572-1.381a1.968 1.968 0 00-1.381-.572c-.514 0-1.018.209-1.381.572z" fill="#000"/></g><defs><clipPath id="clip0_2_3"><path fill="#fff" d="M0 0h100v100H0z"/></clipPath></defs></svg>