<svg height="512" viewBox="0 0 469.333 469.333" width="512" xmlns="http://www.w3.org/2000/svg"><path d="M21.333 427.603H192c11.782 0 21.333-9.551 21.333-21.333s-9.551-21.333-21.333-21.333H44.181c10.7-73.427 73.616-127.908 147.819-128 59.427.515 108.019-47.242 108.535-106.668S253.293 42.25 193.866 41.734C134.44 41.219 85.847 88.976 85.332 148.402a107.607 107.607 0 0034.625 80.012C47.529 257.796.105 328.109 0 406.27c0 11.782 9.551 21.333 21.333 21.333zM192 86.27c35.346 0 64 28.654 64 64s-28.654 64-64 64-64-28.654-64-64 28.654-64 64-64zm256 213.333h-64v-64c0-11.782-9.551-21.333-21.333-21.333s-21.333 9.551-21.333 21.333v64h-64c-11.782 0-21.333 9.551-21.333 21.333s9.551 21.333 21.333 21.333h64v64c0 11.782 9.551 21.333 21.333 21.333S384 418.051 384 406.269v-64h64c11.782 0 21.333-9.551 21.333-21.333 0-11.781-9.551-21.333-21.333-21.333z"/></svg>