<svg id="Capa_1" enable-background="new 0 0 469.333 469.333" height="512" viewBox="0 0 469.333 469.333" width="512" xmlns="http://www.w3.org/2000/svg"><g><path d="m21.333 427.603h170.667c11.782 0 21.333-9.551 21.333-21.333s-9.551-21.333-21.333-21.333h-147.819c10.7-73.427 73.616-127.908 147.819-128 59.427.515 108.019-47.242 108.535-106.668s-47.242-108.019-106.669-108.535c-59.426-.515-108.019 47.242-108.534 106.668-.263 30.361 12.312 59.421 34.625 80.012-72.428 29.382-119.852 99.695-119.957 177.856 0 11.782 9.551 21.333 21.333 21.333zm170.667-341.333c35.346 0 64 28.654 64 64s-28.654 64-64 64-64-28.654-64-64 28.654-64 64-64z"/><path d="m448 299.603h-64v-64c0-11.782-9.551-21.333-21.333-21.333s-21.333 9.551-21.333 21.333v64h-64c-11.782 0-21.333 9.551-21.333 21.333s9.551 21.333 21.333 21.333h64v64c0 11.782 9.551 21.333 21.333 21.333s21.333-9.551 21.333-21.333v-64h64c11.782 0 21.333-9.551 21.333-21.333 0-11.781-9.551-21.333-21.333-21.333z"/></g></svg>