<svg height="512" viewBox="0 0 24 24" width="512" xmlns="http://www.w3.org/2000/svg"><path d="M20.163 3.837a6.28 6.28 0 00-8.87 0l-7.456 7.456a6.272 6.272 0 008.87 8.87l7.456-7.456a6.28 6.28 0 000-8.87zM12.745 17.3L6.7 11.254 11.255 6.7l6.045 6.046zm-7.494 1.449a4.279 4.279 0 010-6.042l.039-.039 6.041 6.043-.038.038a4.279 4.279 0 01-6.042 0zm13.5-7.456l-.039.039-6.043-6.043.038-.038a4.272 4.272 0 016.042 6.042z"/><path d="M11.293 10.47a1 1 0 100-1.414 1 1 0 000 1.414zM14.944 12.707a1 1 0 10-1.414 0 1 1 0 001.414 0zM9.056 11.293a1 1 0 101.414 0 1 1 0 00-1.414 0zM11.293 13.53a1 1 0 101.414 0 1 1 0 00-1.414 0z"/></svg>