<svg height="512" viewBox="0 0 24 24" width="512" xmlns="http://www.w3.org/2000/svg"><path d="m20.163 3.837a6.28 6.28 0 0 0 -8.87 0l-7.456 7.456a6.272 6.272 0 0 0 8.87 8.87l7.456-7.456a6.28 6.28 0 0 0 0-8.87zm-7.418 13.463-6.045-6.046 4.555-4.554 6.045 6.046zm-7.494 1.449a4.279 4.279 0 0 1 0-6.042l.039-.039 6.041 6.043-.038.038a4.279 4.279 0 0 1 -6.042 0zm13.5-7.456-.039.039-6.043-6.043.038-.038a4.272 4.272 0 0 1 6.042 6.042z"/><path d="m11.293 10.47a1 1 0 1 0 0-1.414 1 1 0 0 0 0 1.414z"/><path d="m14.944 12.707a1 1 0 1 0 -1.414 0 1 1 0 0 0 1.414 0z"/><path d="m9.056 11.293a1 1 0 1 0 1.414 0 1 1 0 0 0 -1.414 0z"/><path d="m11.293 13.53a1 1 0 1 0 1.414 0 1 1 0 0 0 -1.414 0z"/></svg>