<?xml version="1.0"?>
<svg xmlns="http://www.w3.org/2000/svg" viewBox="0 0 24 24" width="512" height="512"><g id="Briefcast"><path d="M21,5H18V4a3.0033,3.0033,0,0,0-3-3H9A3.0033,3.0033,0,0,0,6,4V5H3A3.0033,3.0033,0,0,0,0,8V20a3.0033,3.0033,0,0,0,3,3H21a3.0033,3.0033,0,0,0,3-3V8A3.0033,3.0033,0,0,0,21,5ZM8,4A1.0009,1.0009,0,0,1,9,3h6a1.0009,1.0009,0,0,1,1,1V5H8ZM3,7H21a1.0009,1.0009,0,0,1,1,1V9.2992l-7.3038,2.6537A1.9949,1.9949,0,0,0,13,11H11a1.9949,1.9949,0,0,0-1.6962.9529L2,9.2992V8A1.0009,1.0009,0,0,1,3,7Zm10,6v2H11V13Zm8,8H3a1.0009,1.0009,0,0,1-1-1V11.4275l7,2.5433V15a2.0023,2.0023,0,0,0,2,2h2a2.0023,2.0023,0,0,0,2-2V13.9708l7-2.5433V20A1.0009,1.0009,0,0,1,21,21Z"/></g></svg>
