<svg xmlns="http://www.w3.org/2000/svg" viewBox="0 0 24 24" width="512" height="512"><path d="M21 5h-3V4a3.003 3.003 0 00-3-3H9a3.003 3.003 0 00-3 3v1H3a3.003 3.003 0 00-3 3v12a3.003 3.003 0 003 3h18a3.003 3.003 0 003-3V8a3.003 3.003 0 00-3-3zM8 4a1 1 0 011-1h6a1 1 0 011 1v1H8zM3 7h18a1 1 0 011 1v1.3l-7.304 2.653A1.995 1.995 0 0013 11h-2a1.995 1.995 0 00-1.696.953L2 9.299V8a1 1 0 011-1zm10 6v2h-2v-2zm8 8H3a1 1 0 01-1-1v-8.572l7 2.543V15a2.002 2.002 0 002 2h2a2.002 2.002 0 002-2v-1.03l7-2.542V20a1 1 0 01-1 1z"/></svg>