<svg xmlns="http://www.w3.org/2000/svg" viewBox="0 0 24 24" width="512" height="512"><path d="M19.97 17.758A1 1 0 0019 17h-.536c-1.377-1.76-1.87-5.044-2-7H17a1 1 0 000-2h-.064a5.145 5.145 0 00.314-1.75 5.25 5.25 0 00-10.5 0A5.145 5.145 0 007.064 8H7a1 1 0 000 2h.533c-.127 1.956-.62 5.24-2 7H5a1 1 0 00-.97.758l-1 4A1 1 0 004 23h16a1 1 0 00.97-1.242zM12 3a3.254 3.254 0 013.25 3.25A3.158 3.158 0 0114.72 8H9.28a3.158 3.158 0 01-.53-1.75A3.254 3.254 0 0112 3zm-2.464 7h4.928a18.915 18.915 0 001.641 7H7.9a18.915 18.915 0 001.636-7zM5.281 21l.5-2h12.438l.5 2z"/></svg>