<svg height="512" viewBox="0 0 24 24" width="512" xmlns="http://www.w3.org/2000/svg"><path d="M21.293 10.658l-8.7 8.7A5.622 5.622 0 014.646 11.4l6.379-6.378a1 1 0 10-1.414-1.411L3.232 9.989a7.622 7.622 0 0010.779 10.779l8.7-8.7a1 1 0 10-1.414-1.414z"/><path d="M5.908 12.664a3.838 3.838 0 105.427 0 3.843 3.843 0 00-5.427 0zm4.013 4.014a1.88 1.88 0 01-2.6 0 1.838 1.838 0 112.6 0zm8.372-15.385l-7.7 7.7a1 1 0 101.418 1.407l7.7-7.7a1 1 0 00-1.414-1.414zm-2 9.414a1 1 0 001.414 0l4-4a1 1 0 10-1.414-1.414l-4 4a1 1 0 000 1.414z"/><circle cx="3" cy="5" r="1"/><circle cx="19.5" cy="19.5" r="1.5"/></svg>