<svg height="512" viewBox="0 0 24 24" width="512" xmlns="http://www.w3.org/2000/svg"><path d="m21.293 10.658-8.7 8.7a5.622 5.622 0 0 1 -7.947-7.958l6.379-6.378a1 1 0 1 0 -1.414-1.411l-6.379 6.378a7.622 7.622 0 0 0 10.779 10.779l8.7-8.7a1 1 0 1 0 -1.414-1.414z"/><path d="m5.908 12.664a3.838 3.838 0 1 0 5.427 0 3.843 3.843 0 0 0 -5.427 0zm4.013 4.014a1.88 1.88 0 0 1 -2.6 0 1.838 1.838 0 1 1 2.6 0z"/><path d="m18.293 1.293-7.7 7.7a1 1 0 1 0 1.418 1.407l7.7-7.7a1 1 0 0 0 -1.414-1.414z"/><path d="m16.293 10.707a1 1 0 0 0 1.414 0l4-4a1 1 0 1 0 -1.414-1.414l-4 4a1 1 0 0 0 0 1.414z"/><circle cx="3" cy="5" r="1"/><circle cx="19.5" cy="19.5" r="1.5"/></svg>