<svg xmlns="http://www.w3.org/2000/svg" viewBox="0 0 24 24" width="512" height="512"><path d="M3.111 23h5.556a1 1 0 001-1v-2.1a1.316 1.316 0 011.009-1.323 1.224 1.224 0 011.435 1.2V22a1 1 0 001 1h3.334a2.113 2.113 0 002.111-2.111v-3.445h1.222a3.224 3.224 0 003.179-3.756A3.314 3.314 0 0019.659 11h-1.1V7.555a2.113 2.113 0 00-2.111-2.111H13V4.34a3.313 3.313 0 00-2.688-3.3 3.222 3.222 0 00-3.756 3.182v1.222H3.111A2.113 2.113 0 001 7.555V12a1 1 0 001 1h2.1a1.317 1.317 0 011.323 1.01 1.223 1.223 0 01-1.2 1.434H2a1 1 0 00-1 1v4.445A2.113 2.113 0 003.111 23zM3 17.444h1.222A3.224 3.224 0 007.4 13.688 3.313 3.313 0 004.1 11H3V7.555a.111.111 0 01.111-.111h4.445a1 1 0 001-1V4.222A1.223 1.223 0 019.99 3.017 1.316 1.316 0 0111 4.34v2.1a1 1 0 001 1h4.445a.111.111 0 01.111.111V12a1 1 0 001 1h2.1a1.317 1.317 0 011.324 1.01 1.225 1.225 0 01-1.205 1.434h-2.219a1 1 0 00-1 1v4.445a.111.111 0 01-.111.111h-2.334v-1.222a3.222 3.222 0 00-3.756-3.178 3.313 3.313 0 00-2.688 3.3V21H3.111A.111.111 0 013 20.889z"/></svg>