<svg height="512" viewBox="0 0 469.333 469.333" width="512" xmlns="http://www.w3.org/2000/svg"><path d="M399.573 334.144A73.96 73.96 0 00416 288c0-41.237-33.429-74.667-74.667-74.667s-74.666 33.43-74.666 74.667a73.96 73.96 0 0016.427 46.144 128.85 128.85 0 00-48.427 43.243 128.859 128.859 0 00-48.427-43.243A73.966 73.966 0 00202.667 288c0-41.237-33.429-74.667-74.667-74.667S53.333 246.763 53.333 288a73.96 73.96 0 0016.427 46.144C26.985 356 .048 399.965 0 448c0 11.782 9.551 21.333 21.333 21.333H448c11.782 0 21.333-9.551 21.333-21.333-.047-48.035-26.985-92-69.76-113.856zM128 256c17.673 0 32 14.327 32 32s-14.327 32-32 32-32-14.327-32-32c0-17.673 14.327-32 32-32zM45.355 426.667c11.736-45.644 58.251-73.132 103.894-61.396a85.333 85.333 0 0161.396 61.396zM341.333 256c17.673 0 32 14.327 32 32s-14.327 32-32 32-32-14.327-32-32c0-17.673 14.327-32 32-32zm-82.624 170.667c11.781-45.632 58.324-73.073 103.956-61.292a85.334 85.334 0 0161.292 61.292zM132.267 157.867c-7.069 9.426-5.159 22.797 4.267 29.867 9.426 7.069 22.797 5.159 29.867-4.267 28.277-37.703 81.764-45.344 119.467-17.067a85.346 85.346 0 0117.067 17.067c7.069 9.426 20.441 11.336 29.867 4.267s11.336-20.441 4.267-29.867a128.013 128.013 0 00-44.053-37.163 73.898 73.898 0 0016.32-46.037C309.333 33.429 275.904 0 234.667 0S160 33.429 160 74.667a73.898 73.898 0 0016.32 46.016 127.863 127.863 0 00-44.053 37.184zm102.4-115.2c17.673 0 32 14.327 32 32s-14.327 32-32 32-32-14.327-32-32 14.327-32 32-32z"/></svg>