<svg height="512" viewBox="0 0 24 24" width="512" xmlns="http://www.w3.org/2000/svg"><path d="M19.7 16.7c.5-.6.8-1.4.8-2.2 0-1.9-1.6-3.5-3.5-3.5s-3.5 1.6-3.5 3.5c0 .8.3 1.6.8 2.2-.9.5-1.7 1.2-2.3 2-.6-.9-1.4-1.6-2.3-2 .5-.6.8-1.4.8-2.2 0-1.9-1.6-3.5-3.5-3.5s-3.5 1.6-3.5 3.5c0 .8.3 1.6.8 2.2-2 1-3.3 3.1-3.3 5.3 0 .6.4 1 1 1h20c.6 0 1-.4 1-1 0-2.3-1.3-4.3-3.3-5.3zM7 13c.8 0 1.5.7 1.5 1.5S7.8 16 7 16s-1.5-.7-1.5-1.5S6.2 13 7 13zm-3.9 8c1-4 6.7-4 7.7 0zM17 13c.8 0 1.5.7 1.5 1.5S17.8 16 17 16s-1.5-.7-1.5-1.5.7-1.5 1.5-1.5zm-3.9 8c1-4 6.7-4 7.7 0zM6 2v6c0 .6.4 1 1 1h2.9l1.4 1.6c.4.5 1.1.5 1.5 0L14.1 9H17c.6 0 1-.4 1-1V2c0-.6-.4-1-1-1H7c-.6 0-1 .4-1 1zm2 1h8v4h-2.3c-.3 0-.6.1-.8.4l-.9 1-.9-1.1c-.2-.2-.5-.3-.8-.3H8z"/></svg>