<svg id="Capa_1" enable-background="new 0 0 469.333 469.333" height="512" viewBox="0 0 469.333 469.333" width="512" xmlns="http://www.w3.org/2000/svg"><g><path d="m399.573 334.144c10.558-13.069 16.351-29.343 16.427-46.144 0-41.237-33.429-74.667-74.667-74.667s-74.666 33.43-74.666 74.667c.076 16.801 5.869 33.075 16.427 46.144-19.569 10.045-36.24 24.931-48.427 43.243-12.187-18.311-28.858-33.198-48.427-43.243 10.557-13.069 16.351-29.343 16.427-46.144 0-41.237-33.429-74.667-74.667-74.667s-74.667 33.43-74.667 74.667c.076 16.801 5.869 33.075 16.427 46.144-42.775 21.856-69.712 65.821-69.76 113.856 0 11.782 9.551 21.333 21.333 21.333h426.667c11.782 0 21.333-9.551 21.333-21.333-.047-48.035-26.985-92-69.76-113.856zm-271.573-78.144c17.673 0 32 14.327 32 32s-14.327 32-32 32-32-14.327-32-32c0-17.673 14.327-32 32-32zm-82.645 170.667c11.736-45.644 58.251-73.132 103.894-61.396 30.126 7.746 53.65 31.27 61.396 61.396zm295.978-170.667c17.673 0 32 14.327 32 32s-14.327 32-32 32-32-14.327-32-32c0-17.673 14.327-32 32-32zm-82.624 170.667c11.781-45.632 58.324-73.073 103.956-61.292 30.059 7.761 53.531 31.233 61.292 61.292z"/><path d="m132.267 157.867c-7.069 9.426-5.159 22.797 4.267 29.867 9.426 7.069 22.797 5.159 29.867-4.267 28.277-37.703 81.764-45.344 119.467-17.067 6.469 4.852 12.215 10.598 17.067 17.067 7.069 9.426 20.441 11.336 29.867 4.267s11.336-20.441 4.267-29.867c-11.668-15.575-26.735-28.285-44.053-37.163 10.501-13.052 16.255-29.285 16.32-46.037-.003-41.238-33.432-74.667-74.669-74.667s-74.667 33.429-74.667 74.667c.069 16.745 5.824 32.969 16.32 46.016-17.323 8.88-32.391 21.597-44.053 37.184zm102.4-115.2c17.673 0 32 14.327 32 32s-14.327 32-32 32-32-14.327-32-32 14.327-32 32-32z"/></g></svg>