<?xml version="1.0"?>
<svg xmlns="http://www.w3.org/2000/svg" viewBox="0 0 24 24" width="512" height="512"><g id="Statistic_Grow" data-name="Statistic Grow"><path d="M23,22H22V9a1,1,0,0,0-1-1H17a1,1,0,0,0-1,1V22H15V13a1,1,0,0,0-1-1H10a1,1,0,0,0-1,1v9H8V16a1,1,0,0,0-1-1H3a1,1,0,0,0-1,1v6H1a1,1,0,0,0,0,2H23a1,1,0,0,0,0-2ZM4,22V17H6v5Zm7,0V14h2v8Zm7,0V10h2V22Z"/><path d="M4,11c6.0086,0,11.3387-4.6041,14-7.3664V5a1,1,0,0,0,2,0V1a1.0229,1.0229,0,0,0-1-1H15a1,1,0,0,0,0,2h1.7845C14.4209,4.4921,9.4042,9,4,9a1,1,0,0,0,0,2Z"/></g></svg>
