<svg height="512" viewBox="0 0 24 24" width="512" xmlns="http://www.w3.org/2000/svg"><path d="m20.553 3.105-6 3c-3.328 1.665-5.279 3.848-5.798 6.495-.738 3.751 1.992 7.958 2.861 8.321a.985.985 0 0 0 .384.079c6.682 0 11-3.532 11-9 0-6.691-.9-8.318-1.293-8.707a1 1 0 0 0 -1.154-.188zm-7.6 15.86a8.594 8.594 0 0 1 5.44-8.046 1 1 0 1 0 -.788-1.838 10.363 10.363 0 0 0 -6.393 7.667 6.59 6.59 0 0 1 -.494-3.777c.4-2 1.989-3.706 4.728-5.076l5.03-2.515a29.2 29.2 0 0 1 .524 6.62c0 4.063-3.06 6.67-8.046 6.965z"/><path d="m8.553 7.9a1 1 0 0 0 .894-1.79l-6-3a1 1 0 0 0 -1.154.188c-.393.384-1.293 2.011-1.293 8.702a8.377 8.377 0 0 0 5.634 8.073 1 1 0 1 0 .732-1.861 6.386 6.386 0 0 1 -4.366-6.212 29.2 29.2 0 0 1 .523-6.62z"/></svg>