<svg height="512" viewBox="0 0 507.918 507.918" width="512" xmlns="http://www.w3.org/2000/svg"><path d="M253.962 507.918c101.916.095 184.613-82.447 184.708-184.363a184.535 184.535 0 00-69.272-144.282v-63.836C369.398 51.682 317.716 0 253.962 0S138.527 51.682 138.527 115.436v63.836c-79.59 63.658-92.505 179.784-28.847 259.374a184.535 184.535 0 00144.282 69.272zm-69.261-392.482c0-38.252 31.009-69.262 69.262-69.262s69.262 31.009 69.262 69.262v36.686a183.197 183.197 0 00-138.523 0v-36.686zm69.261 69.261c76.504 0 138.523 62.019 138.523 138.523s-62.019 138.523-138.523 138.523-138.523-62.018-138.523-138.523c.077-76.472 62.051-138.446 138.523-138.523z"/><path d="M230.875 339.912v52.57c0 12.751 10.336 23.087 23.087 23.087s23.087-10.337 23.087-23.087v-52.57c22.085-12.751 29.652-40.99 16.901-63.075s-40.99-29.652-63.075-16.901-29.652 40.991-16.901 63.075a46.17 46.17 0 0016.901 16.901z"/></svg>