<svg height="512" viewBox="0 0 24 24" width="512" xmlns="http://www.w3.org/2000/svg"><path d="m1 18.891a1 1 0 0 0 .293.707l3.107 3.109a1 1 0 0 0 1.414 0l7.774-7.773 3.112-3.11a1 1 0 0 0 0-1.414l-3.11-3.11a1 1 0 0 0 -1.414 0l-3.109 3.109-7.774 7.775a1 1 0 0 0 -.293.707zm11.883-9.469 1.7 1.7-1.7 1.7-1.695-1.7zm-3.109 3.109 1.7 1.7-6.36 6.359-1.695-1.7z"/><path d="m19.809 4.191a1 1 0 0 0 -1.414 0l-1.555 1.555a1 1 0 1 0 1.414 1.414l1.555-1.555a1 1 0 0 0 0-1.414z"/><path d="m22 10.9h-2.2a1 1 0 0 0 0 2h2.2a1 1 0 0 0 0-2z"/><path d="m18.254 16.629a1 1 0 1 0 -1.414 1.414l1.56 1.557a1 1 0 0 0 1.414-1.414z"/><path d="m4.4 4.191a1 1 0 0 0 0 1.414l1.557 1.555a1 1 0 0 0 1.414-1.414l-1.555-1.555a1 1 0 0 0 -1.416 0z"/><path d="m11.106 2v2.2a1 1 0 1 0 2 0v-2.2a1 1 0 0 0 -2 0z"/></svg>