<svg height="512" viewBox="0 0 24 24" width="512" xmlns="http://www.w3.org/2000/svg"><path d="M1 18.891a1 1 0 00.293.707L4.4 22.707a1 1 0 001.414 0l7.774-7.773 3.112-3.11a1 1 0 000-1.414L13.59 7.3a1 1 0 00-1.414 0l-3.109 3.109-7.774 7.775a1 1 0 00-.293.707zm11.883-9.469l1.7 1.7-1.7 1.7-1.695-1.7zm-3.109 3.109l1.7 1.7-6.36 6.359-1.695-1.7zM19.809 4.191a1 1 0 00-1.414 0L16.84 5.746a1 1 0 101.414 1.414l1.555-1.555a1 1 0 000-1.414zM22 10.9h-2.2a1 1 0 000 2H22a1 1 0 000-2zM18.254 16.629a1 1 0 10-1.414 1.414L18.4 19.6a1 1 0 001.414-1.414zM4.4 4.191a1 1 0 000 1.414L5.957 7.16a1 1 0 001.414-1.414L5.816 4.191a1 1 0 00-1.416 0zM11.106 2v2.2a1 1 0 102 0V2a1 1 0 00-2 0z"/></svg>