<svg height="512" viewBox="0 0 24 24" width="512" xmlns="http://www.w3.org/2000/svg"><path d="M2.5 22.864a1 1 0 001.368-.36l3.767-6.464a10.577 10.577 0 003.365.912V20a1 1 0 002 0v-3.048a10.577 10.577 0 003.365-.912l3.771 6.46a1 1 0 101.728-1l-3.756-6.44A12.127 12.127 0 0020.8 12.6a1 1 0 00-1.6-1.2 10.241 10.241 0 01-2.108 1.92l-2.13-3.656A3.966 3.966 0 0013 3.142V2a1 1 0 00-2 0v1.142a3.966 3.966 0 00-1.962 6.522l-2.131 3.653A10.3 10.3 0 014.8 11.4a1 1 0 00-1.6 1.2 12.127 12.127 0 002.692 2.456L2.136 21.5a1 1 0 00.364 1.364zM12 5a2 2 0 11-2 2 2 2 0 012-2zm-1.29 5.768a3.7 3.7 0 002.58 0l2.054 3.522a8.592 8.592 0 01-2.344.642V14a1 1 0 00-2 0v.932a8.592 8.592 0 01-2.344-.642z"/></svg>