<svg height="512" viewBox="0 0 24 24" width="512" xmlns="http://www.w3.org/2000/svg"><path d="m2.5 22.864a1 1 0 0 0 1.368-.36l3.767-6.464a10.577 10.577 0 0 0 3.365.912v3.048a1 1 0 0 0 2 0v-3.048a10.577 10.577 0 0 0 3.365-.912l3.771 6.46a1 1 0 1 0 1.728-1l-3.756-6.44a12.127 12.127 0 0 0 2.692-2.46 1 1 0 0 0 -1.6-1.2 10.241 10.241 0 0 1 -2.108 1.92l-2.13-3.656a3.966 3.966 0 0 0 -1.962-6.522v-1.142a1 1 0 0 0 -2 0v1.142a3.966 3.966 0 0 0 -1.962 6.522l-2.131 3.653a10.3 10.3 0 0 1 -2.107-1.917 1 1 0 0 0 -1.6 1.2 12.127 12.127 0 0 0 2.692 2.456l-3.756 6.444a1 1 0 0 0 .364 1.364zm9.5-17.864a2 2 0 1 1 -2 2 2 2 0 0 1 2-2zm-1.29 5.768a3.7 3.7 0 0 0 2.58 0l2.054 3.522a8.592 8.592 0 0 1 -2.344.642v-.932a1 1 0 0 0 -2 0v.932a8.592 8.592 0 0 1 -2.344-.642z"/></svg>