<svg height="512" viewBox="0 0 24 24" width="512" xmlns="http://www.w3.org/2000/svg"><path d="m22 4h-20a1 1 0 0 0 -1 1v14a1 1 0 0 0 1 1h20a1 1 0 0 0 1-1v-14a1 1 0 0 0 -1-1zm-1 12.184a2.987 2.987 0 0 0 -1.816 1.816h-14.368a2.987 2.987 0 0 0 -1.816-1.816v-8.368a2.987 2.987 0 0 0 1.816-1.816h14.368a2.987 2.987 0 0 0 1.816 1.816z"/><path d="m12 8a4 4 0 1 0 4 4 4 4 0 0 0 -4-4zm0 6a2 2 0 1 1 2-2 2 2 0 0 1 -2 2z"/><path d="m6 11h-1a1 1 0 0 0 0 2h1a1 1 0 0 0 0-2z"/><path d="m19 11h-1a1 1 0 0 0 0 2h1a1 1 0 0 0 0-2z"/></svg>