<svg xmlns="http://www.w3.org/2000/svg" viewBox="0 0 24 24" width="512" height="512"><path d="M6.121 10.7A6.462 6.462 0 003 16c0 3.859 4.037 7 9 7s9-3.141 9-7a6.58 6.58 0 00-3.121-5.3A6.721 6.721 0 0115 5.04V3h1a1 1 0 000-2H8a1 1 0 000 2h1v2.04a6.724 6.724 0 01-2.879 5.66zM12 21c-3.171 0-6.9-1.8-6.992-4.892a9.692 9.692 0 006.363-.179 14.315 14.315 0 017.539-.673l.008.035C19.629 18.547 15.857 21 12 21zm1-18v2.04a8.713 8.713 0 003.768 7.318 6.1 6.1 0 01.91.744 15.626 15.626 0 00-7.049.969 7.644 7.644 0 01-5.122.1 5.388 5.388 0 011.725-1.808A8.716 8.716 0 0011 5.04V3z"/><circle cx="14" cy="18" r="1"/><circle cx="12" cy="11" r="1"/></svg>