<svg id="Capa_1" enable-background="new 0 0 469.333 469.333" height="512" viewBox="0 0 469.333 469.333" width="512" xmlns="http://www.w3.org/2000/svg"><g><path d="m234.667 213.333c58.91 0 106.667-47.756 106.667-106.667s-47.757-106.666-106.667-106.666-106.667 47.756-106.667 106.667c.071 58.881 47.786 106.596 106.667 106.666zm0-170.666c35.346 0 64 28.654 64 64s-28.654 64-64 64-64-28.654-64-64 28.653-64 64-64z"/><path d="m64 469.333h341.333c11.782 0 21.333-9.551 21.333-21.333v-85.333c-.07-58.881-47.785-106.596-106.666-106.667h-170.667c-58.881.071-106.596 47.786-106.667 106.667v85.333c.001 11.782 9.552 21.333 21.334 21.333zm21.333-106.666c0-35.346 28.654-64 64-64h170.667c35.346 0 64 28.654 64 64v64h-298.667z"/></g></svg>