<svg height="512" viewBox="0 0 24 24" width="512" xmlns="http://www.w3.org/2000/svg"><circle cx="12" cy="8.667" r="2"/><path d="m18.93 11.924a7.667 7.667 0 1 0 -13.86 0l-3.826 4.422a1 1 0 0 0 .632 1.646l3.672.46.46 3.672a1 1 0 0 0 1.792.476l4.2-5.6 4.2 5.6a1 1 0 0 0 1.792-.476l.46-3.672 3.672-.46a1 1 0 0 0 .632-1.646zm-11.245 7.496-.248-1.988a1 1 0 0 0 -.869-.869l-2.588-.323 2.22-2.569c.006.008.014.013.02.02a7.684 7.684 0 0 0 3.884 2.4c.021.006.041.016.062.021zm4.315-5.087a5.667 5.667 0 1 1 5.667-5.666 5.692 5.692 0 0 1 -5.667 5.666zm5.432 2.23a1 1 0 0 0 -.869.869l-.248 1.988-2.484-3.312c.021 0 .041-.015.062-.021a7.72 7.72 0 0 0 3.9-2.416l2.227 2.569z"/></svg>