<svg height="512" viewBox="0 0 24 24" width="512" xmlns="http://www.w3.org/2000/svg"><circle cx="12" cy="8.667" r="2"/><path d="M18.93 11.924a7.667 7.667 0 10-13.86 0l-3.826 4.422a1 1 0 00.632 1.646l3.672.46.46 3.672A1 1 0 007.8 22.6L12 17l4.2 5.6a1 1 0 001.792-.476l.46-3.672 3.672-.46a1 1 0 00.632-1.646zM7.685 19.42l-.248-1.988a1 1 0 00-.869-.869L3.98 16.24l2.22-2.569c.006.008.014.013.02.02a7.684 7.684 0 003.884 2.4c.021.006.041.016.062.021zM12 14.333a5.667 5.667 0 115.667-5.666A5.692 5.692 0 0112 14.333zm5.432 2.23a1 1 0 00-.869.869l-.248 1.988-2.484-3.312c.021 0 .041-.015.062-.021a7.72 7.72 0 003.9-2.416l2.227 2.569z"/></svg>