<svg xmlns="http://www.w3.org/2000/svg" viewBox="0 0 24 24" width="512" height="512"><path d="M2.734 19.68L6.2 15.942l1.863 1.864-3.742 3.461a1 1 0 101.358 1.466l4.334-4.012a17.267 17.267 0 002.811-1.086l1.561 4.681a1 1 0 00.826.676.994.994 0 00.966-.455l5.834-9.167A1 1 0 0022 12.279l-1.47-2.206a17.151 17.151 0 001.41-3.715l1.03-4.115a1 1 0 00-1.212-1.213l-4.115 1.029a17.17 17.17 0 00-3.717 1.412L11.721 2a1 1 0 00-1.091-.01L1.463 7.823a1 1 0 00.221 1.792l4.681 1.561a17.162 17.162 0 00-1.085 2.81L1.266 18.32a1 1 0 001.468 1.36zm12.883.01L14.6 16.625a17.262 17.262 0 004.794-4.655l.585.876zM18.127 4l2.5-.624L20 5.873A15.243 15.243 0 019.788 16.707l-2.495-2.5A15.244 15.244 0 0118.127 4zM4.31 8.382l6.844-4.355.876.584A17.254 17.254 0 007.376 9.4z"/><circle cx="15.333" cy="8.667" r="1.667"/></svg>