<svg height="512" viewBox="0 0 24 24" width="512" xmlns="http://www.w3.org/2000/svg"><path d="M12 16a4 4 0 10-4-4 4 4 0 004 4zm0-6a2 2 0 11-2 2 2 2 0 012-2z"/><path d="M3.5 12.877l-1 .579a2 2 0 00-.733 2.732l1.489 2.578a2 2 0 002.734.734L7 18.916a1.006 1.006 0 011.008.011.992.992 0 01.495.857V21a2 2 0 002 2h3a2 2 0 002-2v-1.218a1.009 1.009 0 011.5-.866l1.009.582a2 2 0 002.732-.732l1.488-2.578a2 2 0 00-.733-2.732l-1-.579a1.007 1.007 0 01-.5-.89 1 1 0 01.5-.864l1-.579a2 2 0 00.733-2.732l-1.49-2.578A2 2 0 0018.01 4.5L17 5.083a1.008 1.008 0 01-1.5-.867V3a2 2 0 00-2-2h-3a2 2 0 00-2 2v1.294a.854.854 0 01-.428.74l-.154.089a.864.864 0 01-.854 0L5.99 4.5a2 2 0 00-2.733.732L1.769 7.813a2 2 0 00.731 2.731l1 .578a1.011 1.011 0 01.5.891.994.994 0 01-.5.864zm1-3.487l-1-.578 1.49-2.578 1.074.62a2.86 2.86 0 002.85 0l.154-.088A2.863 2.863 0 0010.5 4.294V3h3v1.216a3.008 3.008 0 004.5 2.6l1.007-.582L20.5 8.812l-1 .578a3.024 3.024 0 000 5.219l1 .579-1.488 2.578L18 17.184a3.008 3.008 0 00-4.5 2.6V21h-3v-1.216a3.006 3.006 0 00-4.5-2.6l-1.007.582L3.5 15.188l1-.579a3.024 3.024 0 000-5.219z"/></svg>