<svg height="512" viewBox="0 0 24 24" width="512" xmlns="http://www.w3.org/2000/svg"><path d="m12 16a4 4 0 1 0 -4-4 4 4 0 0 0 4 4zm0-6a2 2 0 1 1 -2 2 2 2 0 0 1 2-2z"/><path d="m3.5 12.877-1 .579a2 2 0 0 0 -.733 2.732l1.489 2.578a2 2 0 0 0 2.734.734l1.01-.584a1.006 1.006 0 0 1 1.008.011.992.992 0 0 1 .495.857v1.216a2 2 0 0 0 2 2h3a2 2 0 0 0 2-2v-1.218a1.009 1.009 0 0 1 1.5-.866l1.009.582a2 2 0 0 0 2.732-.732l1.488-2.578a2 2 0 0 0 -.733-2.732l-1-.579a1.007 1.007 0 0 1 -.5-.89 1 1 0 0 1 .5-.864l1-.579a2 2 0 0 0 .733-2.732l-1.49-2.578a2 2 0 0 0 -2.732-.734l-1.01.583a1.008 1.008 0 0 1 -1.5-.867v-1.216a2 2 0 0 0 -2-2h-3a2 2 0 0 0 -2 2v1.294a.854.854 0 0 1 -.428.74l-.154.089a.864.864 0 0 1 -.854 0l-1.074-.623a2 2 0 0 0 -2.733.732l-1.488 2.581a2 2 0 0 0 .731 2.731l1 .578a1.011 1.011 0 0 1 .5.891.994.994 0 0 1 -.5.864zm1-3.487-1-.578 1.49-2.578 1.074.62a2.86 2.86 0 0 0 2.85 0l.154-.088a2.863 2.863 0 0 0 1.432-2.472v-1.294h3v1.216a3.008 3.008 0 0 0 4.5 2.6l1.007-.582 1.493 2.578-1 .578a3.024 3.024 0 0 0 0 5.219l1 .579-1.488 2.578-1.012-.582a3.008 3.008 0 0 0 -4.5 2.6v1.216h-3v-1.216a3.006 3.006 0 0 0 -4.5-2.6l-1.007.582-1.493-2.578 1-.579a3.024 3.024 0 0 0 0-5.219z"/></svg>