<svg height="512" viewBox="0 0 24 24" width="512" xmlns="http://www.w3.org/2000/svg"><path d="m22 17.667a1 1 0 0 0 -1 1 2.334 2.334 0 0 1 -4.667 0 1 1 0 1 0 -2 0 2.333 2.333 0 1 1 -4.666 0 1 1 0 0 0 -2 0 2.334 2.334 0 0 1 -4.667 0 1 1 0 0 0 -2 0 4.332 4.332 0 0 0 7.667 2.766 4.328 4.328 0 0 0 6.666 0 4.332 4.332 0 0 0 7.667-2.766 1 1 0 0 0 -1-1z"/><path d="m17.8 17.98a.948.948 0 0 0 .2.02 1 1 0 0 0 .979-.8l1-5a1 1 0 0 0 -.484-1.064l-1.495-.859v-4.277a2 2 0 0 0 -2-2h-3v-2a1 1 0 0 0 -2 0v2h-3a2 2 0 0 0 -2 2v4.277l-1.5.855a1 1 0 0 0 -.48 1.068l1 5a1 1 0 0 0 1.96-.4l-.858-4.293 5.878-3.355 5.878 3.359-.858 4.289a1 1 0 0 0 .78 1.18zm-6.3-10.848-3.5 2v-3.132h8v3.134l-3.5-2a1 1 0 0 0 -1-.002z"/></svg>