<svg height="512" viewBox="0 0 24 24" width="512" xmlns="http://www.w3.org/2000/svg"><path d="M22 17.667a1 1 0 00-1 1 2.334 2.334 0 01-4.667 0 1 1 0 10-2 0 2.333 2.333 0 11-4.666 0 1 1 0 00-2 0 2.334 2.334 0 01-4.667 0 1 1 0 00-2 0 4.332 4.332 0 007.667 2.766 4.328 4.328 0 006.666 0A4.332 4.332 0 0023 18.667a1 1 0 00-1-1z"/><path d="M17.8 17.98a.948.948 0 00.2.02 1 1 0 00.979-.8l1-5a1 1 0 00-.484-1.064L18 10.277V6a2 2 0 00-2-2h-3V2a1 1 0 00-2 0v2H8a2 2 0 00-2 2v4.277l-1.5.855a1 1 0 00-.48 1.068l1 5a1 1 0 001.96-.4l-.858-4.293L12 9.152l5.878 3.359-.858 4.289a1 1 0 00.78 1.18zM11.5 7.132l-3.5 2V6h8v3.134l-3.5-2a1 1 0 00-1-.002z"/></svg>