<svg xmlns="http://www.w3.org/2000/svg" viewBox="0 0 24 24" width="512" height="512"><path d="M12 23a2 2 0 002-2h-4a2 2 0 002 2zm8.924-4.617a1 1 0 00-.217-1.09L19 15.586V14a1 1 0 00-2 0v2c0 .576.434.81.586 1H6.414c.153-.191.586-.429.586-1v-6a5 5 0 016.666-4.716 1 1 0 00.668-1.884A6.937 6.937 0 0013 3.085V2a1 1 0 00-2 0v1.08A7 7 0 005 10v5.586l-1.707 1.707A1 1 0 004 19h16a1 1 0 00.924-.617z"/><path d="M20.924 5.617A1 1 0 0020 5h-4a1 1 0 000 2h1.586l-2.293 2.293A1 1 0 0016 11h4a1 1 0 000-2h-1.586l2.293-2.293a1 1 0 00.217-1.09z"/></svg>