<svg height="512" viewBox="0 0 24 24" width="512" xmlns="http://www.w3.org/2000/svg"><path d="M22 2H2a1 1 0 00-1 1v18a1 1 0 001 1h20a1 1 0 001-1V3a1 1 0 00-1-1zm-1 18H3V4h18z"/><path d="M6 17h.2a14.9 14.9 0 0010.607-4.394l.193-.192V14a1 1 0 002 0v-4a1 1 0 00-.618-.923A1.01 1.01 0 0018 9h-4a1 1 0 000 2h1.586l-.192.192A12.916 12.916 0 016.2 15H6a1 1 0 000 2zm-.707-5.293a1 1 0 001.414 0l.793-.793.793.793a1 1 0 001.414-1.414L8.914 9.5l.793-.793a1 1 0 10-1.414-1.414l-.793.793-.793-.793a1 1 0 10-1.414 1.414l.793.793-.793.793a1 1 0 000 1.414z"/></svg>