<svg height="512" viewBox="0 0 24 24" width="512" xmlns="http://www.w3.org/2000/svg"><path d="m22 2h-20a1 1 0 0 0 -1 1v18a1 1 0 0 0 1 1h20a1 1 0 0 0 1-1v-18a1 1 0 0 0 -1-1zm-1 18h-18v-16h18z"/><path d="m6 17h.2a14.9 14.9 0 0 0 10.607-4.394l.193-.192v1.586a1 1 0 0 0 2 0v-4a1 1 0 0 0 -.618-.923 1.01 1.01 0 0 0 -.382-.077h-4a1 1 0 0 0 0 2h1.586l-.192.192a12.916 12.916 0 0 1 -9.194 3.808h-.2a1 1 0 0 0 0 2z"/><path d="m5.293 11.707a1 1 0 0 0 1.414 0l.793-.793.793.793a1 1 0 0 0 1.414-1.414l-.793-.793.793-.793a1 1 0 1 0 -1.414-1.414l-.793.793-.793-.793a1 1 0 1 0 -1.414 1.414l.793.793-.793.793a1 1 0 0 0 0 1.414z"/></svg>