<?xml version="1.0"?>
<svg xmlns="http://www.w3.org/2000/svg" viewBox="0 0 24 24" width="512" height="512"><g id="Target"><path d="M22,4H20V2a1,1,0,0,0-2,0V4.5859L15.611,6.975a9.0229,9.0229,0,1,0,1.414,1.414L19.4141,6H22a1,1,0,0,0,0-2ZM17,14a7.0271,7.0271,0,1,1-2.8157-5.5983L12.7529,9.833a5.015,5.015,0,1,0,1.4141,1.4141l1.4313-1.4314A6.9539,6.9539,0,0,1,17,14Zm-4,0a3,3,0,1,1-3-3,2.9659,2.9659,0,0,1,1.2853.3006L9.293,13.293a1,1,0,0,0,1.414,1.414l1.9924-1.9923A2.9659,2.9659,0,0,1,13,14Z"/></g></svg>
