<svg xmlns="http://www.w3.org/2000/svg" viewBox="0 0 24 24" width="512" height="512"><path d="M17.605 5.825a6.973 6.973 0 00-11.21 0C3.017 6.887 1 8.8 1 11c0 2.317 2.293 4.289 5.736 5.291l-1.631 3.262a1 1 0 001.79.894l1.852-3.7a19.755 19.755 0 002.253.226V19a1 1 0 002 0v-2.027a19.755 19.755 0 002.253-.231l1.852 3.7a1 1 0 101.79-.894l-1.631-3.262C20.707 15.289 23 13.317 23 11c0-2.2-2.017-4.113-5.395-5.175zM12 5a5.007 5.007 0 014.964 4.4l-.045.022a11.055 11.055 0 01-9.838 0L7.036 9.4A5.007 5.007 0 0112 5zm0 10c-5.3 0-9-2.108-9-4 0-.893.816-1.8 2.171-2.519A6.981 6.981 0 005 10c0 .86.9 1.007 1.186 1.211A13.007 13.007 0 0012 12.576a13.007 13.007 0 005.814-1.365C18.086 11.02 19 10.851 19 10a6.981 6.981 0 00-.171-1.519C20.184 9.2 21 10.107 21 11c0 1.892-3.7 4-9 4z"/></svg>