<svg width="512" height="512" viewBox="0 0 512 512" fill="none" xmlns="http://www.w3.org/2000/svg"><g clip-path="url(#illustrations--diving-helmet__clip0_34_1412)"><path d="M490.109 512H21.89c-6.311 0-11.427-5.116-11.427-11.428 0-60.967 49.424-110.391 110.391-110.391h270.292c60.967 0 110.391 49.424 110.391 110.391 0 6.312-5.116 11.428-11.428 11.428z" fill="url(#illustrations--diving-helmet__paint0_linear_34_1412)"/><path d="M391.146 390.181H120.854c-14.716 0-28.756 2.887-41.595 8.114v23.764L169.2 512h320.91c6.311 0 11.427-5.116 11.427-11.428 0-60.967-49.424-110.391-110.391-110.391z" fill="url(#illustrations--diving-helmet__paint1_linear_34_1412)"/><path d="M10.463 500.572c0 6.312 5.116 11.428 11.428 11.428H490.11c6.312 0 11.428-5.116 11.428-11.428 0-17.791-4.215-34.597-11.692-49.482H22.154c-7.476 14.885-11.691 31.691-11.691 49.482z" fill="url(#illustrations--diving-helmet__paint2_linear_34_1412)"/><path d="M420.153 379.561c-30.98-10.138-47.114-44.534-34.496-74.589 1.643-3.913 3.44-7.244 5.401-9.73 23.07-29.255 36.837-66.186 36.837-106.337 0-96.103-78.864-173.785-175.404-171.86C159.384 18.902 84.267 95.475 84.105 188.6c-.07 40.264 13.707 77.306 36.831 106.633 1.962 2.488 3.76 5.823 5.403 9.739 12.616 30.057-3.515 64.451-34.495 74.59-12.476 4.083-19.733 8.963-19.733 14.641 0 40.424 82.329 73.195 183.889 73.195 101.56 0 183.889-32.77 183.889-73.195 0-5.677-7.259-10.558-19.736-14.641z" fill="url(#illustrations--diving-helmet__paint3_linear_34_1412)"/><path d="M429.829 418.128L110.042 98.341c-16.38 26.274-25.88 57.222-25.938 90.259-.07 40.264 13.707 77.306 36.831 106.633 1.962 2.488 3.76 5.823 5.404 9.739 12.616 30.057-3.515 64.451-34.495 74.59-12.476 4.083-19.733 8.963-19.733 14.641 0 40.424 82.329 73.195 183.889 73.195 80.508 0 148.923-20.596 173.829-49.27z" fill="url(#illustrations--diving-helmet__paint4_linear_34_1412)"/><path d="M252.49 17.044c-30.359.606-58.803 9.16-83.362 23.637L404.3 275.854c14.992-25.509 23.594-55.222 23.594-86.949 0-96.103-78.864-173.785-175.404-171.86z" fill="url(#illustrations--diving-helmet__paint5_linear_34_1412)"/><path d="M391.057 295.241c21.02-26.656 34.313-59.685 36.509-95.714l-83.356-83.356c-20.982-23.197-51.318-37.773-85.059-37.773-63.326 0-114.662 51.336-114.662 114.662 0 33.742 14.576 64.076 37.773 85.058l176.73 176.73c48.814-13.16 80.897-35.411 80.897-60.645 0-5.678-7.258-10.559-19.736-14.642-30.98-10.138-47.114-44.534-34.496-74.589 1.643-3.913 3.44-7.245 5.4-9.731z" fill="url(#illustrations--diving-helmet__paint6_linear_34_1412)"/><path d="M335.646 42.483H176.354c-8.49 0-15.373-6.883-15.373-15.373 0-14.973 12.137-27.11 27.11-27.11h135.818c14.973 0 27.11 12.137 27.11 27.11 0 8.491-6.882 15.373-15.373 15.373z" fill="url(#illustrations--diving-helmet__paint7_linear_34_1412)"/><path d="M114.595 109.258v159.293c0 8.49-6.883 15.373-15.373 15.373-14.973 0-27.11-12.137-27.11-27.11V120.996c0-14.973 12.137-27.11 27.11-27.11 8.49-.001 15.373 6.882 15.373 15.372z" fill="url(#illustrations--diving-helmet__paint8_linear_34_1412)"/><path d="M397.405 109.258v159.293c0 8.49 6.883 15.373 15.373 15.373 14.973 0 27.11-12.137 27.11-27.11V120.996c0-14.973-12.137-27.11-27.11-27.11-8.49-.001-15.373 6.882-15.373 15.372z" fill="url(#illustrations--diving-helmet__paint9_linear_34_1412)"/><path d="M256 303.567c63.326 0 114.662-51.336 114.662-114.662 0-63.326-51.336-114.662-114.662-114.662-63.326 0-114.662 51.336-114.662 114.662 0 63.326 51.336 114.662 114.662 114.662z" fill="url(#illustrations--diving-helmet__paint10_linear_34_1412)"/><path d="M256 285.944c53.593 0 97.039-43.446 97.039-97.039S309.593 91.865 256 91.865s-97.039 43.447-97.039 97.04 43.446 97.039 97.039 97.039z" fill="url(#illustrations--diving-helmet__paint11_linear_34_1412)"/><path d="M256 269.983c44.778 0 81.078-36.3 81.078-81.078 0-44.778-36.3-81.078-81.078-81.078-44.778 0-81.078 36.3-81.078 81.078 0 44.778 36.3 81.078 81.078 81.078z" fill="url(#illustrations--diving-helmet__paint12_linear_34_1412)"/><path d="M446.805 392.353c-1.454-4.857-7.808-6.117-11.31-2.45-26.776 28.036-97.033 48.046-179.496 48.046-82.463 0-152.719-20.01-179.495-48.046-3.502-3.666-9.856-2.406-11.31 2.45a6.419 6.419 0 00-.274 1.85c0 40.424 85.549 73.195 191.079 73.195s191.079-32.77 191.079-73.195a6.336 6.336 0 00-.273-1.85z" fill="url(#illustrations--diving-helmet__paint13_linear_34_1412)"/><g opacity=".5"><path d="M39.86 112.96c16.236 0 29.397-13.162 29.397-29.398 0-16.236-13.161-29.397-29.397-29.397-16.236 0-29.398 13.161-29.398 29.397 0 16.236 13.162 29.398 29.398 29.398z" fill="url(#illustrations--diving-helmet__paint14_linear_34_1412)"/><path d="M52.215 149.997c9.412 0 17.042-7.63 17.042-17.043 0-9.412-7.63-17.042-17.042-17.042-9.412 0-17.043 7.63-17.043 17.042 0 9.413 7.63 17.043 17.043 17.043z" fill="url(#illustrations--diving-helmet__paint15_linear_34_1412)"/><path d="M76.999 53.361c9.412 0 17.042-7.63 17.042-17.042 0-9.412-7.63-17.043-17.042-17.043-9.413 0-17.043 7.63-17.043 17.043 0 9.412 7.63 17.042 17.043 17.042z" fill="url(#illustrations--diving-helmet__paint16_linear_34_1412)"/></g><path d="M127.808 408.515c7.947 0 14.389-6.443 14.389-14.389 0-7.947-6.442-14.39-14.389-14.39-7.947 0-14.389 6.443-14.389 14.39 0 7.946 6.442 14.389 14.389 14.389z" fill="url(#illustrations--diving-helmet__paint17_linear_34_1412)"/><path d="M191.403 420.562c7.947 0 14.389-6.442 14.389-14.389 0-7.947-6.442-14.39-14.389-14.39-7.947 0-14.39 6.443-14.39 14.39 0 7.947 6.443 14.389 14.39 14.389z" fill="url(#illustrations--diving-helmet__paint18_linear_34_1412)"/><path d="M256 429.597c7.947 0 14.389-6.442 14.389-14.389 0-7.947-6.442-14.389-14.389-14.389-7.947 0-14.389 6.442-14.389 14.389 0 7.947 6.442 14.389 14.389 14.389z" fill="url(#illustrations--diving-helmet__paint19_linear_34_1412)"/><path d="M320.597 420.562c7.947 0 14.39-6.442 14.39-14.389 0-7.947-6.443-14.39-14.39-14.39-7.947 0-14.389 6.443-14.389 14.39 0 7.947 6.442 14.389 14.389 14.389z" fill="url(#illustrations--diving-helmet__paint20_linear_34_1412)"/><path d="M384.192 408.515c7.947 0 14.389-6.443 14.389-14.389 0-7.947-6.442-14.39-14.389-14.39-7.947 0-14.39 6.443-14.39 14.39 0 7.946 6.443 14.389 14.39 14.389z" fill="url(#illustrations--diving-helmet__paint21_linear_34_1412)"/></g><defs><linearGradient id="illustrations--diving-helmet__paint0_linear_34_1412" x1="256" y1="423.636" x2="256" y2="506.516" gradientUnits="userSpaceOnUse"><stop stop-color="#537983"/><stop offset="1" stop-color="#3E5959"/></linearGradient><linearGradient id="illustrations--diving-helmet__paint1_linear_34_1412" x1="295.259" y1="525.556" x2="287.898" y2="425.164" gradientUnits="userSpaceOnUse"><stop stop-color="#3E5959" stop-opacity="0"/><stop offset="1" stop-color="#384949"/></linearGradient><linearGradient id="illustrations--diving-helmet__paint2_linear_34_1412" x1="256" y1="476.528" x2="256" y2="508.716" gradientUnits="userSpaceOnUse"><stop stop-color="#3E5959" stop-opacity="0"/><stop offset="1" stop-color="#384949"/></linearGradient><linearGradient id="illustrations--diving-helmet__paint3_linear_34_1412" x1="139.266" y1="152.259" x2="405.698" y2="418.69" gradientUnits="userSpaceOnUse"><stop stop-color="#FFE177"/><stop offset="1" stop-color="#FE9738"/></linearGradient><linearGradient id="illustrations--diving-helmet__paint4_linear_34_1412" x1="178.431" y1="305.051" x2=".403" y2="210.012" gradientUnits="userSpaceOnUse"><stop stop-color="#FE9738" stop-opacity="0"/><stop offset="1" stop-color="#FE7701"/></linearGradient><linearGradient id="illustrations--diving-helmet__paint5_linear_34_1412" x1="298.511" y1="94.369" x2="298.511" y2="-15.395" gradientUnits="userSpaceOnUse"><stop stop-color="#FE9738" stop-opacity="0"/><stop offset="1" stop-color="#FE7701"/></linearGradient><linearGradient id="illustrations--diving-helmet__paint6_linear_34_1412" x1="398.526" y1="331.845" x2="264" y2="198.658" gradientUnits="userSpaceOnUse"><stop stop-color="#FE9738" stop-opacity="0"/><stop offset="1" stop-color="#FE7701"/></linearGradient><linearGradient id="illustrations--diving-helmet__paint7_linear_34_1412" x1="252.359" y1="11.281" x2="261.059" y2="47.422" gradientUnits="userSpaceOnUse"><stop stop-color="#EDF5FF"/><stop offset="1" stop-color="#C7E9FF"/></linearGradient><linearGradient id="illustrations--diving-helmet__paint8_linear_34_1412" x1="67.977" y1="160.09" x2="122.272" y2="214.386" gradientUnits="userSpaceOnUse"><stop stop-color="#EDF5FF"/><stop offset="1" stop-color="#C7E9FF"/></linearGradient><linearGradient id="illustrations--diving-helmet__paint9_linear_34_1412" x1="384.802" y1="158.497" x2="426.973" y2="200.668" gradientUnits="userSpaceOnUse"><stop stop-color="#EDF5FF"/><stop offset="1" stop-color="#C7E9FF"/></linearGradient><linearGradient id="illustrations--diving-helmet__paint10_linear_34_1412" x1="197.382" y1="130.286" x2="331.108" y2="264.013" gradientUnits="userSpaceOnUse"><stop stop-color="#EDF5FF"/><stop offset="1" stop-color="#C7E9FF"/></linearGradient><linearGradient id="illustrations--diving-helmet__paint11_linear_34_1412" x1="305.61" y1="238.514" x2="192.436" y2="125.339" gradientUnits="userSpaceOnUse"><stop stop-color="#EDF5FF"/><stop offset="1" stop-color="#C7E9FF"/></linearGradient><linearGradient id="illustrations--diving-helmet__paint12_linear_34_1412" x1="229.396" y1="162.301" x2="295.028" y2="227.933" gradientUnits="userSpaceOnUse"><stop stop-color="#537983"/><stop offset="1" stop-color="#3E5959"/></linearGradient><linearGradient id="illustrations--diving-helmet__paint13_linear_34_1412" x1="256" y1="432.356" x2="256" y2="472.518" gradientUnits="userSpaceOnUse"><stop stop-color="#FFE177"/><stop offset="1" stop-color="#FE9738"/></linearGradient><linearGradient id="illustrations--diving-helmet__paint14_linear_34_1412" x1="27.782" y1="71.486" x2="68.965" y2="112.668" gradientUnits="userSpaceOnUse"><stop stop-color="#EDF5FF"/><stop offset="1" stop-color="#C7E9FF"/></linearGradient><linearGradient id="illustrations--diving-helmet__paint15_linear_34_1412" x1="42.633" y1="123.373" x2="60.938" y2="141.678" gradientUnits="userSpaceOnUse"><stop stop-color="#EDF5FF"/><stop offset="1" stop-color="#C7E9FF"/></linearGradient><linearGradient id="illustrations--diving-helmet__paint16_linear_34_1412" x1="67.417" y1="26.738" x2="85.722" y2="45.042" gradientUnits="userSpaceOnUse"><stop stop-color="#EDF5FF"/><stop offset="1" stop-color="#C7E9FF"/></linearGradient><linearGradient id="illustrations--diving-helmet__paint17_linear_34_1412" x1="127.808" y1="414.62" x2="127.808" y2="391.042" gradientUnits="userSpaceOnUse"><stop stop-color="#FFE177"/><stop offset="1" stop-color="#FE9738"/></linearGradient><linearGradient id="illustrations--diving-helmet__paint18_linear_34_1412" x1="191.403" y1="426.667" x2="191.403" y2="403.09" gradientUnits="userSpaceOnUse"><stop stop-color="#FFE177"/><stop offset="1" stop-color="#FE9738"/></linearGradient><linearGradient id="illustrations--diving-helmet__paint19_linear_34_1412" x1="256" y1="435.702" x2="256" y2="412.125" gradientUnits="userSpaceOnUse"><stop stop-color="#FFE177"/><stop offset="1" stop-color="#FE9738"/></linearGradient><linearGradient id="illustrations--diving-helmet__paint20_linear_34_1412" x1="320.597" y1="426.667" x2="320.597" y2="403.09" gradientUnits="userSpaceOnUse"><stop stop-color="#FFE177"/><stop offset="1" stop-color="#FE9738"/></linearGradient><linearGradient id="illustrations--diving-helmet__paint21_linear_34_1412" x1="384.192" y1="414.62" x2="384.192" y2="391.042" gradientUnits="userSpaceOnUse"><stop stop-color="#FFE177"/><stop offset="1" stop-color="#FE9738"/></linearGradient><clipPath id="illustrations--diving-helmet__clip0_34_1412"><path fill="#fff" d="M0 0h512v512H0z"/></clipPath></defs></svg>