<svg height="512" viewBox="0 0 510 510" width="512" xmlns="http://www.w3.org/2000/svg" xmlns:xlink="http://www.w3.org/1999/xlink"><linearGradient id="illustrations--first-aid-kit__a"><stop offset="0" stop-color="#5a5a5a"/><stop offset="1" stop-color="#444"/></linearGradient><linearGradient id="illustrations--first-aid-kit__e" gradientUnits="userSpaceOnUse" x1="255" x2="255" xlink:href="#illustrations--first-aid-kit__a" y1="21.353" y2="47.857"/><linearGradient id="illustrations--first-aid-kit__f" gradientUnits="userSpaceOnUse" x1="168.807" x2="168.807" xlink:href="#illustrations--first-aid-kit__a" y1="32.187" y2="195.347"/><linearGradient id="illustrations--first-aid-kit__g" gradientTransform="matrix(-1 0 0 1 1744.395 0)" gradientUnits="userSpaceOnUse" x1="1403.201" x2="1403.201" xlink:href="#illustrations--first-aid-kit__a" y1="32.187" y2="195.347"/><linearGradient id="illustrations--first-aid-kit__h" gradientUnits="userSpaceOnUse" x1="255" x2="255" y1="30.187" y2="61.946"><stop offset="0" stop-color="#b3dafe"/><stop offset="1" stop-color="#314dc9"/></linearGradient><linearGradient id="illustrations--first-aid-kit__i" gradientUnits="userSpaceOnUse" x1="88.298" x2="88.298" xlink:href="#illustrations--first-aid-kit__a" y1="476.772" y2="470.517"/><linearGradient id="illustrations--first-aid-kit__j" gradientUnits="userSpaceOnUse" x1="421.703" x2="421.703" xlink:href="#illustrations--first-aid-kit__a" y1="476.772" y2="470.517"/><linearGradient id="illustrations--first-aid-kit__b"><stop offset="0" stop-color="#f9f5f3"/><stop offset="1" stop-color="#e1d3ce"/></linearGradient><linearGradient id="illustrations--first-aid-kit__k" gradientUnits="userSpaceOnUse" x1="124.756" x2="375.639" xlink:href="#illustrations--first-aid-kit__b" y1="149.392" y2="400.275"/><linearGradient id="illustrations--first-aid-kit__c"><stop offset="0" stop-color="#9e9797" stop-opacity="0"/><stop offset=".311" stop-color="#979090" stop-opacity=".311"/><stop offset=".786" stop-color="#817a7a" stop-opacity=".786"/><stop offset="1" stop-color="#766e6e"/></linearGradient><linearGradient id="illustrations--first-aid-kit__l" gradientUnits="userSpaceOnUse" x1="255" x2="255" xlink:href="#illustrations--first-aid-kit__c" y1="419.301" y2="467.436"/><linearGradient id="illustrations--first-aid-kit__m" gradientUnits="userSpaceOnUse" x1="407.354" x2="187.996" xlink:href="#illustrations--first-aid-kit__c" y1="431.99" y2="212.631"/><linearGradient id="illustrations--first-aid-kit__d"><stop offset="0" stop-color="#fd4755"/><stop offset="1" stop-color="#a72b2b"/></linearGradient><linearGradient id="illustrations--first-aid-kit__n" gradientUnits="userSpaceOnUse" x1="194.688" x2="345.427" xlink:href="#illustrations--first-aid-kit__d" y1="219.323" y2="370.063"/><linearGradient id="illustrations--first-aid-kit__o" gradientUnits="userSpaceOnUse" x1="324.687" x2="176.633" xlink:href="#illustrations--first-aid-kit__d" y1="349.323" y2="201.269"/><linearGradient id="illustrations--first-aid-kit__p" gradientUnits="userSpaceOnUse" x1="233.116" x2="277.686" xlink:href="#illustrations--first-aid-kit__b" y1="257.751" y2="302.321"/><path d="M282.996 32.187H223.232c-17.949 0-32.5 14.551-32.5 32.5h128.536c0-17.949-14.551-32.5-32.5-32.5z" fill="url(#illustrations--first-aid-kit__e)"/><path d="M191.885 41.311a28.706 28.706 0 0118.973-8.377l16.145-.746c-15.252.705-27.255 13.276-27.255 28.544a53.624 53.624 0 01-15.699 37.911l-11.571 11.575a91.711 91.711 0 00-26.87 64.87v13.03a7.23 7.23 0 01-7.23 7.23h-20.55a7.22 7.22 0 01-7.22-7.22v-13.04a126.747 126.747 0 0137.123-89.623z" fill="url(#illustrations--first-aid-kit__f)"/><path d="M318.115 41.311a28.706 28.706 0 00-18.973-8.377l-16.145-.746c15.252.705 27.255 13.276 27.255 28.544a53.624 53.624 0 0015.699 37.911l11.571 11.575a91.711 91.711 0 0126.87 64.87v13.03a7.23 7.23 0 007.23 7.23h20.55a7.22 7.22 0 007.22-7.22v-13.04a126.747 126.747 0 00-37.123-89.623z" fill="url(#illustrations--first-aid-kit__g)"/><path d="M279.636 69.738h-49.272c-7.657 0-13.864-6.207-13.864-13.864V40.55c0-7.657 6.207-13.864 13.864-13.864h49.272c7.657 0 13.864 6.207 13.864 13.864v15.323c0 7.658-6.207 13.865-13.864 13.865z" fill="url(#illustrations--first-aid-kit__h)"/><path d="M91.976 483.313H84.62c-10.362 0-18.763-8.4-18.763-18.763v-12.834h44.882v12.834c-.001 10.363-8.401 18.763-18.763 18.763z" fill="url(#illustrations--first-aid-kit__i)"/><path d="M425.38 483.313h-7.356c-10.362 0-18.763-8.4-18.763-18.763v-12.834h44.882v12.834c0 10.363-8.4 18.763-18.763 18.763z" fill="url(#illustrations--first-aid-kit__j)"/><path d="M474.04 95.519H35.96c-19.86 0-35.96 16.1-35.96 35.96v296.313c0 19.86 16.1 35.96 35.96 35.96h438.08c19.86 0 35.96-16.1 35.96-35.96V131.479c0-19.86-16.1-35.96-35.96-35.96z" fill="url(#illustrations--first-aid-kit__k)"/><path d="M0 314.722v113.07c0 19.86 16.1 35.96 35.96 35.96h438.08c19.86 0 35.96-16.1 35.96-35.96v-113.07z" fill="url(#illustrations--first-aid-kit__l)"/><path d="M510 427.792v-55.275L336.059 198.576 173.941 360.695l103.057 103.057H474.04c19.86 0 35.96-16.1 35.96-35.96z" fill="url(#illustrations--first-aid-kit__m)"/><circle cx="255" cy="279.635" fill="url(#illustrations--first-aid-kit__n)" r="114.635"/><circle cx="255" cy="279.635" fill="url(#illustrations--first-aid-kit__o)" r="93.496"/><path d="M311.981 251.415h-28.76v-28.76c0-7.971-6.462-14.433-14.433-14.433h-27.575c-7.971 0-14.433 6.462-14.433 14.433v28.76h-28.76c-7.971 0-14.433 6.462-14.433 14.433v27.575c0 7.971 6.462 14.433 14.433 14.433h28.76v28.76c0 7.971 6.462 14.433 14.433 14.433h27.575c7.971 0 14.433-6.462 14.433-14.433v-28.76h28.76c7.971 0 14.433-6.462 14.433-14.433v-27.575c0-7.971-6.462-14.433-14.433-14.433z" fill="url(#illustrations--first-aid-kit__p)"/></svg>