<svg width="512" height="512" viewBox="0 0 512 512" fill="none" xmlns="http://www.w3.org/2000/svg"><path d="M459.431 119.578C441.718 102.47 417.75 88.12 394.467 88.12c-27.733 0-86.778 26.916-121.759 46.973-5.026 2.883-9.123 7.229-11.963 12.442a36.847 36.847 0 00-1.43 2.942c-1.933-4.785-2.988-9.945-2.988-15.135 0-6.348 1.584-12.192 4.418-16.989 2.84-4.797 6.937-8.542 11.963-10.682 34.982-14.92 94.026-33.165 121.759-29.093 23.283 3.425 47.251 21.294 64.964 41z" fill="url(#illustrations--fish__paint0_linear_34_1331)"/><path d="M272.263 107.872l9.028 22.427c35.403-19.291 87.603-42.18 113.176-42.18 23.283 0 47.251 14.351 64.964 31.459-17.713-19.706-41.681-37.576-64.964-41-27.733-4.071-86.778 14.172-121.759 29.093-.15.064-.297.134-.445.201z" fill="url(#illustrations--fish__paint1_linear_34_1331)"/><path d="M305.634 117.81c31.978-15.47 68.676-29.69 88.833-29.69 23.283 0 47.251 14.35 64.964 31.458-17.713-19.706-41.681-37.576-64.964-41-21.858-3.209-63.165 7.444-96.813 19.407l7.98 19.825z" fill="url(#illustrations--fish__paint2_linear_34_1331)"/><path d="M394.467 78.578c-16.45-2.415-43.916 3.022-70.843 10.959l6.837 16.984c24.657-10.464 48.948-18.401 64.006-18.401 22.841 0 46.339 13.813 63.945 30.491l.122-.016c-17.619-19.314-41.173-36.65-64.067-40.017z" fill="url(#illustrations--fish__paint3_linear_34_1331)"/><path d="M394.467 78.579c-10.983-1.613-26.878.276-44.244 4.072l5.649 14.032c15.139-5.213 28.815-8.563 38.595-8.563 19.023 0 38.503 9.582 54.655 22.419l1.404-.177c-16.42-15.81-36.481-28.904-56.059-31.783z" fill="url(#illustrations--fish__paint4_linear_34_1331)"/><path d="M459.431 202.9c-17.713 17.108-41.681 31.458-64.964 31.458-27.733 0-86.778-26.916-121.759-46.973-5.026-2.883-9.123-7.229-11.963-12.442a36.847 36.847 0 01-1.43-2.942c-1.933 4.785-2.988 9.945-2.988 15.134 0 6.349 1.584 12.193 4.418 16.99 2.84 4.797 6.937 8.542 11.963 10.682 34.982 14.921 94.026 33.165 121.759 29.092 23.283-3.424 47.251-21.293 64.964-40.999z" fill="url(#illustrations--fish__paint5_linear_34_1331)"/><path d="M272.263 214.606l9.028-22.428c35.403 19.292 87.603 42.18 113.176 42.18 23.283 0 47.251-14.35 64.964-31.458-17.713 19.706-41.681 37.575-64.964 40.999-27.733 4.072-86.778-14.171-121.759-29.092-.15-.064-.297-.134-.445-.201z" fill="url(#illustrations--fish__paint6_linear_34_1331)"/><path d="M305.634 204.668c31.978 15.47 68.676 29.69 88.833 29.69 23.283 0 47.251-14.35 64.964-31.458-17.713 19.706-41.681 37.575-64.964 40.999-21.858 3.21-63.165-7.444-96.813-19.407l7.98-19.824z" fill="url(#illustrations--fish__paint7_linear_34_1331)"/><path d="M394.467 243.899c-16.45 2.416-43.916-3.021-70.843-10.958l6.837-16.985c24.657 10.465 48.948 18.402 64.006 18.402 22.842 0 46.339-13.813 63.945-30.491l.122.015c-17.619 19.314-41.173 36.65-64.067 40.017z" fill="url(#illustrations--fish__paint8_linear_34_1331)"/><path d="M394.467 243.899c-10.983 1.613-26.878-.277-44.244-4.072l5.649-14.032c15.139 5.213 28.815 8.563 38.595 8.563 19.023 0 38.503-9.582 54.655-22.419l1.404.177c-16.42 15.81-36.481 28.904-56.059 31.783z" fill="url(#illustrations--fish__paint9_linear_34_1331)"/><path d="M487 161.239c0 23.485-47.552 77.059-92.532 77.059-27.734 0-86.778-26.919-121.759-46.981-10.051-5.764-16.383-17.379-16.383-30.08 0-12.701 6.334-24.317 16.385-30.08 34.982-20.058 94.024-46.976 121.758-46.976 44.979 0 92.531 53.574 92.531 77.058z" fill="url(#illustrations--fish__paint10_linear_34_1331)"/><path d="M487 161.239c0 23.485-47.552 77.059-92.532 77.059-27.734 0-86.778-26.919-121.759-46.981-10.051-5.764-16.383-17.379-16.383-30.08 0-12.701 6.334-24.317 16.385-30.08 34.982-20.058 94.024-46.976 121.758-46.976 44.979 0 92.531 53.574 92.531 77.058z" fill="url(#illustrations--fish__paint11_linear_34_1331)"/><path d="M451.527 153.905c5.742 0 10.398-4.656 10.398-10.398 0-5.743-4.656-10.399-10.398-10.399-5.743 0-10.399 4.656-10.399 10.399 0 5.742 4.656 10.398 10.399 10.398z" fill="url(#illustrations--fish__paint12_linear_34_1331)"/><path d="M432.534 95.373C420.835 89.03 410.008 84.45 393.94 84.18c-27.733 0-86.778 26.917-121.759 46.974-6.594 3.786-11.361 10.087-13.859 17.565-2.132 6.373 1.342 13.393 7.233 14.945l43.16 11.348c28.493 7.49 58.474.898 82.369-18.124 4.973-3.959 8.943-9.155 11.662-15.076 2.724-5.92 4.202-12.567 4.202-19.426 0-12.394 10.153-21.632 20.917-19.04.338.083.666.119.977.119 4.112-.001 7.805-5.863 3.692-8.093zm-72.568 54.815c-15.453 0-27.981-8.406-27.981-18.779s12.528-18.785 27.981-18.785c15.453 0 27.981 8.412 27.981 18.785s-12.528 18.779-27.981 18.779z" fill="url(#illustrations--fish__paint13_linear_34_1331)"/><path d="M405.207 161.765l-52.552 36.776 34.898 39.295c2.472.301 4.786.461 6.914.461 19.978 0 40.459-10.57 57.06-24.376l-46.32-52.156z" fill="url(#illustrations--fish__paint14_linear_34_1331)"/><path d="M410.702 178.412c0 8.014-3.346 15.561-9.032 20.377l-5.314 4.503c-7.744 6.561-17.614 9.068-27.11 6.887-9.539-2.191-17.352-9.907-20.472-20.292-2.245-7.472-3.384-15.101-3.384-22.623 0-8.65 1.507-17.161 4.566-25.13 3.457-9.009 12.491-11.772 20.374-6.234l29.714 20.879c6.63 4.658 10.658 12.835 10.658 21.633z" fill="url(#illustrations--fish__paint15_linear_34_1331)"/><path d="M410.5 176c0 4.999-3.335 9.707-9.003 12.712l-5.299 2.809c-7.72 4.093-17.559 5.657-27.025 4.296-9.51-1.367-17.299-6.18-20.409-12.659-2.238-4.661-3.373-9.421-3.373-14.113 0-5.397 1.502-10.706 4.552-15.678 3.446-5.62 12.452-7.343 20.311-3.889l29.622 13.025c6.608 2.907 10.624 8.008 10.624 13.497z" fill="url(#illustrations--fish__paint16_linear_34_1331)"/><path d="M410.278 173.933c0 2.417-3.324 4.694-8.972 6.147l-5.281 1.358c-7.694 1.979-17.5 2.735-26.934 2.078-9.477-.661-17.239-2.989-20.339-6.121-2.23-2.255-3.361-4.556-3.361-6.825 0-2.61 1.497-5.177 4.536-7.581 3.435-2.717 12.41-3.551 20.242-1.88l29.521 6.298c6.587 1.405 10.588 3.872 10.588 6.526z" fill="url(#illustrations--fish__paint17_linear_34_1331)"/><path d="M364.154 133.246c-5.537.841-10.342 4.331-12.859 10.056-3.648 8.291-5.584 17.104-5.865 26.078.193 6.834 1.309 13.734 3.344 20.507 3.12 10.384 10.933 18.1 20.472 20.291l.124.028c6.817 1.537 13.554-3.069 15.657-10.53 2.372-8.418 5.086-19.945 5.086-27.639 0-.438-.01-.9-.027-1.383-.49-13.496-7.012-25.801-17.189-32.952l-2.567-1.803c-2.021-1.419-4.117-2.289-6.176-2.653z" fill="url(#illustrations--fish__paint18_linear_34_1331)"/><path d="M349.956 142.134c-3.059 7.969-4.566 16.48-4.566 25.13 0 7.522 1.139 15.151 3.384 22.623 1.714 5.705 4.843 10.603 8.898 14.224 5.655 5.05 14.024 2.674 16.847-4.807 3.453-9.152 5.454-20.034 5.454-31.709 0-6.976-.715-13.669-2.027-19.878-1.039-4.915-3.809-9.143-7.616-11.818-7.883-5.537-16.917-2.774-20.374 6.235z" fill="url(#illustrations--fish__paint19_linear_34_1331)"/><path d="M349.942 153.367c-2.875 4.687-4.373 9.674-4.535 14.752.015 1.295.063 2.592.145 3.892.376 3.723 1.444 7.465 3.211 11.147 3.111 6.478 10.899 11.292 20.41 12.659a47.32 47.32 0 006.405.47c2.797-8.49 4.395-18.273 4.395-28.693 0-4.934-.365-9.72-1.039-14.3l-8.681-3.817c-7.859-3.454-16.864-1.73-20.311 3.89z" fill="url(#illustrations--fish__paint20_linear_34_1331)"/><path d="M349.926 162.989c-2.74 2.167-4.222 4.467-4.488 6.811.025.734.067 1.47.114 2.205.374 1.8 1.438 3.609 3.2 5.389 3.1 3.132 10.861 5.46 20.339 6.121 3.177.222 6.395.279 9.562.187a97.736 97.736 0 001.216-20.525l-9.701-2.07c-7.832-1.669-16.807-.835-20.242 1.882z" fill="url(#illustrations--fish__paint21_linear_34_1331)"/><path d="M202.783 111.715c-4.334 0-8.489 1.099-12.332 3.114-3.16 1.655-3.145 3.718-1.584 6.455.906 1.589.58 3.329 1.367 5.205 3.812 9.075 6.147 21.301 6.147 34.751 0 13.407-2.321 25.598-6.111 34.665-.797 1.907-.483 3.676-1.403 5.29-1.56 2.737-1.576 4.8 1.585 6.456 3.843 2.013 7.997 3.113 12.332 3.113 12.442 0 40.111-20.893 55.377-37.447 3.31-3.589 5.961-7.43 5.961-11.876 0-4.363-3.01-8.487-6.24-12.021-15.224-16.652-42.609-37.705-55.099-37.705z" fill="url(#illustrations--fish__paint22_linear_34_1331)"/><path d="M264.116 161.239c-.052-2.064-1.751-4.078-4.931-5.75-15.222-8.005-43.911-18.622-56.402-18.622-1.027 0-2.043.03-3.047.089-3.095.181-5.297 3.414-4.735 6.845.891 5.436 1.38 11.307 1.38 17.438 0 6.131-.488 12.002-1.38 17.438-.562 3.431 1.64 6.664 4.735 6.845 1.004.059 2.021.089 3.047.089 12.443 0 40.959-10.378 56.226-18.336 3.293-1.716 5.092-3.781 5.11-5.906 0-.044-.002-.087-.003-.13z" fill="url(#illustrations--fish__paint23_linear_34_1331)"/><path d="M258.353 163.904c3.702-.755 5.73-1.663 5.765-2.598l-.001-.057-.001-.01c-.058-.911-1.975-1.801-5.564-2.539-15.228-3.133-42.388-7.171-58.176-8.047-2.366-.131-4.291 2.081-4.15 4.744a109.853 109.853 0 010 11.687c-.141 2.661 1.781 4.873 4.146 4.744 15.719-.86 42.716-4.81 57.981-7.924z" fill="url(#illustrations--fish__paint24_linear_34_1331)"/><path d="M190.249 126.545c.068-.028.132-.058.202-.085a34.39 34.39 0 0112.332-2.275c12.49 0 41.18 16.142 56.402 28.312 3.18 2.542 4.879 5.604 4.93 8.742-.051-4.294-1.75-8.483-4.93-11.961-15.222-16.652-43.912-38.74-56.402-38.74-4.335 0-8.489 1.1-12.332 3.114-3.161 1.656-4.322 4.895-2.761 7.632.913 1.602 1.766 3.368 2.559 5.261z" fill="url(#illustrations--fish__paint25_linear_34_1331)"/><path d="M259.009 170.416c-15.267 12.099-43.783 27.876-56.226 27.876a34.39 34.39 0 01-12.332-2.275c-.07-.027-.134-.057-.202-.085-.793 1.893-1.646 3.659-2.56 5.261-1.56 2.737-.399 5.976 2.761 7.633 3.843 2.013 7.997 3.113 12.332 3.113 12.442 0 40.959-21.589 56.226-38.143 3.31-3.589 5.112-7.911 5.112-12.356v-.032c-.008 3.241-1.809 6.391-5.111 9.008z" fill="url(#illustrations--fish__paint26_linear_34_1331)"/><path d="M175.827 273.542l5.188 12.514c1.846 4.453 6.24 6.604 10.097 4.893l60.947-4.312c4.06 1.151 8.107-1.597 9.308-6.266 1.125-4.373 1.574-8.846 2.698-13.219 3.081-11.977-2.91-23.407-13.453-25.532-4.592-.925-9.228-2.743-13.83-3.138-17.139-1.473-34.257.723-50.706 6.544-10.139 3.587-14.986 17.092-10.249 28.516z" fill="url(#illustrations--fish__paint27_linear_34_1331)"/><path d="M197.121 272.468l3.84 12.314c1.366 4.383 4.447 6.57 7.079 4.978l42.047-2.974c2.83 1.204 5.572-1.394 6.308-5.926l2.068-12.732c1.888-11.623-3.001-24.138-10.332-26.423-15.089-4.705-30.226-3.634-44.502 3.148-6.936 3.296-10.014 16.373-6.508 27.615z" fill="url(#illustrations--fish__paint28_linear_34_1331)"/><path d="M220.73 272.609l2.638 11.165c.938 3.973 2.903 6.003 4.514 4.622l26.171-1.852c1.789 1.141 3.449-1.146 3.819-5.212l1.039-11.424c.949-10.43-2.346-21.795-6.965-23.998-9.505-4.533-18.927-3.867-27.699 1.959-4.262 2.832-5.925 14.549-3.517 24.74z" fill="url(#illustrations--fish__paint29_linear_34_1331)"/><path d="M250.58 240.463a123.399 123.399 0 00-14.002-1.997c10.276 3.537 16.498 16.502 13.338 28.787l-3.702 14.391c-.632 2.458-1.988 4.422-3.714 5.669l9.559-.676c4.06 1.151 8.107-1.596 9.308-6.266l3.375-13.12c3.08-11.976-3.619-24.664-14.162-26.788z" fill="url(#illustrations--fish__paint30_linear_34_1331)"/><path d="M129.467 395.826l6.223-8.801c2.215-3.132 6.002-4.03 8.695-2.025l46.542 14.045c3.353-.181 6.011 2.662 6.124 6.496.105 3.591-2.142 7.183-2.037 10.774.288 9.836-7.138 18.506-15.693 18.304-3.762-.089-5.133-.389-8.808-.899-13.521-1.875-26.384-6.58-38.098-13.965-7.238-4.564-8.629-15.895-2.948-23.929z" fill="url(#illustrations--fish__paint31_linear_34_1331)"/><path d="M145.805 400.397l5.141-8.883c1.83-3.161 4.605-4.318 6.369-2.621l32.109 9.69c2.408-.438 4.08 2.06 3.856 5.706l-.63 10.244c-.575 9.352-6.566 18.205-12.656 18.692-12.536 1.003-24.096-2.486-33.985-10.255-4.805-3.775-4.898-14.464-.204-22.573z" fill="url(#illustrations--fish__paint32_linear_34_1331)"/><path d="M164.152 404.432l4.006-8.202c1.426-2.919 3.307-4.15 4.315-2.795l19.985 6.031c1.589-.571 2.476 1.495 2.049 4.715l-1.199 9.049c-1.094 8.26-5.647 16.502-9.617 17.401-8.173 1.849-15.367-.322-21.153-6.383-2.81-2.945-2.044-12.329 1.614-19.816z" fill="url(#illustrations--fish__paint33_linear_34_1331)"/><path d="M181.675 434.619a97.847 97.847 0 01-11.217-.909c8.595-.941 15.7-9.909 15.404-19.998l-.347-11.819c-.059-2.018-.766-3.78-1.887-5.051l7.3 2.203c3.353-.181 6.011 2.662 6.124 6.496l.316 10.774c.288 9.836-7.139 18.507-15.693 18.304z" fill="url(#illustrations--fish__paint34_linear_34_1331)"/><path d="M110.298 306.621l5.062 8.09c1.801 2.878 4.468 3.779 6.118 2.035l30.438-11.551c2.303.244 2.676-1.669 2.396-5.125l-.785-9.712c-.717-8.867-6.588-16.867-12.403-16.89-2.435-.01-3.651-.434-5.997-.098-9.185 1.316-17.643 5.271-25.042 11.735-4.511 3.943-4.407 14.131.213 21.516z" fill="url(#illustrations--fish__paint35_linear_34_1331)"/><path d="M142.301 272.879a48.852 48.852 0 00-7.566.55c5.95 1.055 11.629 9.317 12.364 18.411l.862 10.654c.147 1.819-.171 3.392-.817 4.512l4.773-1.812c2.304.244 3.852-2.257 3.573-5.714l-.785-9.712c-.717-8.865-6.588-16.866-12.404-16.889z" fill="url(#illustrations--fish__paint36_linear_34_1331)"/><path d="M233.25 267.875c-10.26 0-22.699 2.009-35.995 5.325-9.659 2.408-18.737 15.786-28.793 19.304-12.115 4.238-25.182-1.193-36.252 3.795a423.43 423.43 0 00-4.756 2.178c-14.443 6.729-31.42 3.388-42.38-8.177-10.284-10.853-17.725-11.54-25.586-11.54-17.326.001-31.37 26.018-31.37 65.369 0 39.35 14.044 65.367 31.37 65.367 7.861 0 15.303-.687 25.586-11.539 10.96-11.565 27.937-14.906 42.38-8.178 1.548.722 3.12 1.442 4.712 2.159 9.919 4.47 20.614 4.123 31.448 8.032 11.347 4.094 22.847 12.4 33.765 15.117 13.249 3.298 25.643 5.295 35.872 5.295 50.119 0 90.749-36.903 90.749-76.253s-40.63-76.254-90.75-76.254z" fill="url(#illustrations--fish__paint37_linear_34_1331)"/><path d="M216.96 344.129l-52.372 32.549 40.11 40.109c10.478 2.266 20.234 3.595 28.553 3.595 17.562 0 33.955-4.535 47.847-12.115l-64.138-64.138z" fill="url(#illustrations--fish__paint38_linear_34_1331)"/><path d="M324 344.129c0 15.976-6.699 31.543-18.011 44.406-11.683 13.295-28.304 23.7-47.548 28.661-7.538-16.889-12.396-43.337-12.396-73.067 0-29.731 4.857-56.179 12.396-73.068 19.244 4.961 35.865 15.367 47.548 28.661C317.301 312.586 324 328.153 324 344.129z" fill="url(#illustrations--fish__paint39_linear_34_1331)"/><path d="M281.091 408.259l-33.209-33.208c2.067 16.832 5.771 31.418 10.559 42.146a98.85 98.85 0 0022.65-8.938z" fill="url(#illustrations--fish__paint40_linear_34_1331)"/><path d="M88.932 344.129c0 17.253 1.635 33.407 4.48 47.221a37.14 37.14 0 00-8.334 6.61c-10.286 10.852-21.843 17.417-29.708 17.417-17.328 0-29.886-31.899-29.886-71.248 0-39.349 12.558-71.249 29.886-71.249 7.865 0 19.422 6.566 29.701 17.417a37.35 37.35 0 008.34 6.61c-2.844 13.815-4.479 29.968-4.479 47.222z" fill="url(#illustrations--fish__paint41_linear_34_1331)"/><path d="M88.93 344.129c0 10.906.652 21.376 1.858 31.094a48.677 48.677 0 00-3.64 1.6c-9.536 4.641-19.9 7.988-28.813 9.559-3.747.67-7.235 1.017-10.294 1.017h-.197c-10.016-.05-18.567-7.284-20.503-17.111C25.727 362.091 24 351.582 24 344.129c0-7.453 1.727-17.963 3.341-26.16 1.935-9.827 10.486-17.061 20.502-17.11l.198-.001c3.059 0 6.547.347 10.294 1.018 8.906 1.57 19.27 4.917 28.806 9.559a48.176 48.176 0 003.647 1.6c-1.206 9.717-1.859 20.188-1.859 31.094z" fill="url(#illustrations--fish__paint42_linear_34_1331)"/><path d="M88.93 344.129c0 4.594.117 9.106.346 13.523-9.617 1.694-19.888 2.918-28.788 3.518-3.982.27-7.688.412-10.935.412h-.212c-10.647-.024-19.735-2.942-21.788-6.906a53.05 53.05 0 01-1.959-4.183c-.918-2.253-1.594-4.535-1.594-6.364 0-1.83.677-4.112 1.594-6.365a53.026 53.026 0 011.959-4.182c2.053-3.965 11.141-6.883 21.788-6.906h.212c3.247 0 6.953.141 10.935.412 8.9.6 19.17 1.823 28.788 3.517a260.91 260.91 0 00-.347 13.524z" fill="url(#illustrations--fish__paint43_linear_34_1331)"/><path d="M71.193 278.666c-5.852-3.723-11.418-5.787-15.822-5.787-17.326 0-31.371 31.899-31.371 71.25 0 39.35 14.045 71.25 31.37 71.25 4.405 0 9.971-2.065 15.823-5.788-11.158-10.918-18.97-36.116-18.97-65.462 0-29.347 7.812-54.545 18.97-65.463z" fill="url(#illustrations--fish__paint44_linear_34_1331)"/><path d="M185.886 344.129c0-13.414.988-26.166 2.77-37.67 1.998-12.953 4.999-24.317 8.72-33.289a301.789 301.789 0 00-15.745 4.39c-16.778 5.139-34.061 11.816-49.48 18.768-2.919 13.948-4.597 30.31-4.597 47.801 0 17.49 1.679 33.853 4.597 47.8 15.419 6.952 32.702 13.629 49.48 18.768a300.807 300.807 0 0015.745 4.39c-3.721-8.972-6.722-20.335-8.72-33.288-1.782-11.505-2.77-24.257-2.77-37.67z" fill="url(#illustrations--fish__paint45_linear_34_1331)"/><path d="M194.199 406.289c-2.27-7.212-4.151-15.464-5.543-24.49-.922-5.951-1.627-12.24-2.097-18.777l-21.164 14.463 28.804 28.804z" fill="url(#illustrations--fish__paint46_linear_34_1331)"/><path d="M280.471 341.719c6.466 0 11.708-5.242 11.708-11.708s-5.242-11.708-11.708-11.708c-6.467 0-11.709 5.242-11.709 11.708s5.242 11.708 11.709 11.708z" fill="url(#illustrations--fish__paint47_linear_34_1331)"/><path d="M222.436 358.863a22.567 22.567 0 01-9.001 18.035l-5.296 3.985a33.715 33.715 0 01-11.537 5.624c-4.999 1.341-10.295.941-15.48-.117-9.506-1.94-14.939-8.18-18.049-17.371-2.237-6.614-3.371-13.366-3.371-20.024 0-7.656 1.501-15.189 4.55-22.242 3.445-7.973 10.094-9.83 17.951-4.929l.972.018 28.64 17.873a22.572 22.572 0 0110.621 19.148z" fill="url(#illustrations--fish__paint48_linear_34_1331)"/><path d="M222.235 356.727c0 4.425-3.323 8.592-8.973 11.251l-5.28 2.486c-7.693 3.622-17.499 5.007-26.933 3.802-9.477-1.21-17.239-5.47-20.338-11.204-2.231-4.126-3.362-8.338-3.362-12.491 0-4.776 1.497-9.476 4.536-13.876 3.435-4.974 12.41-6.5 20.241-3.442l29.521 11.529c6.586 2.572 10.588 7.087 10.588 11.945z" fill="url(#illustrations--fish__paint49_linear_34_1331)"/><path d="M222.015 354.898c0 2.14-3.313 4.155-8.943 5.441l-5.262 1.202c-7.667 1.752-17.44 2.421-26.841 1.839-9.446-.585-17.181-2.645-20.27-5.418-2.223-1.995-3.35-4.031-3.35-6.04 0-2.31 1.492-4.582 4.52-6.71 3.423-2.405 12.367-3.143 20.173-1.664l29.42 5.574c6.564 1.244 10.553 3.427 10.553 5.776z" fill="url(#illustrations--fish__paint50_linear_34_1331)"/><path d="M178.535 369.019c-2.237-6.614-3.371-13.366-3.371-20.024 0-7.656 1.501-15.189 4.55-22.242.855-1.981 2.055-3.62 3.494-4.89l-1.005-.628c-7.857-4.901-16.859-2.455-20.304 5.518-3.048 7.053-4.55 14.586-4.55 22.242 0 6.657 1.134 13.41 3.372 20.023 3.109 9.191 10.895 16.02 20.401 17.96a33.725 33.725 0 0015.682-.529c-8.527-2.464-15.395-8.937-18.269-17.43z" fill="url(#illustrations--fish__paint51_linear_34_1331)"/><path d="M58.338 386.381c-3.842-11.822-6.115-26.432-6.115-42.252 0-15.821 2.273-30.431 6.115-42.253h-.003c-3.747-.671-7.235-1.018-10.294-1.018l-.197.001c-10.016.049-18.567 7.283-20.503 17.11-1.614 8.197-3.341 18.707-3.341 26.16 0 7.453 1.727 17.963 3.341 26.159 1.935 9.828 10.486 17.062 20.502 17.111h.198c3.059 0 6.547-.347 10.294-1.017l.003-.001z" fill="url(#illustrations--fish__paint52_linear_34_1331)"/><path d="M27.553 354.676c2.053 3.964 11.141 6.882 21.788 6.906h.212c1.15 0 2.359-.019 3.615-.054a158.58 158.58 0 01-.945-17.399c0-6.004.329-11.831.945-17.4a134.316 134.316 0 00-3.615-.053h-.212c-10.647.023-19.735 2.941-21.788 6.906a53.026 53.026 0 00-1.959 4.182c-.918 2.253-1.594 4.535-1.594 6.365 0 1.829.677 4.111 1.594 6.364a53.05 53.05 0 001.959 4.183z" fill="url(#illustrations--fish__paint53_linear_34_1331)"/><g opacity=".5"><path d="M297.997 267.586c8.541 0 15.464-6.924 15.464-15.464 0-8.541-6.923-15.464-15.464-15.464s-15.464 6.923-15.464 15.464c0 8.54 6.923 15.464 15.464 15.464z" fill="url(#illustrations--fish__paint54_linear_34_1331)"/><path d="M314.413 288.829a8.965 8.965 0 008.965-8.965 8.965 8.965 0 10-17.929 0 8.964 8.964 0 008.964 8.965z" fill="url(#illustrations--fish__paint55_linear_34_1331)"/><path d="M315.035 236.235a8.965 8.965 0 100-17.93 8.965 8.965 0 000 17.93z" fill="url(#illustrations--fish__paint56_linear_34_1331)"/></g><defs><linearGradient id="illustrations--fish__paint0_linear_34_1331" x1="324.996" y1="79.642" x2="339.373" y2="102.806" gradientUnits="userSpaceOnUse"><stop stop-color="#18CEFB"/><stop offset=".823" stop-color="#0590FC"/><stop offset="1" stop-color="#0182FC"/></linearGradient><linearGradient id="illustrations--fish__paint1_linear_34_1331" x1="365.847" y1="105.138" x2="365.847" y2="142.391" gradientUnits="userSpaceOnUse"><stop stop-color="#0182FC" stop-opacity="0"/><stop offset="1" stop-color="#0268B4"/></linearGradient><linearGradient id="illustrations--fish__paint2_linear_34_1331" x1="377.708" y1="92.314" x2="379.277" y2="123.278" gradientUnits="userSpaceOnUse"><stop stop-color="#0182FC" stop-opacity="0"/><stop offset="1" stop-color="#0268B4"/></linearGradient><linearGradient id="illustrations--fish__paint3_linear_34_1331" x1="391.54" y1="85.202" x2="390.743" y2="117.881" gradientUnits="userSpaceOnUse"><stop stop-color="#0182FC" stop-opacity="0"/><stop offset="1" stop-color="#0268B4"/></linearGradient><linearGradient id="illustrations--fish__paint4_linear_34_1331" x1="401.236" y1="79.275" x2="400.032" y2="103.36" gradientUnits="userSpaceOnUse"><stop stop-color="#0182FC" stop-opacity="0"/><stop offset="1" stop-color="#0268B4"/></linearGradient><linearGradient id="illustrations--fish__paint5_linear_34_1331" x1="324.996" y1="242.836" x2="339.373" y2="219.672" gradientUnits="userSpaceOnUse"><stop stop-color="#18CEFB"/><stop offset=".823" stop-color="#0590FC"/><stop offset="1" stop-color="#0182FC"/></linearGradient><linearGradient id="illustrations--fish__paint6_linear_34_1331" x1="365.847" y1="217.339" x2="365.847" y2="180.087" gradientUnits="userSpaceOnUse"><stop stop-color="#0182FC" stop-opacity="0"/><stop offset="1" stop-color="#0268B4"/></linearGradient><linearGradient id="illustrations--fish__paint7_linear_34_1331" x1="377.709" y1="230.163" x2="379.277" y2="199.199" gradientUnits="userSpaceOnUse"><stop stop-color="#0182FC" stop-opacity="0"/><stop offset="1" stop-color="#0268B4"/></linearGradient><linearGradient id="illustrations--fish__paint8_linear_34_1331" x1="391.54" y1="237.276" x2="390.743" y2="204.596" gradientUnits="userSpaceOnUse"><stop stop-color="#0182FC" stop-opacity="0"/><stop offset="1" stop-color="#0268B4"/></linearGradient><linearGradient id="illustrations--fish__paint9_linear_34_1331" x1="401.236" y1="243.203" x2="400.032" y2="219.118" gradientUnits="userSpaceOnUse"><stop stop-color="#0182FC" stop-opacity="0"/><stop offset="1" stop-color="#0268B4"/></linearGradient><linearGradient id="illustrations--fish__paint10_linear_34_1331" x1="321.865" y1="80.053" x2="385.445" y2="184.904" gradientUnits="userSpaceOnUse"><stop stop-color="#18CEFB"/><stop offset=".823" stop-color="#0590FC"/><stop offset="1" stop-color="#0182FC"/></linearGradient><linearGradient id="illustrations--fish__paint11_linear_34_1331" x1="321.865" y1="80.053" x2="385.445" y2="184.904" gradientUnits="userSpaceOnUse"><stop stop-color="#18CEFB"/><stop offset=".823" stop-color="#0590FC"/><stop offset="1" stop-color="#0182FC"/></linearGradient><linearGradient id="illustrations--fish__paint12_linear_34_1331" x1="444.015" y1="135.994" x2="452.402" y2="144.382" gradientUnits="userSpaceOnUse"><stop stop-color="#537983"/><stop offset="1" stop-color="#3E5959"/></linearGradient><linearGradient id="illustrations--fish__paint13_linear_34_1331" x1="323.303" y1="89.243" x2="355.863" y2="142.939" gradientUnits="userSpaceOnUse"><stop stop-color="#537983"/><stop offset="1" stop-color="#3E5959"/></linearGradient><linearGradient id="illustrations--fish__paint14_linear_34_1331" x1="427.226" y1="238.814" x2="388.437" y2="188.532" gradientUnits="userSpaceOnUse"><stop stop-color="#0182FC" stop-opacity="0"/><stop offset="1" stop-color="#0268B4"/></linearGradient><linearGradient id="illustrations--fish__paint15_linear_34_1331" x1="372.018" y1="154.061" x2="382.674" y2="193.011" gradientUnits="userSpaceOnUse"><stop stop-color="#18CEFB"/><stop offset=".823" stop-color="#0590FC"/><stop offset="1" stop-color="#0182FC"/></linearGradient><linearGradient id="illustrations--fish__paint16_linear_34_1331" x1="378.52" y1="175.81" x2="392.281" y2="210.573" gradientUnits="userSpaceOnUse"><stop stop-color="#0182FC" stop-opacity="0"/><stop offset="1" stop-color="#0268B4"/></linearGradient><linearGradient id="illustrations--fish__paint17_linear_34_1331" x1="374.36" y1="170.496" x2="408.088" y2="199.607" gradientUnits="userSpaceOnUse"><stop stop-color="#0182FC" stop-opacity="0"/><stop offset="1" stop-color="#0268B4"/></linearGradient><linearGradient id="illustrations--fish__paint18_linear_34_1331" x1="362.573" y1="161.371" x2="381.984" y2="204.507" gradientUnits="userSpaceOnUse"><stop stop-color="#537983"/><stop offset="1" stop-color="#3E5959"/></linearGradient><linearGradient id="illustrations--fish__paint19_linear_34_1331" x1="359.19" y1="159.31" x2="377.271" y2="199.491" gradientUnits="userSpaceOnUse"><stop stop-color="#FFE177"/><stop offset="1" stop-color="#FE9738"/></linearGradient><linearGradient id="illustrations--fish__paint20_linear_34_1331" x1="364.742" y1="168.875" x2="346.704" y2="215.995" gradientUnits="userSpaceOnUse"><stop stop-color="#FE9738" stop-opacity="0"/><stop offset="1" stop-color="#FE7701"/></linearGradient><linearGradient id="illustrations--fish__paint21_linear_34_1331" x1="368.075" y1="167.62" x2="345.963" y2="198.025" gradientUnits="userSpaceOnUse"><stop stop-color="#FE9738" stop-opacity="0"/><stop offset="1" stop-color="#FE7701"/></linearGradient><linearGradient id="illustrations--fish__paint22_linear_34_1331" x1="218.926" y1="148.481" x2="232.909" y2="215.931" gradientUnits="userSpaceOnUse"><stop stop-color="#FFE177"/><stop offset="1" stop-color="#FE9738"/></linearGradient><linearGradient id="illustrations--fish__paint23_linear_34_1331" x1="226.322" y1="154.438" x2="185.203" y2="190.329" gradientUnits="userSpaceOnUse"><stop stop-color="#FE9738" stop-opacity="0"/><stop offset="1" stop-color="#FE7701"/></linearGradient><linearGradient id="illustrations--fish__paint24_linear_34_1331" x1="229.917" y1="159.608" x2="226.241" y2="182.764" gradientUnits="userSpaceOnUse"><stop stop-color="#FE9738" stop-opacity="0"/><stop offset="1" stop-color="#FE7701"/></linearGradient><linearGradient id="illustrations--fish__paint25_linear_34_1331" x1="223.933" y1="131.645" x2="232.888" y2="174.836" gradientUnits="userSpaceOnUse"><stop stop-color="#537983"/><stop offset="1" stop-color="#3E5959"/></linearGradient><linearGradient id="illustrations--fish__paint26_linear_34_1331" x1="225.977" y1="184.823" x2="231.31" y2="210.549" gradientUnits="userSpaceOnUse"><stop stop-color="#537983"/><stop offset="1" stop-color="#3E5959"/></linearGradient><linearGradient id="illustrations--fish__paint27_linear_34_1331" x1="216.055" y1="242.339" x2="223.114" y2="284.692" gradientUnits="userSpaceOnUse"><stop stop-color="#FE860A"/><stop offset=".691" stop-color="#FC482B"/><stop offset="1" stop-color="#FB2B3A"/></linearGradient><linearGradient id="illustrations--fish__paint28_linear_34_1331" x1="224.413" y1="242.781" x2="232.899" y2="283.686" gradientUnits="userSpaceOnUse"><stop stop-color="#F82814" stop-opacity="0"/><stop offset="1" stop-color="#C0272D"/></linearGradient><linearGradient id="illustrations--fish__paint29_linear_34_1331" x1="239.7" y1="251.738" x2="238.539" y2="273.042" gradientUnits="userSpaceOnUse"><stop stop-color="#F82814" stop-opacity="0"/><stop offset="1" stop-color="#C0272D"/></linearGradient><linearGradient id="illustrations--fish__paint30_linear_34_1331" x1="248.516" y1="240.407" x2="255.093" y2="279.87" gradientUnits="userSpaceOnUse"><stop stop-color="#537983"/><stop offset="1" stop-color="#3E5959"/></linearGradient><linearGradient id="illustrations--fish__paint31_linear_34_1331" x1="161.479" y1="408.097" x2="160.89" y2="444.595" gradientUnits="userSpaceOnUse"><stop stop-color="#FE860A"/><stop offset=".691" stop-color="#FC482B"/><stop offset="1" stop-color="#FB2B3A"/></linearGradient><linearGradient id="illustrations--fish__paint32_linear_34_1331" x1="161.871" y1="428.298" x2="175.621" y2="398.049" gradientUnits="userSpaceOnUse"><stop stop-color="#F82814" stop-opacity="0"/><stop offset="1" stop-color="#C0272D"/></linearGradient><linearGradient id="illustrations--fish__paint33_linear_34_1331" x1="175.063" y1="424.052" x2="177.9" y2="407.317" gradientUnits="userSpaceOnUse"><stop stop-color="#F82814" stop-opacity="0"/><stop offset="1" stop-color="#C0272D"/></linearGradient><linearGradient id="illustrations--fish__paint34_linear_34_1331" x1="181.851" y1="409.728" x2="186.36" y2="432.472" gradientUnits="userSpaceOnUse"><stop stop-color="#537983"/><stop offset="1" stop-color="#3E5959"/></linearGradient><linearGradient id="illustrations--fish__paint35_linear_34_1331" x1="127.254" y1="284.088" x2="133.92" y2="304.872" gradientUnits="userSpaceOnUse"><stop stop-color="#FE860A"/><stop offset=".691" stop-color="#FC482B"/><stop offset="1" stop-color="#FB2B3A"/></linearGradient><linearGradient id="illustrations--fish__paint36_linear_34_1331" x1="140.481" y1="273.857" x2="152.494" y2="299.966" gradientUnits="userSpaceOnUse"><stop stop-color="#537983"/><stop offset="1" stop-color="#3E5959"/></linearGradient><linearGradient id="illustrations--fish__paint37_linear_34_1331" x1="171.875" y1="328.431" x2="197.099" y2="450.099" gradientUnits="userSpaceOnUse"><stop stop-color="#EDF5FF"/><stop offset="1" stop-color="#C7E9FF"/></linearGradient><linearGradient id="illustrations--fish__paint38_linear_34_1331" x1="240.694" y1="416.219" x2="196.772" y2="357.788" gradientUnits="userSpaceOnUse"><stop stop-color="#fff" stop-opacity="0"/><stop offset=".343" stop-color="#CDE0F3" stop-opacity=".343"/><stop offset=".787" stop-color="#92BAE4" stop-opacity=".787"/><stop offset="1" stop-color="#7BACDF"/></linearGradient><linearGradient id="illustrations--fish__paint39_linear_34_1331" x1="285.022" y1="333.73" x2="285.022" y2="433.279" gradientUnits="userSpaceOnUse"><stop stop-color="#FE860A"/><stop offset=".691" stop-color="#FC482B"/><stop offset="1" stop-color="#FB2B3A"/></linearGradient><linearGradient id="illustrations--fish__paint40_linear_34_1331" x1="279.614" y1="414.732" x2="222.751" y2="374.732" gradientUnits="userSpaceOnUse"><stop stop-color="#F82814" stop-opacity="0"/><stop offset="1" stop-color="#C0272D"/></linearGradient><linearGradient id="illustrations--fish__paint41_linear_34_1331" x1="59.447" y1="337.444" x2="59.447" y2="405.133" gradientUnits="userSpaceOnUse"><stop stop-color="#FE860A"/><stop offset=".691" stop-color="#FC482B"/><stop offset="1" stop-color="#FB2B3A"/></linearGradient><linearGradient id="illustrations--fish__paint42_linear_34_1331" x1="78.118" y1="344.129" x2="18.138" y2="344.129" gradientUnits="userSpaceOnUse"><stop stop-color="#F82814" stop-opacity="0"/><stop offset="1" stop-color="#C0272D"/></linearGradient><linearGradient id="illustrations--fish__paint43_linear_34_1331" x1="83.118" y1="344.129" x2="1.023" y2="344.129" gradientUnits="userSpaceOnUse"><stop stop-color="#F82814" stop-opacity="0"/><stop offset="1" stop-color="#C0272D"/></linearGradient><linearGradient id="illustrations--fish__paint44_linear_34_1331" x1="35.825" y1="304.525" x2="69.245" y2="370.252" gradientUnits="userSpaceOnUse"><stop stop-color="#537983"/><stop offset="1" stop-color="#3E5959"/></linearGradient><linearGradient id="illustrations--fish__paint45_linear_34_1331" x1="162.464" y1="335.959" x2="162.464" y2="425.393" gradientUnits="userSpaceOnUse"><stop stop-color="#FE860A"/><stop offset=".691" stop-color="#FC482B"/><stop offset="1" stop-color="#FB2B3A"/></linearGradient><linearGradient id="illustrations--fish__paint46_linear_34_1331" x1="203.055" y1="419.395" x2="181.879" y2="380.963" gradientUnits="userSpaceOnUse"><stop stop-color="#F82814" stop-opacity="0"/><stop offset="1" stop-color="#C0272D"/></linearGradient><linearGradient id="illustrations--fish__paint47_linear_34_1331" x1="273.501" y1="323.042" x2="283.503" y2="333.043" gradientUnits="userSpaceOnUse"><stop stop-color="#537983"/><stop offset="1" stop-color="#3E5959"/></linearGradient><linearGradient id="illustrations--fish__paint48_linear_34_1331" x1="183.357" y1="340.869" x2="201.893" y2="382.059" gradientUnits="userSpaceOnUse"><stop stop-color="#FE860A"/><stop offset=".691" stop-color="#FC482B"/><stop offset="1" stop-color="#FB2B3A"/></linearGradient><linearGradient id="illustrations--fish__paint49_linear_34_1331" x1="190.372" y1="356.555" x2="202.941" y2="388.307" gradientUnits="userSpaceOnUse"><stop stop-color="#F82814" stop-opacity="0"/><stop offset="1" stop-color="#C0272D"/></linearGradient><linearGradient id="illustrations--fish__paint50_linear_34_1331" x1="186.461" y1="351.624" x2="219.59" y2="380.218" gradientUnits="userSpaceOnUse"><stop stop-color="#F82814" stop-opacity="0"/><stop offset="1" stop-color="#C0272D"/></linearGradient><linearGradient id="illustrations--fish__paint51_linear_34_1331" x1="171.841" y1="345.32" x2="190.479" y2="386.738" gradientUnits="userSpaceOnUse"><stop stop-color="#537983"/><stop offset="1" stop-color="#3E5959"/></linearGradient><linearGradient id="illustrations--fish__paint52_linear_34_1331" x1="61.353" y1="344.129" x2="28.112" y2="344.129" gradientUnits="userSpaceOnUse"><stop stop-color="#3E5959" stop-opacity="0"/><stop offset="1" stop-color="#3E5959"/></linearGradient><linearGradient id="illustrations--fish__paint53_linear_34_1331" x1="69.588" y1="344.129" x2="46.353" y2="344.129" gradientUnits="userSpaceOnUse"><stop stop-color="#3E5959" stop-opacity="0"/><stop offset="1" stop-color="#3E5959"/></linearGradient><linearGradient id="illustrations--fish__paint54_linear_34_1331" x1="291.644" y1="245.769" x2="313.307" y2="267.432" gradientUnits="userSpaceOnUse"><stop stop-color="#EDF5FF"/><stop offset="1" stop-color="#C7E9FF"/></linearGradient><linearGradient id="illustrations--fish__paint55_linear_34_1331" x1="309.373" y1="274.824" x2="319.002" y2="284.452" gradientUnits="userSpaceOnUse"><stop stop-color="#EDF5FF"/><stop offset="1" stop-color="#C7E9FF"/></linearGradient><linearGradient id="illustrations--fish__paint56_linear_34_1331" x1="309.995" y1="222.23" x2="319.623" y2="231.859" gradientUnits="userSpaceOnUse"><stop stop-color="#EDF5FF"/><stop offset="1" stop-color="#C7E9FF"/></linearGradient></defs></svg>