<svg width="512" height="512" viewBox="0 0 512 512" fill="none" xmlns="http://www.w3.org/2000/svg">
<path d="M459.431 119.578C441.718 102.47 417.75 88.1197 394.467 88.1197C366.734 88.1197 307.689 115.036 272.708 135.093C267.682 137.976 263.585 142.322 260.745 147.535C260.228 148.486 259.753 149.467 259.315 150.477C257.382 145.692 256.327 140.532 256.327 135.342C256.327 128.994 257.911 123.15 260.745 118.353C263.585 113.556 267.682 109.811 272.708 107.671C307.69 92.7503 366.734 74.5062 394.467 78.5785C417.75 82.0026 441.718 99.872 459.431 119.578V119.578Z" fill="url(#paint0_linear_34_1331)"/>
<path d="M272.263 107.872L281.291 130.299C316.694 111.008 368.894 88.1195 394.467 88.1195C417.75 88.1195 441.718 102.47 459.431 119.578C441.718 99.8719 417.75 82.0025 394.467 78.5784C366.734 74.5066 307.689 92.7501 272.708 107.671C272.558 107.735 272.411 107.805 272.263 107.872Z" fill="url(#paint1_linear_34_1331)"/>
<path d="M305.634 117.81C337.612 102.34 374.31 88.1196 394.467 88.1196C417.75 88.1196 441.718 102.47 459.431 119.578C441.718 99.8719 417.75 82.0025 394.467 78.5784C372.609 75.369 331.302 86.0225 297.654 97.9854L305.634 117.81Z" fill="url(#paint2_linear_34_1331)"/>
<path d="M394.467 78.5784C378.017 76.1631 350.551 81.5996 323.624 89.5366L330.461 106.521C355.118 96.0566 379.409 88.1196 394.467 88.1196C417.308 88.1196 440.806 101.933 458.412 118.611L458.534 118.595C440.915 99.2813 417.361 81.9455 394.467 78.5784V78.5784Z" fill="url(#paint3_linear_34_1331)"/>
<path d="M394.467 78.5788C383.484 76.9659 367.589 78.8553 350.223 82.6506L355.872 96.6835C371.011 91.4699 384.687 88.12 394.467 88.12C413.49 88.12 432.97 97.7017 449.122 110.539L450.526 110.362C434.106 94.5517 414.045 81.4582 394.467 78.5788Z" fill="url(#paint4_linear_34_1331)"/>
<path d="M459.431 202.9C441.718 220.008 417.75 234.358 394.467 234.358C366.734 234.358 307.689 207.442 272.708 187.385C267.682 184.502 263.585 180.156 260.745 174.943C260.228 173.992 259.753 173.011 259.315 172.001C257.382 176.786 256.327 181.946 256.327 187.135C256.327 193.484 257.911 199.328 260.745 204.125C263.585 208.922 267.682 212.667 272.708 214.807C307.69 229.728 366.734 247.972 394.467 243.899C417.75 240.475 441.718 222.606 459.431 202.9V202.9Z" fill="url(#paint5_linear_34_1331)"/>
<path d="M272.263 214.606L281.291 192.178C316.694 211.47 368.894 234.358 394.467 234.358C417.75 234.358 441.718 220.008 459.431 202.9C441.718 222.606 417.75 240.475 394.467 243.899C366.734 247.971 307.689 229.728 272.708 214.807C272.558 214.743 272.411 214.673 272.263 214.606V214.606Z" fill="url(#paint6_linear_34_1331)"/>
<path d="M305.634 204.668C337.612 220.138 374.31 234.358 394.467 234.358C417.75 234.358 441.718 220.008 459.431 202.9C441.718 222.606 417.75 240.475 394.467 243.899C372.609 247.109 331.302 236.455 297.654 224.492L305.634 204.668Z" fill="url(#paint7_linear_34_1331)"/>
<path d="M394.467 243.899C378.017 246.315 350.551 240.878 323.624 232.941L330.461 215.956C355.118 226.421 379.409 234.358 394.467 234.358C417.309 234.358 440.806 220.545 458.412 203.867L458.534 203.882C440.915 223.196 417.361 240.532 394.467 243.899Z" fill="url(#paint8_linear_34_1331)"/>
<path d="M394.467 243.899C383.484 245.512 367.589 243.622 350.223 239.827L355.872 225.795C371.011 231.008 384.687 234.358 394.467 234.358C413.49 234.358 432.97 224.776 449.122 211.939L450.526 212.116C434.106 227.926 414.045 241.02 394.467 243.899V243.899Z" fill="url(#paint9_linear_34_1331)"/>
<path d="M487 161.239C487 184.724 439.448 238.298 394.468 238.298C366.734 238.298 307.69 211.379 272.709 191.317C262.658 185.553 256.326 173.938 256.326 161.237C256.326 148.536 262.66 136.92 272.711 131.157C307.693 111.099 366.735 84.1812 394.469 84.1812C439.448 84.1806 487 137.755 487 161.239V161.239Z" fill="url(#paint10_linear_34_1331)"/>
<path d="M487 161.239C487 184.724 439.448 238.298 394.468 238.298C366.734 238.298 307.69 211.379 272.709 191.317C262.658 185.553 256.326 173.938 256.326 161.237C256.326 148.536 262.66 136.92 272.711 131.157C307.693 111.099 366.735 84.1812 394.469 84.1812C439.448 84.1806 487 137.755 487 161.239V161.239Z" fill="url(#paint11_linear_34_1331)"/>
<path d="M451.527 153.905C457.269 153.905 461.925 149.249 461.925 143.507C461.925 137.764 457.269 133.108 451.527 133.108C445.784 133.108 441.128 137.764 441.128 143.507C441.128 149.249 445.784 153.905 451.527 153.905Z" fill="url(#paint12_linear_34_1331)"/>
<path d="M432.534 95.3725C420.835 89.0296 410.008 84.4508 393.94 84.1802C366.207 84.1802 307.162 111.097 272.181 131.154C265.587 134.94 260.82 141.241 258.322 148.719C256.19 155.092 259.664 162.112 265.555 163.664L308.715 175.012C337.208 182.502 367.189 175.91 391.084 156.888C396.057 152.929 400.027 147.733 402.746 141.812C405.47 135.892 406.948 129.245 406.948 122.386C406.948 109.992 417.101 100.754 427.865 103.346C428.203 103.429 428.531 103.465 428.842 103.465C432.954 103.464 436.647 97.6019 432.534 95.3725V95.3725ZM359.966 150.188C344.513 150.188 331.985 141.782 331.985 131.409C331.985 121.036 344.513 112.624 359.966 112.624C375.419 112.624 387.947 121.036 387.947 131.409C387.947 141.782 375.419 150.188 359.966 150.188Z" fill="url(#paint13_linear_34_1331)"/>
<path d="M405.207 161.765L352.655 198.541L387.553 237.836C390.025 238.137 392.339 238.297 394.467 238.297C414.445 238.297 434.926 227.727 451.527 213.921L405.207 161.765Z" fill="url(#paint14_linear_34_1331)"/>
<path d="M410.702 178.412C410.702 186.426 407.356 193.973 401.67 198.789L396.356 203.292C388.612 209.853 378.742 212.36 369.246 210.179C359.707 207.988 351.894 200.272 348.774 189.887C346.529 182.415 345.39 174.786 345.39 167.264C345.39 158.614 346.897 150.103 349.956 142.134C353.413 133.125 362.447 130.362 370.33 135.9L400.044 156.779C406.674 161.437 410.702 169.614 410.702 178.412V178.412Z" fill="url(#paint15_linear_34_1331)"/>
<path d="M410.5 176C410.5 180.999 407.165 185.707 401.497 188.712L396.198 191.521C388.478 195.614 378.639 197.178 369.173 195.817C359.663 194.45 351.874 189.637 348.764 183.158C346.526 178.497 345.391 173.737 345.391 169.045C345.391 163.648 346.893 158.339 349.943 153.367C353.389 147.747 362.395 146.024 370.254 149.478L399.876 162.503C406.484 165.41 410.5 170.511 410.5 176V176Z" fill="url(#paint16_linear_34_1331)"/>
<path d="M410.278 173.933C410.278 176.35 406.954 178.627 401.306 180.08L396.025 181.438C388.331 183.417 378.525 184.173 369.091 183.516C359.614 182.855 351.852 180.527 348.752 177.395C346.522 175.14 345.391 172.839 345.391 170.57C345.391 167.96 346.888 165.393 349.927 162.989C353.362 160.272 362.337 159.438 370.169 161.109L399.69 167.407C406.277 168.812 410.278 171.279 410.278 173.933V173.933Z" fill="url(#paint17_linear_34_1331)"/>
<path d="M364.154 133.246C358.617 134.087 353.812 137.577 351.295 143.302C347.647 151.593 345.711 160.406 345.43 169.38C345.623 176.214 346.739 183.114 348.774 189.887C351.894 200.271 359.707 207.987 369.246 210.178C369.287 210.187 369.329 210.197 369.37 210.206C376.187 211.743 382.924 207.137 385.027 199.676C387.399 191.258 390.113 179.731 390.113 172.037C390.113 171.599 390.103 171.137 390.086 170.654C389.596 157.158 383.074 144.853 372.897 137.702L370.33 135.899C368.309 134.48 366.213 133.61 364.154 133.246V133.246Z" fill="url(#paint18_linear_34_1331)"/>
<path d="M349.956 142.134C346.897 150.103 345.39 158.614 345.39 167.264C345.39 174.786 346.529 182.415 348.774 189.887C350.488 195.592 353.617 200.49 357.672 204.111C363.327 209.161 371.696 206.785 374.519 199.304C377.972 190.152 379.973 179.27 379.973 167.595C379.973 160.619 379.258 153.926 377.946 147.717C376.907 142.802 374.137 138.574 370.33 135.899C362.447 130.362 353.413 133.125 349.956 142.134V142.134Z" fill="url(#paint19_linear_34_1331)"/>
<path d="M349.942 153.367C347.067 158.054 345.569 163.041 345.407 168.119C345.422 169.414 345.47 170.711 345.552 172.011C345.928 175.734 346.996 179.476 348.763 183.158C351.874 189.636 359.662 194.45 369.173 195.817C371.299 196.122 373.443 196.273 375.578 196.287C378.375 187.797 379.973 178.014 379.973 167.594C379.973 162.66 379.608 157.874 378.934 153.294L370.253 149.477C362.394 146.023 353.389 147.747 349.942 153.367V153.367Z" fill="url(#paint20_linear_34_1331)"/>
<path d="M349.926 162.989C347.186 165.156 345.704 167.456 345.438 169.8C345.463 170.534 345.505 171.27 345.552 172.005C345.926 173.805 346.99 175.614 348.752 177.394C351.852 180.526 359.613 182.854 369.091 183.515C372.268 183.737 375.486 183.794 378.653 183.702C379.51 178.581 379.972 173.18 379.972 167.594C379.972 166.107 379.933 164.636 379.869 163.177L370.168 161.107C362.336 159.438 353.361 160.272 349.926 162.989V162.989Z" fill="url(#paint21_linear_34_1331)"/>
<path d="M202.783 111.715C198.449 111.715 194.294 112.814 190.451 114.829C187.291 116.484 187.306 118.547 188.867 121.284C189.773 122.873 189.447 124.613 190.234 126.489C194.046 135.564 196.381 147.79 196.381 161.24C196.381 174.647 194.06 186.838 190.27 195.905C189.473 197.812 189.787 199.581 188.867 201.195C187.307 203.932 187.291 205.995 190.452 207.651C194.295 209.664 198.449 210.764 202.784 210.764C215.226 210.764 242.895 189.871 258.161 173.317C261.471 169.728 264.122 165.887 264.122 161.441C264.122 157.078 261.112 152.954 257.882 149.42C242.658 132.768 215.273 111.715 202.783 111.715V111.715Z" fill="url(#paint22_linear_34_1331)"/>
<path d="M264.116 161.239C264.064 159.175 262.365 157.161 259.185 155.489C243.963 147.484 215.274 136.867 202.783 136.867C201.756 136.867 200.74 136.897 199.736 136.956C196.641 137.137 194.439 140.37 195.001 143.801C195.892 149.237 196.381 155.108 196.381 161.239C196.381 167.37 195.893 173.241 195.001 178.677C194.439 182.108 196.641 185.341 199.736 185.522C200.74 185.581 201.757 185.611 202.783 185.611C215.226 185.611 243.742 175.233 259.009 167.275C262.302 165.559 264.101 163.494 264.119 161.369C264.119 161.325 264.117 161.282 264.116 161.239Z" fill="url(#paint23_linear_34_1331)"/>
<path d="M258.353 163.904C262.055 163.149 264.083 162.241 264.118 161.306C264.117 161.287 264.117 161.268 264.117 161.249C264.117 161.246 264.116 161.242 264.116 161.239C264.058 160.328 262.141 159.438 258.552 158.7C243.324 155.567 216.164 151.529 200.376 150.653C198.01 150.522 196.085 152.734 196.226 155.397C196.328 157.312 196.382 159.261 196.382 161.239C196.382 163.218 196.328 165.167 196.226 167.084C196.085 169.745 198.007 171.957 200.372 171.828C216.091 170.968 243.088 167.018 258.353 163.904V163.904Z" fill="url(#paint24_linear_34_1331)"/>
<path d="M190.249 126.545C190.317 126.517 190.381 126.487 190.451 126.46C194.294 124.988 198.448 124.185 202.783 124.185C215.273 124.185 243.963 140.327 259.185 152.497C262.365 155.039 264.064 158.101 264.115 161.239C264.064 156.945 262.365 152.756 259.185 149.278C243.963 132.626 215.273 110.538 202.783 110.538C198.448 110.538 194.294 111.638 190.451 113.652C187.29 115.308 186.129 118.547 187.69 121.284C188.603 122.886 189.456 124.652 190.249 126.545V126.545Z" fill="url(#paint25_linear_34_1331)"/>
<path d="M259.009 170.416C243.742 182.515 215.226 198.292 202.783 198.292C198.448 198.292 194.294 197.489 190.451 196.017C190.381 195.99 190.317 195.96 190.249 195.932C189.456 197.825 188.603 199.591 187.689 201.193C186.129 203.93 187.29 207.169 190.45 208.826C194.293 210.839 198.447 211.939 202.782 211.939C215.224 211.939 243.741 190.35 259.008 173.796C262.318 170.207 264.12 165.885 264.12 161.44C264.12 161.429 264.12 161.419 264.12 161.408C264.112 164.649 262.311 167.799 259.009 170.416V170.416Z" fill="url(#paint26_linear_34_1331)"/>
<path d="M175.827 273.542C177.556 277.713 179.285 281.885 181.015 286.056C182.861 290.509 187.255 292.66 191.112 290.949L252.059 286.637C256.119 287.788 260.166 285.04 261.367 280.371C262.492 275.998 262.941 271.525 264.065 267.152C267.146 255.175 261.155 243.745 250.612 241.62C246.02 240.695 241.384 238.877 236.782 238.482C219.643 237.009 202.525 239.205 186.076 245.026C175.937 248.613 171.09 262.118 175.827 273.542V273.542Z" fill="url(#paint27_linear_34_1331)"/>
<path d="M197.121 272.468C198.401 276.573 199.681 280.678 200.961 284.782C202.327 289.165 205.408 291.352 208.04 289.76L250.087 286.786C252.917 287.99 255.659 285.392 256.395 280.86C257.085 276.616 257.774 272.372 258.463 268.128C260.351 256.505 255.462 243.99 248.131 241.705C233.042 237 217.905 238.071 203.629 244.853C196.693 248.149 193.615 261.226 197.121 272.468Z" fill="url(#paint28_linear_34_1331)"/>
<path d="M220.73 272.609C221.609 276.331 222.488 280.052 223.368 283.774C224.306 287.747 226.271 289.777 227.882 288.396L254.053 286.544C255.842 287.685 257.502 285.398 257.872 281.332C258.218 277.524 258.565 273.716 258.911 269.908C259.86 259.478 256.565 248.113 251.946 245.91C242.441 241.377 233.019 242.043 224.247 247.869C219.985 250.701 218.322 262.418 220.73 272.609V272.609Z" fill="url(#paint29_linear_34_1331)"/>
<path d="M250.58 240.463C245.919 239.524 241.248 238.86 236.578 238.466C246.854 242.003 253.076 254.968 249.916 267.253C248.682 272.05 247.448 276.847 246.214 281.644C245.582 284.102 244.226 286.066 242.5 287.313L252.059 286.637C256.119 287.788 260.166 285.041 261.367 280.371C262.492 275.998 263.617 271.625 264.742 267.251C267.822 255.275 261.123 242.587 250.58 240.463V240.463Z" fill="url(#paint30_linear_34_1331)"/>
<path d="M129.467 395.826C131.541 392.892 133.616 389.959 135.69 387.025C137.905 383.893 141.692 382.995 144.385 385L190.927 399.045C194.28 398.864 196.938 401.707 197.051 405.541C197.156 409.132 194.909 412.724 195.014 416.315C195.302 426.151 187.876 434.821 179.321 434.619C175.559 434.53 174.188 434.23 170.513 433.72C156.992 431.845 144.129 427.14 132.415 419.755C125.177 415.191 123.786 403.86 129.467 395.826V395.826Z" fill="url(#paint31_linear_34_1331)"/>
<path d="M145.805 400.397C147.519 397.436 149.232 394.475 150.946 391.514C152.776 388.353 155.551 387.196 157.315 388.893L189.424 398.583C191.832 398.145 193.504 400.643 193.28 404.289C193.07 407.703 192.86 411.118 192.65 414.533C192.075 423.885 186.084 432.738 179.994 433.225C167.458 434.228 155.898 430.739 146.009 422.97C141.204 419.195 141.111 408.506 145.805 400.397V400.397Z" fill="url(#paint32_linear_34_1331)"/>
<path d="M164.152 404.432C165.487 401.697 166.823 398.964 168.158 396.23C169.584 393.311 171.465 392.08 172.473 393.435L192.458 399.466C194.047 398.895 194.934 400.961 194.507 404.181C194.108 407.197 193.708 410.213 193.308 413.23C192.214 421.49 187.661 429.732 183.691 430.631C175.518 432.48 168.324 430.309 162.538 424.248C159.728 421.303 160.494 411.919 164.152 404.432V404.432Z" fill="url(#paint33_linear_34_1331)"/>
<path d="M181.675 434.619C177.893 434.53 174.151 434.225 170.458 433.71C179.053 432.769 186.158 423.801 185.862 413.712C185.746 409.772 185.631 405.833 185.515 401.893C185.456 399.875 184.749 398.113 183.628 396.842L190.928 399.045C194.281 398.864 196.939 401.707 197.052 405.541C197.157 409.132 197.262 412.724 197.368 416.315C197.656 426.151 190.229 434.822 181.675 434.619V434.619Z" fill="url(#paint34_linear_34_1331)"/>
<path d="M110.298 306.621C111.985 309.318 113.673 312.014 115.36 314.711C117.161 317.589 119.828 318.49 121.478 316.746L151.916 305.195C154.219 305.439 154.592 303.526 154.312 300.07C154.051 296.832 153.789 293.595 153.527 290.358C152.81 281.491 146.939 273.491 141.124 273.468C138.689 273.458 137.473 273.034 135.127 273.37C125.942 274.686 117.484 278.641 110.085 285.105C105.574 289.048 105.678 299.236 110.298 306.621V306.621Z" fill="url(#paint35_linear_34_1331)"/>
<path d="M142.301 272.879C139.73 272.868 137.206 273.053 134.735 273.429C140.685 274.484 146.364 282.746 147.099 291.84C147.386 295.392 147.674 298.943 147.961 302.494C148.108 304.313 147.79 305.886 147.144 307.006L151.917 305.194C154.221 305.438 155.769 302.937 155.49 299.48C155.228 296.243 154.966 293.006 154.705 289.768C153.988 280.903 148.117 272.902 142.301 272.879V272.879Z" fill="url(#paint36_linear_34_1331)"/>
<path d="M233.25 267.875C222.99 267.875 210.551 269.884 197.255 273.2C187.596 275.608 178.518 288.986 168.462 292.504C156.347 296.742 143.28 291.311 132.21 296.299C130.604 297.023 129.017 297.749 127.454 298.477C113.011 305.206 96.0336 301.865 85.0741 290.3C74.79 279.447 67.3494 278.76 59.4883 278.76C42.1624 278.761 28.1177 304.778 28.1177 344.129C28.1177 383.479 42.1624 409.496 59.4883 409.496C67.3494 409.496 74.7906 408.809 85.0741 397.957C96.0336 386.392 113.011 383.051 127.454 389.779C129.002 390.501 130.574 391.221 132.166 391.938C142.085 396.408 152.78 396.061 163.614 399.97C174.961 404.064 186.461 412.37 197.379 415.087C210.628 418.385 223.022 420.382 233.251 420.382C283.37 420.382 324 383.479 324 344.129C324 304.779 283.37 267.875 233.25 267.875V267.875Z" fill="url(#paint37_linear_34_1331)"/>
<path d="M216.96 344.129L164.588 376.678L204.698 416.787C215.176 419.053 224.932 420.382 233.251 420.382C250.813 420.382 267.206 415.847 281.098 408.267L216.96 344.129Z" fill="url(#paint38_linear_34_1331)"/>
<path d="M324 344.129C324 360.105 317.301 375.672 305.989 388.535C294.306 401.83 277.685 412.235 258.441 417.196C250.903 400.307 246.045 373.859 246.045 344.129C246.045 314.398 250.902 287.95 258.441 271.061C277.685 276.022 294.306 286.428 305.989 299.722C317.301 312.586 324 328.153 324 344.129Z" fill="url(#paint39_linear_34_1331)"/>
<path d="M281.091 408.259L247.882 375.051C249.949 391.883 253.653 406.469 258.441 417.197C266.512 415.116 274.113 412.066 281.091 408.259V408.259Z" fill="url(#paint40_linear_34_1331)"/>
<path d="M88.9324 344.129C88.9324 361.382 90.5665 377.536 93.4112 391.35C90.3882 393.11 87.5735 395.316 85.0782 397.96C74.7918 408.812 63.2353 415.377 55.37 415.377C38.0424 415.377 25.4841 383.478 25.4841 344.129C25.4841 304.78 38.0424 272.88 55.37 272.88C63.2353 272.88 74.7918 279.446 85.0712 290.297C87.5741 292.941 90.3888 295.147 93.4118 296.907C90.5665 310.722 88.9324 326.875 88.9324 344.129V344.129Z" fill="url(#paint41_linear_34_1331)"/>
<path d="M88.9294 344.129C88.9294 355.035 89.5823 365.505 90.7882 375.223C89.5294 375.717 88.3118 376.252 87.1471 376.823C77.6118 381.464 67.2471 384.811 58.3353 386.382C54.5882 387.052 51.1 387.399 48.0412 387.399C47.9753 387.399 47.9094 387.399 47.8435 387.399C37.8276 387.349 29.2771 380.115 27.3412 370.288C25.7271 362.091 24 351.582 24 344.129C24 336.676 25.7271 326.166 27.3412 317.969C29.2765 308.142 37.8271 300.908 47.8435 300.859C47.9094 300.858 47.9753 300.858 48.0412 300.858C51.1 300.858 54.5882 301.205 58.3353 301.876C67.2412 303.446 77.6059 306.793 87.1412 311.435C88.3059 312.005 89.5235 312.541 90.7882 313.035C89.5823 322.752 88.9294 333.223 88.9294 344.129V344.129Z" fill="url(#paint42_linear_34_1331)"/>
<path d="M88.9294 344.129C88.9294 348.723 89.0471 353.235 89.2765 357.652C79.6588 359.346 69.3882 360.57 60.4882 361.17C56.5059 361.44 52.8 361.582 49.5529 361.582H49.3412C38.6941 361.558 29.6059 358.64 27.5529 354.676C26.8824 353.382 26.1882 351.94 25.5941 350.493C24.6765 348.24 24 345.958 24 344.129C24 342.299 24.6765 340.017 25.5941 337.764C26.1882 336.317 26.8824 334.876 27.5529 333.582C29.6059 329.617 38.6941 326.699 49.3412 326.676H49.5529C52.8 326.676 56.5059 326.817 60.4882 327.088C69.3882 327.688 79.6588 328.911 89.2765 330.605C89.0471 335.023 88.9294 339.535 88.9294 344.129Z" fill="url(#paint43_linear_34_1331)"/>
<path d="M71.1929 278.666C65.3412 274.943 59.7753 272.879 55.3706 272.879C38.0447 272.879 24 304.778 24 344.129C24 383.479 38.0447 415.379 55.3706 415.379C59.7753 415.379 65.3412 413.314 71.1929 409.591C60.0353 398.673 52.2229 373.475 52.2229 344.129C52.2229 314.782 60.0353 289.584 71.1929 278.666V278.666Z" fill="url(#paint44_linear_34_1331)"/>
<path d="M185.886 344.129C185.886 330.715 186.874 317.963 188.656 306.459C190.654 293.506 193.655 282.142 197.376 273.17C192.229 274.448 186.956 275.926 181.631 277.56C164.853 282.699 147.57 289.376 132.151 296.328C129.232 310.276 127.554 326.638 127.554 344.129C127.554 361.619 129.233 377.982 132.151 391.929C147.57 398.881 164.853 405.558 181.631 410.697C186.956 412.332 192.229 413.809 197.376 415.087C193.655 406.115 190.654 394.752 188.656 381.799C186.874 370.294 185.886 357.542 185.886 344.129Z" fill="url(#paint45_linear_34_1331)"/>
<path d="M194.199 406.289C191.929 399.077 190.048 390.825 188.656 381.799C187.734 375.848 187.029 369.559 186.559 363.022L165.395 377.485L194.199 406.289Z" fill="url(#paint46_linear_34_1331)"/>
<path d="M280.471 341.719C286.937 341.719 292.179 336.477 292.179 330.011C292.179 323.545 286.937 318.303 280.471 318.303C274.004 318.303 268.762 323.545 268.762 330.011C268.762 336.477 274.004 341.719 280.471 341.719Z" fill="url(#paint47_linear_34_1331)"/>
<path d="M222.436 358.863C222.436 365.955 219.102 372.636 213.435 376.898L208.139 380.883C204.65 383.508 200.728 385.4 196.602 386.507C191.603 387.848 186.307 387.448 181.122 386.39C171.616 384.45 166.183 378.21 163.073 369.019C160.836 362.405 159.702 355.653 159.702 348.995C159.702 341.339 161.203 333.806 164.252 326.753C167.697 318.78 174.346 316.923 182.203 321.824L183.175 321.842L211.815 339.715C218.422 343.839 222.436 351.076 222.436 358.863V358.863Z" fill="url(#paint48_linear_34_1331)"/>
<path d="M222.235 356.727C222.235 361.152 218.912 365.319 213.262 367.978L207.982 370.464C200.289 374.086 190.483 375.471 181.049 374.266C171.572 373.056 163.81 368.796 160.711 363.062C158.48 358.936 157.349 354.724 157.349 350.571C157.349 345.795 158.846 341.095 161.885 336.695C165.32 331.721 174.295 330.195 182.126 333.253L211.647 344.782C218.233 347.354 222.235 351.869 222.235 356.727Z" fill="url(#paint49_linear_34_1331)"/>
<path d="M222.015 354.898C222.015 357.038 218.702 359.053 213.072 360.339L207.81 361.541C200.143 363.293 190.37 363.962 180.969 363.38C171.523 362.795 163.788 360.735 160.699 357.962C158.476 355.967 157.349 353.931 157.349 351.922C157.349 349.612 158.841 347.34 161.869 345.212C165.292 342.807 174.236 342.069 182.042 343.548L211.462 349.122C218.026 350.366 222.015 352.549 222.015 354.898Z" fill="url(#paint50_linear_34_1331)"/>
<path d="M178.535 369.019C176.298 362.405 175.164 355.653 175.164 348.995C175.164 341.339 176.665 333.806 179.714 326.753C180.569 324.772 181.769 323.133 183.208 321.863L182.203 321.235C174.346 316.334 165.344 318.78 161.899 326.753C158.851 333.806 157.349 341.339 157.349 348.995C157.349 355.652 158.483 362.405 160.721 369.018C163.83 378.209 171.616 385.038 181.122 386.978C186.377 388.049 191.746 387.84 196.804 386.449C188.277 383.985 181.409 377.512 178.535 369.019V369.019Z" fill="url(#paint51_linear_34_1331)"/>
<path d="M58.3376 386.381C54.4965 374.559 52.2229 359.949 52.2229 344.129C52.2229 328.308 54.4965 313.698 58.3376 301.876C58.3371 301.876 58.3365 301.876 58.3353 301.876C54.5882 301.205 51.1 300.858 48.0412 300.858C47.9753 300.858 47.9094 300.858 47.8435 300.859C37.8276 300.908 29.2771 308.142 27.3412 317.969C25.7271 326.166 24 336.676 24 344.129C24 351.582 25.7271 362.092 27.3412 370.288C29.2765 380.116 37.8271 387.35 47.8435 387.399C47.9094 387.399 47.9753 387.399 48.0412 387.399C51.1 387.399 54.5882 387.052 58.3353 386.382C58.3359 386.382 58.3371 386.381 58.3376 386.381V386.381Z" fill="url(#paint52_linear_34_1331)"/>
<path d="M27.5529 354.676C29.6059 358.64 38.6941 361.558 49.3412 361.582H49.5529C50.7024 361.582 51.9118 361.563 53.1682 361.528C52.5524 355.96 52.2229 350.132 52.2229 344.129C52.2229 338.125 52.5518 332.298 53.1682 326.729C51.9118 326.695 50.7024 326.676 49.5529 326.676H49.3412C38.6941 326.699 29.6059 329.617 27.5529 333.582C26.8824 334.876 26.1882 336.317 25.5941 337.764C24.6765 340.017 24 342.299 24 344.129C24 345.958 24.6765 348.24 25.5941 350.493C26.1882 351.94 26.8824 353.382 27.5529 354.676V354.676Z" fill="url(#paint53_linear_34_1331)"/>
<g opacity="0.5">
<path d="M297.997 267.586C306.538 267.586 313.461 260.662 313.461 252.122C313.461 243.581 306.538 236.658 297.997 236.658C289.456 236.658 282.533 243.581 282.533 252.122C282.533 260.662 289.456 267.586 297.997 267.586Z" fill="url(#paint54_linear_34_1331)"/>
<path d="M314.413 288.829C319.365 288.829 323.378 284.815 323.378 279.864C323.378 274.913 319.365 270.899 314.413 270.899C309.462 270.899 305.449 274.913 305.449 279.864C305.449 284.815 309.462 288.829 314.413 288.829Z" fill="url(#paint55_linear_34_1331)"/>
<path d="M315.035 236.235C319.986 236.235 324 232.221 324 227.27C324 222.319 319.986 218.305 315.035 218.305C310.084 218.305 306.071 222.319 306.071 227.27C306.071 232.221 310.084 236.235 315.035 236.235Z" fill="url(#paint56_linear_34_1331)"/>
</g>
<defs>
<linearGradient id="paint0_linear_34_1331" x1="324.996" y1="79.6421" x2="339.373" y2="102.806" gradientUnits="userSpaceOnUse">
<stop stop-color="#18CEFB"/>
<stop offset="0.8231" stop-color="#0590FC"/>
<stop offset="1" stop-color="#0182FC"/>
</linearGradient>
<linearGradient id="paint1_linear_34_1331" x1="365.847" y1="105.138" x2="365.847" y2="142.391" gradientUnits="userSpaceOnUse">
<stop stop-color="#0182FC" stop-opacity="0"/>
<stop offset="1" stop-color="#0268B4"/>
</linearGradient>
<linearGradient id="paint2_linear_34_1331" x1="377.708" y1="92.3143" x2="379.277" y2="123.278" gradientUnits="userSpaceOnUse">
<stop stop-color="#0182FC" stop-opacity="0"/>
<stop offset="1" stop-color="#0268B4"/>
</linearGradient>
<linearGradient id="paint3_linear_34_1331" x1="391.54" y1="85.2019" x2="390.743" y2="117.881" gradientUnits="userSpaceOnUse">
<stop stop-color="#0182FC" stop-opacity="0"/>
<stop offset="1" stop-color="#0268B4"/>
</linearGradient>
<linearGradient id="paint4_linear_34_1331" x1="401.236" y1="79.2753" x2="400.032" y2="103.36" gradientUnits="userSpaceOnUse">
<stop stop-color="#0182FC" stop-opacity="0"/>
<stop offset="1" stop-color="#0268B4"/>
</linearGradient>
<linearGradient id="paint5_linear_34_1331" x1="324.996" y1="242.836" x2="339.373" y2="219.672" gradientUnits="userSpaceOnUse">
<stop stop-color="#18CEFB"/>
<stop offset="0.8231" stop-color="#0590FC"/>
<stop offset="1" stop-color="#0182FC"/>
</linearGradient>
<linearGradient id="paint6_linear_34_1331" x1="365.847" y1="217.339" x2="365.847" y2="180.087" gradientUnits="userSpaceOnUse">
<stop stop-color="#0182FC" stop-opacity="0"/>
<stop offset="1" stop-color="#0268B4"/>
</linearGradient>
<linearGradient id="paint7_linear_34_1331" x1="377.709" y1="230.163" x2="379.277" y2="199.199" gradientUnits="userSpaceOnUse">
<stop stop-color="#0182FC" stop-opacity="0"/>
<stop offset="1" stop-color="#0268B4"/>
</linearGradient>
<linearGradient id="paint8_linear_34_1331" x1="391.54" y1="237.276" x2="390.743" y2="204.596" gradientUnits="userSpaceOnUse">
<stop stop-color="#0182FC" stop-opacity="0"/>
<stop offset="1" stop-color="#0268B4"/>
</linearGradient>
<linearGradient id="paint9_linear_34_1331" x1="401.236" y1="243.203" x2="400.032" y2="219.118" gradientUnits="userSpaceOnUse">
<stop stop-color="#0182FC" stop-opacity="0"/>
<stop offset="1" stop-color="#0268B4"/>
</linearGradient>
<linearGradient id="paint10_linear_34_1331" x1="321.865" y1="80.0535" x2="385.445" y2="184.904" gradientUnits="userSpaceOnUse">
<stop stop-color="#18CEFB"/>
<stop offset="0.8231" stop-color="#0590FC"/>
<stop offset="1" stop-color="#0182FC"/>
</linearGradient>
<linearGradient id="paint11_linear_34_1331" x1="321.865" y1="80.0535" x2="385.445" y2="184.904" gradientUnits="userSpaceOnUse">
<stop stop-color="#18CEFB"/>
<stop offset="0.8231" stop-color="#0590FC"/>
<stop offset="1" stop-color="#0182FC"/>
</linearGradient>
<linearGradient id="paint12_linear_34_1331" x1="444.015" y1="135.994" x2="452.402" y2="144.382" gradientUnits="userSpaceOnUse">
<stop stop-color="#537983"/>
<stop offset="1" stop-color="#3E5959"/>
</linearGradient>
<linearGradient id="paint13_linear_34_1331" x1="323.303" y1="89.2431" x2="355.863" y2="142.939" gradientUnits="userSpaceOnUse">
<stop stop-color="#537983"/>
<stop offset="1" stop-color="#3E5959"/>
</linearGradient>
<linearGradient id="paint14_linear_34_1331" x1="427.226" y1="238.814" x2="388.437" y2="188.532" gradientUnits="userSpaceOnUse">
<stop stop-color="#0182FC" stop-opacity="0"/>
<stop offset="1" stop-color="#0268B4"/>
</linearGradient>
<linearGradient id="paint15_linear_34_1331" x1="372.018" y1="154.061" x2="382.674" y2="193.011" gradientUnits="userSpaceOnUse">
<stop stop-color="#18CEFB"/>
<stop offset="0.8231" stop-color="#0590FC"/>
<stop offset="1" stop-color="#0182FC"/>
</linearGradient>
<linearGradient id="paint16_linear_34_1331" x1="378.52" y1="175.81" x2="392.281" y2="210.573" gradientUnits="userSpaceOnUse">
<stop stop-color="#0182FC" stop-opacity="0"/>
<stop offset="1" stop-color="#0268B4"/>
</linearGradient>
<linearGradient id="paint17_linear_34_1331" x1="374.36" y1="170.496" x2="408.088" y2="199.607" gradientUnits="userSpaceOnUse">
<stop stop-color="#0182FC" stop-opacity="0"/>
<stop offset="1" stop-color="#0268B4"/>
</linearGradient>
<linearGradient id="paint18_linear_34_1331" x1="362.573" y1="161.371" x2="381.984" y2="204.507" gradientUnits="userSpaceOnUse">
<stop stop-color="#537983"/>
<stop offset="1" stop-color="#3E5959"/>
</linearGradient>
<linearGradient id="paint19_linear_34_1331" x1="359.19" y1="159.31" x2="377.271" y2="199.491" gradientUnits="userSpaceOnUse">
<stop stop-color="#FFE177"/>
<stop offset="1" stop-color="#FE9738"/>
</linearGradient>
<linearGradient id="paint20_linear_34_1331" x1="364.742" y1="168.875" x2="346.704" y2="215.995" gradientUnits="userSpaceOnUse">
<stop stop-color="#FE9738" stop-opacity="0"/>
<stop offset="1" stop-color="#FE7701"/>
</linearGradient>
<linearGradient id="paint21_linear_34_1331" x1="368.075" y1="167.62" x2="345.963" y2="198.025" gradientUnits="userSpaceOnUse">
<stop stop-color="#FE9738" stop-opacity="0"/>
<stop offset="1" stop-color="#FE7701"/>
</linearGradient>
<linearGradient id="paint22_linear_34_1331" x1="218.926" y1="148.481" x2="232.909" y2="215.931" gradientUnits="userSpaceOnUse">
<stop stop-color="#FFE177"/>
<stop offset="1" stop-color="#FE9738"/>
</linearGradient>
<linearGradient id="paint23_linear_34_1331" x1="226.322" y1="154.438" x2="185.203" y2="190.329" gradientUnits="userSpaceOnUse">
<stop stop-color="#FE9738" stop-opacity="0"/>
<stop offset="1" stop-color="#FE7701"/>
</linearGradient>
<linearGradient id="paint24_linear_34_1331" x1="229.917" y1="159.608" x2="226.241" y2="182.764" gradientUnits="userSpaceOnUse">
<stop stop-color="#FE9738" stop-opacity="0"/>
<stop offset="1" stop-color="#FE7701"/>
</linearGradient>
<linearGradient id="paint25_linear_34_1331" x1="223.933" y1="131.645" x2="232.888" y2="174.836" gradientUnits="userSpaceOnUse">
<stop stop-color="#537983"/>
<stop offset="1" stop-color="#3E5959"/>
</linearGradient>
<linearGradient id="paint26_linear_34_1331" x1="225.977" y1="184.823" x2="231.31" y2="210.549" gradientUnits="userSpaceOnUse">
<stop stop-color="#537983"/>
<stop offset="1" stop-color="#3E5959"/>
</linearGradient>
<linearGradient id="paint27_linear_34_1331" x1="216.055" y1="242.339" x2="223.114" y2="284.692" gradientUnits="userSpaceOnUse">
<stop stop-color="#FE860A"/>
<stop offset="0.6914" stop-color="#FC482B"/>
<stop offset="1" stop-color="#FB2B3A"/>
</linearGradient>
<linearGradient id="paint28_linear_34_1331" x1="224.413" y1="242.781" x2="232.899" y2="283.686" gradientUnits="userSpaceOnUse">
<stop stop-color="#F82814" stop-opacity="0"/>
<stop offset="1" stop-color="#C0272D"/>
</linearGradient>
<linearGradient id="paint29_linear_34_1331" x1="239.7" y1="251.738" x2="238.539" y2="273.042" gradientUnits="userSpaceOnUse">
<stop stop-color="#F82814" stop-opacity="0"/>
<stop offset="1" stop-color="#C0272D"/>
</linearGradient>
<linearGradient id="paint30_linear_34_1331" x1="248.516" y1="240.407" x2="255.093" y2="279.87" gradientUnits="userSpaceOnUse">
<stop stop-color="#537983"/>
<stop offset="1" stop-color="#3E5959"/>
</linearGradient>
<linearGradient id="paint31_linear_34_1331" x1="161.479" y1="408.097" x2="160.89" y2="444.595" gradientUnits="userSpaceOnUse">
<stop stop-color="#FE860A"/>
<stop offset="0.6914" stop-color="#FC482B"/>
<stop offset="1" stop-color="#FB2B3A"/>
</linearGradient>
<linearGradient id="paint32_linear_34_1331" x1="161.871" y1="428.298" x2="175.621" y2="398.049" gradientUnits="userSpaceOnUse">
<stop stop-color="#F82814" stop-opacity="0"/>
<stop offset="1" stop-color="#C0272D"/>
</linearGradient>
<linearGradient id="paint33_linear_34_1331" x1="175.063" y1="424.052" x2="177.9" y2="407.317" gradientUnits="userSpaceOnUse">
<stop stop-color="#F82814" stop-opacity="0"/>
<stop offset="1" stop-color="#C0272D"/>
</linearGradient>
<linearGradient id="paint34_linear_34_1331" x1="181.851" y1="409.728" x2="186.36" y2="432.472" gradientUnits="userSpaceOnUse">
<stop stop-color="#537983"/>
<stop offset="1" stop-color="#3E5959"/>
</linearGradient>
<linearGradient id="paint35_linear_34_1331" x1="127.254" y1="284.088" x2="133.92" y2="304.872" gradientUnits="userSpaceOnUse">
<stop stop-color="#FE860A"/>
<stop offset="0.6914" stop-color="#FC482B"/>
<stop offset="1" stop-color="#FB2B3A"/>
</linearGradient>
<linearGradient id="paint36_linear_34_1331" x1="140.481" y1="273.857" x2="152.494" y2="299.966" gradientUnits="userSpaceOnUse">
<stop stop-color="#537983"/>
<stop offset="1" stop-color="#3E5959"/>
</linearGradient>
<linearGradient id="paint37_linear_34_1331" x1="171.875" y1="328.431" x2="197.099" y2="450.099" gradientUnits="userSpaceOnUse">
<stop stop-color="#EDF5FF"/>
<stop offset="1" stop-color="#C7E9FF"/>
</linearGradient>
<linearGradient id="paint38_linear_34_1331" x1="240.694" y1="416.219" x2="196.772" y2="357.788" gradientUnits="userSpaceOnUse">
<stop stop-color="white" stop-opacity="0"/>
<stop offset="0.3432" stop-color="#CDE0F3" stop-opacity="0.343"/>
<stop offset="0.7872" stop-color="#92BAE4" stop-opacity="0.787"/>
<stop offset="1" stop-color="#7BACDF"/>
</linearGradient>
<linearGradient id="paint39_linear_34_1331" x1="285.022" y1="333.73" x2="285.022" y2="433.279" gradientUnits="userSpaceOnUse">
<stop stop-color="#FE860A"/>
<stop offset="0.6914" stop-color="#FC482B"/>
<stop offset="1" stop-color="#FB2B3A"/>
</linearGradient>
<linearGradient id="paint40_linear_34_1331" x1="279.614" y1="414.732" x2="222.751" y2="374.732" gradientUnits="userSpaceOnUse">
<stop stop-color="#F82814" stop-opacity="0"/>
<stop offset="1" stop-color="#C0272D"/>
</linearGradient>
<linearGradient id="paint41_linear_34_1331" x1="59.4471" y1="337.444" x2="59.4471" y2="405.133" gradientUnits="userSpaceOnUse">
<stop stop-color="#FE860A"/>
<stop offset="0.6914" stop-color="#FC482B"/>
<stop offset="1" stop-color="#FB2B3A"/>
</linearGradient>
<linearGradient id="paint42_linear_34_1331" x1="78.1176" y1="344.129" x2="18.1376" y2="344.129" gradientUnits="userSpaceOnUse">
<stop stop-color="#F82814" stop-opacity="0"/>
<stop offset="1" stop-color="#C0272D"/>
</linearGradient>
<linearGradient id="paint43_linear_34_1331" x1="83.1176" y1="344.129" x2="1.02294" y2="344.129" gradientUnits="userSpaceOnUse">
<stop stop-color="#F82814" stop-opacity="0"/>
<stop offset="1" stop-color="#C0272D"/>
</linearGradient>
<linearGradient id="paint44_linear_34_1331" x1="35.8253" y1="304.525" x2="69.2453" y2="370.252" gradientUnits="userSpaceOnUse">
<stop stop-color="#537983"/>
<stop offset="1" stop-color="#3E5959"/>
</linearGradient>
<linearGradient id="paint45_linear_34_1331" x1="162.464" y1="335.959" x2="162.464" y2="425.393" gradientUnits="userSpaceOnUse">
<stop stop-color="#FE860A"/>
<stop offset="0.6914" stop-color="#FC482B"/>
<stop offset="1" stop-color="#FB2B3A"/>
</linearGradient>
<linearGradient id="paint46_linear_34_1331" x1="203.055" y1="419.395" x2="181.879" y2="380.963" gradientUnits="userSpaceOnUse">
<stop stop-color="#F82814" stop-opacity="0"/>
<stop offset="1" stop-color="#C0272D"/>
</linearGradient>
<linearGradient id="paint47_linear_34_1331" x1="273.501" y1="323.042" x2="283.503" y2="333.043" gradientUnits="userSpaceOnUse">
<stop stop-color="#537983"/>
<stop offset="1" stop-color="#3E5959"/>
</linearGradient>
<linearGradient id="paint48_linear_34_1331" x1="183.357" y1="340.869" x2="201.893" y2="382.059" gradientUnits="userSpaceOnUse">
<stop stop-color="#FE860A"/>
<stop offset="0.6914" stop-color="#FC482B"/>
<stop offset="1" stop-color="#FB2B3A"/>
</linearGradient>
<linearGradient id="paint49_linear_34_1331" x1="190.372" y1="356.555" x2="202.941" y2="388.307" gradientUnits="userSpaceOnUse">
<stop stop-color="#F82814" stop-opacity="0"/>
<stop offset="1" stop-color="#C0272D"/>
</linearGradient>
<linearGradient id="paint50_linear_34_1331" x1="186.461" y1="351.624" x2="219.59" y2="380.218" gradientUnits="userSpaceOnUse">
<stop stop-color="#F82814" stop-opacity="0"/>
<stop offset="1" stop-color="#C0272D"/>
</linearGradient>
<linearGradient id="paint51_linear_34_1331" x1="171.841" y1="345.32" x2="190.479" y2="386.738" gradientUnits="userSpaceOnUse">
<stop stop-color="#537983"/>
<stop offset="1" stop-color="#3E5959"/>
</linearGradient>
<linearGradient id="paint52_linear_34_1331" x1="61.3529" y1="344.129" x2="28.1124" y2="344.129" gradientUnits="userSpaceOnUse">
<stop stop-color="#3E5959" stop-opacity="0"/>
<stop offset="1" stop-color="#3E5959"/>
</linearGradient>
<linearGradient id="paint53_linear_34_1331" x1="69.5882" y1="344.129" x2="46.3529" y2="344.129" gradientUnits="userSpaceOnUse">
<stop stop-color="#3E5959" stop-opacity="0"/>
<stop offset="1" stop-color="#3E5959"/>
</linearGradient>
<linearGradient id="paint54_linear_34_1331" x1="291.644" y1="245.769" x2="313.307" y2="267.432" gradientUnits="userSpaceOnUse">
<stop stop-color="#EDF5FF"/>
<stop offset="1" stop-color="#C7E9FF"/>
</linearGradient>
<linearGradient id="paint55_linear_34_1331" x1="309.373" y1="274.824" x2="319.002" y2="284.452" gradientUnits="userSpaceOnUse">
<stop stop-color="#EDF5FF"/>
<stop offset="1" stop-color="#C7E9FF"/>
</linearGradient>
<linearGradient id="paint56_linear_34_1331" x1="309.995" y1="222.23" x2="319.623" y2="231.859" gradientUnits="userSpaceOnUse">
<stop stop-color="#EDF5FF"/>
<stop offset="1" stop-color="#C7E9FF"/>
</linearGradient>
</defs>
</svg>
