<svg height="512" viewBox="0 0 510 510" width="512" xmlns="http://www.w3.org/2000/svg" xmlns:xlink="http://www.w3.org/1999/xlink"><linearGradient id="illustrations--jellyfish__a"><stop offset="0" stop-color="#edf5ff"/><stop offset="1" stop-color="#c7e9ff"/></linearGradient><linearGradient id="illustrations--jellyfish__d" gradientUnits="userSpaceOnUse" x1="128.465" x2="206.962" xlink:href="#illustrations--jellyfish__a" y1="341.761" y2="341.761"/><linearGradient id="illustrations--jellyfish__e" gradientTransform="matrix(1 0 0 -1 0 769.612)" gradientUnits="userSpaceOnUse" x1="190.171" x2="268.669" xlink:href="#illustrations--jellyfish__a" y1="417.106" y2="417.106"/><linearGradient id="illustrations--jellyfish__f" gradientTransform="matrix(1 0 0 -1 0 769.612)" gradientUnits="userSpaceOnUse" x1="303.038" x2="381.534" xlink:href="#illustrations--jellyfish__a" y1="399.23" y2="399.23"/><linearGradient id="illustrations--jellyfish__g" gradientUnits="userSpaceOnUse" x1="250.704" x2="329.2" xlink:href="#illustrations--jellyfish__a" y1="317.297" y2="317.297"/><linearGradient id="illustrations--jellyfish__b"><stop offset="0" stop-color="#fff" stop-opacity="0"/><stop offset=".052" stop-color="#f2fcff" stop-opacity=".052"/><stop offset=".713" stop-color="#57dbfc" stop-opacity=".713"/><stop offset="1" stop-color="#18cefb"/></linearGradient><linearGradient id="illustrations--jellyfish__h" gradientUnits="userSpaceOnUse" x1="174.062" x2="174.062" xlink:href="#illustrations--jellyfish__b" y1="342.932" y2="243.99"/><linearGradient id="illustrations--jellyfish__i" gradientUnits="userSpaceOnUse" x1="229.42" x2="229.42" xlink:href="#illustrations--jellyfish__b" y1="342.932" y2="243.99"/><linearGradient id="illustrations--jellyfish__j" gradientUnits="userSpaceOnUse" x1="342.255" x2="342.255" xlink:href="#illustrations--jellyfish__b" y1="342.932" y2="243.99"/><linearGradient id="illustrations--jellyfish__k" gradientUnits="userSpaceOnUse" x1="296.3" x2="296.3" xlink:href="#illustrations--jellyfish__b" y1="342.932" y2="243.99"/><linearGradient id="illustrations--jellyfish__l" gradientUnits="userSpaceOnUse" x1="173.766" x2="318.914" xlink:href="#illustrations--jellyfish__a" y1="53.586" y2="266.376"/><linearGradient id="illustrations--jellyfish__m" gradientUnits="userSpaceOnUse" x1="121.781" x2="400.804" xlink:href="#illustrations--jellyfish__b" y1="96.888" y2="323.77"/><linearGradient id="illustrations--jellyfish__c"><stop offset="0" stop-color="#fff" stop-opacity="0"/><stop offset=".343" stop-color="#cde0f3" stop-opacity=".343"/><stop offset=".787" stop-color="#92bae4" stop-opacity=".787"/><stop offset="1" stop-color="#7bacdf"/></linearGradient><linearGradient id="illustrations--jellyfish__n" gradientUnits="userSpaceOnUse" x1="255" x2="255" xlink:href="#illustrations--jellyfish__c" y1="188.326" y2="286.976"/><linearGradient id="illustrations--jellyfish__o" gradientTransform="rotate(-30 173.216 144.896)" gradientUnits="userSpaceOnUse" x1="156.552" x2="216.681" xlink:href="#illustrations--jellyfish__c" y1="42.817" y2="149.922"/><linearGradient id="illustrations--jellyfish__p" gradientTransform="rotate(-30 173.216 144.896)" gradientUnits="userSpaceOnUse" x1="217.696" x2="250.649" xlink:href="#illustrations--jellyfish__c" y1="34.785" y2="93.483"/><linearGradient id="illustrations--jellyfish__q" gradientTransform="rotate(45 512.165 362.48)" gradientUnits="userSpaceOnUse" x1="271.071" x2="304.024" xlink:href="#illustrations--jellyfish__c" y1="262.424" y2="321.122"/><path d="M145.589 481.379a17.066 17.066 0 01-12.243-5.152c-6.612-6.761-6.491-17.602.27-24.213l19.542-19.109c7.325-7.162 9.516-17.904 5.583-27.363-7.141-17.175-2.907-37.353 10.539-50.208a11.018 11.018 0 003.436-8.061 11.024 11.024 0 00-3.467-8.048c-26.598-25.228-35.206-63.609-21.931-97.78l11.024-28.376c3.424-8.815 13.347-13.184 22.161-9.76s13.185 13.346 9.76 22.161l-11.024 28.376c-8.219 21.155-2.889 44.915 13.576 60.534 8.966 8.504 14.122 20.469 14.146 32.826.025 12.357-5.084 24.341-14.015 32.88-3.296 3.152-4.335 8.098-2.585 12.308 9.343 22.47 4.137 47.982-13.26 64.995l-19.542 19.109a17.062 17.062 0 01-11.97 4.881z" fill="url(#illustrations--jellyfish__d)"/><path d="M236.013 492.124c-6.859 0-13.331-4.149-15.964-10.927l-11.025-28.376c-13.276-34.171-4.668-72.552 21.931-97.781 2.23-2.116 3.462-4.973 3.468-8.047s-1.214-5.937-3.437-8.062c-13.445-12.854-17.68-33.031-10.539-50.207 3.934-9.46 1.743-20.201-5.583-27.363l-19.542-19.109c-6.761-6.612-6.882-17.453-.27-24.214 6.611-6.761 17.452-6.882 24.213-.271l19.542 19.109c17.399 17.014 22.604 42.526 13.261 64.995-1.75 4.21-.713 9.157 2.583 12.308 8.933 8.54 14.041 20.525 14.017 32.882-.025 12.357-5.181 24.321-14.146 32.825-16.466 15.618-21.796 39.379-13.577 60.533l11.025 28.376c3.424 8.814-.945 18.736-9.759 22.161a17.062 17.062 0 01-6.198 1.168z" fill="url(#illustrations--jellyfish__e)"/><path d="M348.879 510c-6.859 0-13.331-4.15-15.964-10.927l-11.024-28.376c-13.276-34.17-4.668-72.552 21.931-97.78a11.017 11.017 0 003.467-8.048 11.02 11.02 0 00-3.436-8.061c-13.446-12.855-17.681-33.032-10.538-50.208 3.932-9.459 1.74-20.2-5.585-27.363l-19.541-19.11c-6.761-6.612-6.882-17.452-.27-24.213 6.612-6.762 17.454-6.881 24.213-.27l19.541 19.109c17.398 17.013 22.604 42.524 13.262 64.994-1.751 4.211-.713 9.157 2.583 12.308 8.932 8.539 14.041 20.524 14.016 32.881-.024 12.357-5.181 24.322-14.146 32.826-16.465 15.618-21.795 39.379-13.576 60.533l11.024 28.377c3.424 8.814-.946 18.736-9.76 22.161a17.094 17.094 0 01-6.197 1.167z" fill="url(#illustrations--jellyfish__f)"/><path d="M267.827 456.915a17.07 17.07 0 01-12.243-5.151c-6.612-6.761-6.491-17.602.27-24.213l19.541-19.109c7.325-7.163 9.517-17.904 5.584-27.364-7.142-17.175-2.907-37.353 10.54-50.208a11.015 11.015 0 003.435-8.06 11.024 11.024 0 00-3.467-8.048c-26.598-25.228-35.206-63.61-21.931-97.781l11.024-28.376c3.424-8.815 13.346-13.185 22.161-9.76 8.814 3.424 13.185 13.346 9.76 22.161l-11.024 28.376c-8.219 21.155-2.889 44.916 13.576 60.534 8.965 8.504 14.122 20.468 14.146 32.826.025 12.357-5.084 24.342-14.015 32.881-3.296 3.152-4.335 8.097-2.585 12.308 9.343 22.471 4.136 47.983-13.261 64.996l-19.541 19.108a17.069 17.069 0 01-11.97 4.88z" fill="url(#illustrations--jellyfish__g)"/><path d="M206.959 347.207a45.121 45.121 0 01-2.7 15.44h-41.143a44.579 44.579 0 016.164-7.309c2.221-2.133 3.444-4.99 3.434-8.062 0-3.072-1.233-5.939-3.464-8.052-26.604-25.224-35.204-63.608-21.936-97.774l11.027-28.384c3.424-8.806 13.346-13.179 22.161-9.755 8.816 3.424 13.189 13.346 9.765 22.161l-11.027 28.374c-8.219 21.154-2.886 44.92 13.571 60.535 8.972 8.503 14.129 20.469 14.148 32.826z" fill="url(#illustrations--jellyfish__h)"/><path d="M268.669 347.061a44.98 44.98 0 01-2.828 15.586h-42.024a88.079 88.079 0 017.133-7.602 11.062 11.062 0 003.473-8.052 11.012 11.012 0 00-3.434-8.062c-13.444-12.847-17.68-33.032-10.538-50.203 3.933-9.461 1.742-20.204-5.587-27.367l-19.539-19.109c-6.761-6.614-6.888-17.455-.274-24.216s17.455-6.878 24.216-.264l19.539 19.109c17.396 17.015 22.602 42.522 13.258 64.997-1.751 4.207-.704 9.148 2.583 12.299 8.934 8.54 14.041 20.526 14.022 32.884z" fill="url(#illustrations--jellyfish__i)"/><path d="M381.472 362.647H347.07a10.987 10.987 0 00-3.219-5.841c-13.444-12.857-17.68-33.032-10.538-50.203 3.933-9.461 1.742-20.205-5.587-27.367l-19.539-19.109c-6.761-6.614-6.878-17.455-.264-24.216 6.604-6.761 17.445-6.878 24.206-.264l19.539 19.109c17.406 17.015 22.611 42.522 13.267 64.987-1.751 4.217-.714 9.158 2.583 12.309 8.377 8.023 13.396 19.059 13.954 30.595z" fill="url(#illustrations--jellyfish__j)"/><path d="M329.194 322.747c.029 12.348-5.078 24.333-14.011 32.875-1.967 1.879-3.131 4.403-3.376 7.025h-34.255c.303-11.8 5.156-23.365 13.962-31.779a10.996 10.996 0 003.434-8.062c0-3.072-1.233-5.929-3.464-8.043-26.594-25.234-35.204-63.608-21.927-97.784l11.017-28.374c3.424-8.816 13.346-13.179 22.161-9.755 8.816 3.424 13.189 13.346 9.765 22.161l-11.027 28.374c-8.219 21.154-2.886 44.91 13.581 60.535 8.964 8.503 14.121 20.469 14.14 32.827z" fill="url(#illustrations--jellyfish__k)"/><path d="M445.224 190.891c0 15.551-3.81 28.838-10.351 40.19-10.969 19.035-32.348 29.177-54.212 27.021a59.717 59.717 0 00-35.815 7.753 57.866 57.866 0 01-29.942 8.333 57.884 57.884 0 01-29.952-8.333c-9.207-5.562-19.579-8.343-29.942-8.343s-20.735 2.781-29.942 8.343c-18.02 11.34-40.907 11.528-59.105.479l-.799-.479a57.645 57.645 0 00-36.128-8.05c-21.808 2.352-43.24-7.997-54.097-27.056-6.425-11.279-10.162-24.459-10.162-39.858C64.776 81.005 148.327 0 255 0s190.224 81.005 190.224 190.891z" fill="url(#illustrations--jellyfish__l)"/><path d="M225.067 265.855a57.877 57.877 0 0129.942-8.343c10.363 0 20.735 2.781 29.942 8.343s19.58 8.333 29.952 8.333a57.873 57.873 0 0029.942-8.333 59.686 59.686 0 0118.369-6.912c10.062-1.985 18.989-7.856 24.212-16.682 1.954-3.302 3.339-6.653 3.339-9.517 0-78.428-59.632-136.243-135.767-136.243s-135.767 57.815-135.767 136.243c0 1.202.153 2.494.421 3.837 2.264 11.339 11.729 19.87 23.19 21.397a57.6 57.6 0 0122.318 7.877l.799.479a56.216 56.216 0 0059.108-.479z" fill="url(#illustrations--jellyfish__m)"/><path d="M64.776 190.891c0 15.399 3.736 28.579 10.162 39.858 10.857 19.059 32.289 29.408 54.097 27.056a57.645 57.645 0 0136.128 8.05l.799.479c18.198 11.049 41.085 10.861 59.105-.479a57.877 57.877 0 0129.942-8.343c10.363 0 20.735 2.781 29.942 8.343s19.58 8.333 29.952 8.333a57.873 57.873 0 0029.942-8.333 59.712 59.712 0 0135.815-7.753c21.864 2.156 43.243-7.986 54.212-27.021 6.541-11.352 10.351-24.639 10.351-40.19 0-6.828-.324-13.544-.955-20.137H65.731a211.31 211.31 0 00-.955 20.137z" fill="url(#illustrations--jellyfish__n)"/><path d="M181.15 74.835c5.546 9.605-2.79 24.801-18.619 33.939s-33.156 8.76-38.702-.845 2.79-24.801 18.619-33.939 33.156-8.761 38.702.845z" fill="url(#illustrations--jellyfish__o)"/><path d="M196.912 32.785c3.039 5.264-1.529 13.592-10.204 18.6s-18.171 4.801-21.21-.463 1.529-13.592 10.204-18.6c8.675-5.009 18.171-4.801 21.21.463z" fill="url(#illustrations--jellyfish__p)"/><path d="M417.565 161.618c-4.298 4.298-13.524 2.041-20.607-5.042s-9.34-16.309-5.042-20.607 13.524-2.041 20.607 5.042 9.341 16.309 5.042 20.607z" fill="url(#illustrations--jellyfish__q)"/></svg>