<svg width="320" height="485" viewBox="0 0 320 485" fill="none" xmlns="http://www.w3.org/2000/svg"><g clip-path="url(#clip0_32_1160)"><path d="M320 464.893v-7.084c0-11.12-9.014-20.134-20.134-20.134 0-13.075-10.6-23.675-23.675-23.675H0v71.027h299.866c11.12 0 20.134-9.014 20.134-20.134z" fill="url(#paint0_linear_32_1160)"/><path d="M33.294 465.537c0 10.764 8.726 19.49 19.49 19.49h247.082c4.299 0 8.275-1.358 11.545-3.653.51-1.77.798-3.635.798-5.568v-7.083c0-11.12-9.015-20.134-20.134-20.134 0-13.076-10.6-23.675-23.675-23.675H33.294v40.623z" fill="url(#paint1_linear_32_1160)"/><path d="M292.074 448.588c0-13.076-10.6-23.675-23.675-23.675H76.237c-21.346 0-38.65 17.304-38.65 38.65l21.464 21.464h240.815c4.299 0 8.275-1.358 11.545-3.653.51-1.77.798-3.635.798-5.568v-7.083c-.001-11.12-9.015-20.135-20.135-20.135z" fill="url(#paint2_linear_32_1160)"/><path d="M244.52 399.814c-2.171 0-4.26.348-6.218.986-2.094-6.832-8.451-11.8-15.969-11.8-9.223 0-16.7 7.477-16.7 16.7 0 1.332.157 2.629.452 3.871-7.871.556-14.085 7.115-14.085 15.127 0 8.376 6.791 15.167 15.166 15.167h37.354c11.06 0 20.025-8.966 20.025-20.026 0-11.059-8.965-20.025-20.025-20.025z" fill="url(#paint3_linear_32_1160)"/><path d="M224.494 419.841c0 .813.049 1.613.144 2.4-.753.106-1.524.159-2.305.159-9.223 0-16.7-7.477-16.7-16.7 0-9.222 7.477-16.699 16.7-16.699 7.517 0 13.876 4.968 15.969 11.8-8.015 2.614-13.808 10.151-13.808 19.04z" fill="url(#paint4_linear_32_1160)"/><path d="M192.116 426.587c.93 7.485 7.313 13.279 15.05 13.279h37.354c8.692 0 16.09-5.539 18.86-13.279h-71.264z" fill="url(#paint5_linear_32_1160)"/><path d="M204.47 449.683h-89.626c-10.752 0-19.324-8.982-18.823-19.721l14.433-309.858h98.408l14.433 309.858c.499 10.739-8.073 19.721-18.825 19.721z" fill="url(#paint6_linear_32_1160)"/><path d="M214.761 246.769l-5.9-126.665h-98.408l-.995 21.363 105.303 105.302z" fill="url(#paint7_linear_32_1160)"/><path d="M207 108.5V62h-59.5l59.5 46.5z" fill="url(#paint8_linear_32_1160)" fill-opacity=".3"/><path d="M221.145 383.935H98.162l3.06-65.742h116.863l3.06 65.742z" fill="url(#paint9_linear_32_1160)"/><path d="M215.026 252.441H104.291l3.06-65.742h104.606l3.069 65.742z" fill="url(#paint10_linear_32_1160)"/><path d="M214.761 246.769l-2.804-60.07h-57.266l60.07 60.07z" fill="url(#paint11_linear_32_1160)"/><path d="M112.369 55.232h94.575v69.039h-94.575v-69.04z" fill="url(#paint12_linear_32_1160)" fill-opacity=".5"/><path d="M207.26 141.731h-95.207c-7.068 0-12.797-5.731-12.797-12.798v-5.968c0-7.068 5.73-12.798 12.797-12.798h95.207c7.069 0 12.798 5.731 12.798 12.798v5.968c0 7.067-5.729 12.798-12.798 12.798z" fill="url(#paint13_linear_32_1160)"/><path d="M158 0c-27.062 0-49 21.083-49 47.09V55h98v-7.91C207.001 21.082 185.063 0 158 0z" fill="url(#paint14_linear_32_1160)"/><path d="M213.749 62.136H105.565a6.31 6.31 0 010-12.62h108.184a6.31 6.31 0 010 12.62z" fill="url(#paint15_linear_32_1160)"/><path d="M102.396 413.907c-2.993 0-5.873.478-8.572 1.358C90.939 405.848 82.177 399 71.813 399c-12.714 0-23.02 10.307-23.02 23.02 0 1.838.216 3.623.623 5.337-10.85.764-19.415 9.808-19.415 20.852 0 11.546 9.36 20.906 20.906 20.906h51.49c15.245 0 27.604-12.359 27.604-27.604s-12.359-27.604-27.604-27.604z" fill="url(#paint16_linear_32_1160)"/><path d="M74.79 441.512c0 1.12.068 2.223.198 3.309-1.039.146-2.1.22-3.178.22-12.714 0-23.018-10.307-23.018-23.021 0-12.711 10.304-23.018 23.018-23.018 10.362 0 19.128 6.848 22.012 16.266-11.047 3.602-19.031 13.989-19.031 26.244z" fill="url(#paint17_linear_32_1160)"/><path d="M30.161 450.811c1.28 10.318 10.08 18.304 20.745 18.304h51.49c11.982 0 22.179-7.635 25.996-18.304H30.161z" fill="url(#paint18_linear_32_1160)"/></g><defs><linearGradient id="paint0_linear_32_1160" x1="160" y1="436.798" x2="160" y2="491.548" gradientUnits="userSpaceOnUse"><stop stop-color="#C6B198"/><stop offset="1" stop-color="#988575"/></linearGradient><linearGradient id="paint1_linear_32_1160" x1="163.153" y1="475.815" x2="257.072" y2="244.369" gradientUnits="userSpaceOnUse"><stop stop-color="#754C24" stop-opacity="0"/><stop offset="1" stop-color="#754C24"/></linearGradient><linearGradient id="paint2_linear_32_1160" x1="189.076" y1="509.549" x2="163.181" y2="427.424" gradientUnits="userSpaceOnUse"><stop stop-color="#754C24" stop-opacity="0"/><stop offset="1" stop-color="#754C24"/></linearGradient><linearGradient id="paint3_linear_32_1160" x1="207.472" y1="400.463" x2="246.762" y2="439.752" gradientUnits="userSpaceOnUse"><stop stop-color="#BADA00"/><stop offset=".219" stop-color="#B6D600"/><stop offset=".45" stop-color="#ACC900"/><stop offset=".687" stop-color="#9AB400"/><stop offset=".927" stop-color="#829700"/><stop offset="1" stop-color="#798C00"/></linearGradient><linearGradient id="paint4_linear_32_1160" x1="222.627" y1="405.623" x2="247.905" y2="400.483" gradientUnits="userSpaceOnUse"><stop stop-color="#43765A" stop-opacity="0"/><stop offset="1" stop-color="#43765A"/></linearGradient><linearGradient id="paint5_linear_32_1160" x1="227.749" y1="429.936" x2="227.749" y2="441.654" gradientUnits="userSpaceOnUse"><stop stop-color="#43765A" stop-opacity="0"/><stop offset="1" stop-color="#43765A"/></linearGradient><linearGradient id="paint6_linear_32_1160" x1="131.603" y1="284.894" x2="173.046" y2="284.894" gradientUnits="userSpaceOnUse"><stop stop-color="#EDF5FF"/><stop offset="1" stop-color="#C7E9FF"/></linearGradient><linearGradient id="paint7_linear_32_1160" x1="174.932" y1="191.008" x2="138.687" y2="52.614" gradientUnits="userSpaceOnUse"><stop stop-color="#2F73A0" stop-opacity="0"/><stop offset="1" stop-color="#2F73A0"/></linearGradient><linearGradient id="paint8_linear_32_1160" x1="171.068" y1="87.989" x2="164.465" y2="30.368" gradientUnits="userSpaceOnUse"><stop stop-color="#2F73A0" stop-opacity="0"/><stop offset="1" stop-color="#2F73A0"/></linearGradient><linearGradient id="paint9_linear_32_1160" x1="99.864" y1="351.063" x2="219.328" y2="351.063" gradientUnits="userSpaceOnUse"><stop stop-color="#F5737F"/><stop offset="1" stop-color="#D96671"/></linearGradient><linearGradient id="paint10_linear_32_1160" x1="105.824" y1="219.571" x2="213.389" y2="219.571" gradientUnits="userSpaceOnUse"><stop stop-color="#F5737F"/><stop offset="1" stop-color="#D96671"/></linearGradient><linearGradient id="paint11_linear_32_1160" x1="193.093" y1="234.643" x2="162.496" y2="84.48" gradientUnits="userSpaceOnUse"><stop stop-color="#843561" stop-opacity="0"/><stop offset="1" stop-color="#3A2F4D"/></linearGradient><linearGradient id="paint12_linear_32_1160" x1="125.389" y1="55.484" x2="162.538" y2="92.633" gradientUnits="userSpaceOnUse"><stop stop-color="#EDF5FF"/><stop offset="1" stop-color="#C7E9FF"/></linearGradient><linearGradient id="paint13_linear_32_1160" x1="159.657" y1="112.503" x2="159.657" y2="140.943" gradientUnits="userSpaceOnUse"><stop stop-color="#DFDFDF"/><stop offset="1" stop-color="#9DA6AC"/></linearGradient><linearGradient id="paint14_linear_32_1160" x1="142.588" y1="16.277" x2="160.285" y2="52.472" gradientUnits="userSpaceOnUse"><stop stop-color="#F5737F"/><stop offset="1" stop-color="#D96671"/></linearGradient><linearGradient id="paint15_linear_32_1160" x1="159.657" y1="50.451" x2="159.657" y2="61.822" gradientUnits="userSpaceOnUse"><stop stop-color="#DFDFDF"/><stop offset="1" stop-color="#9DA6AC"/></linearGradient><linearGradient id="paint16_linear_32_1160" x1="51.328" y1="414.8" x2="105.485" y2="468.958" gradientUnits="userSpaceOnUse"><stop stop-color="#BADA00"/><stop offset=".219" stop-color="#B6D600"/><stop offset=".45" stop-color="#ACC900"/><stop offset=".687" stop-color="#9AB400"/><stop offset=".927" stop-color="#829700"/><stop offset="1" stop-color="#798C00"/></linearGradient><linearGradient id="paint17_linear_32_1160" x1="72.217" y1="421.913" x2="107.062" y2="414.828" gradientUnits="userSpaceOnUse"><stop stop-color="#43765A" stop-opacity="0"/><stop offset="1" stop-color="#43765A"/></linearGradient><linearGradient id="paint18_linear_32_1160" x1="79.277" y1="455.426" x2="79.277" y2="471.58" gradientUnits="userSpaceOnUse"><stop stop-color="#43765A" stop-opacity="0"/><stop offset="1" stop-color="#43765A"/></linearGradient><clipPath id="clip0_32_1160"><path fill="#fff" d="M0 0h320v485H0z"/></clipPath></defs></svg>