<svg height="512" viewBox="0 0 510 510" width="512" xmlns="http://www.w3.org/2000/svg" xmlns:xlink="http://www.w3.org/1999/xlink"><linearGradient id="d" gradientUnits="userSpaceOnUse" x1="442.49" x2="442.49" y1="136.437" y2="191.174"><stop offset="0" stop-color="#feb454"/><stop offset="1" stop-color="#db841d"/></linearGradient><linearGradient id="a"><stop offset="0" stop-color="#db841d" stop-opacity="0"/><stop offset="1" stop-color="#db841d"/></linearGradient><linearGradient id="e" gradientUnits="userSpaceOnUse" x1="445.794" x2="425.426" xlink:href="#a" y1="186.523" y2="160.336"/><linearGradient id="b"><stop offset="0" stop-color="#fef17d"/><stop offset="1" stop-color="#ffd746"/></linearGradient><linearGradient id="f" gradientUnits="userSpaceOnUse" x1="125.165" x2="372.653" xlink:href="#b" y1="138.356" y2="391.843"/><linearGradient id="c"><stop offset="0" stop-color="#feb454" stop-opacity="0"/><stop offset="1" stop-color="#db841d"/></linearGradient><linearGradient id="g" gradientUnits="userSpaceOnUse" x1="220.179" x2="220.179" xlink:href="#c" y1="353" y2="515.117"/><linearGradient id="h" gradientUnits="userSpaceOnUse" x1="299.67" x2="231.776" xlink:href="#a" y1="507.486" y2="300.896"/><linearGradient id="i" gradientUnits="userSpaceOnUse" x1="183.283" x2="249.95" xlink:href="#b" y1="291.245" y2="409.245"/><linearGradient id="j" gradientUnits="userSpaceOnUse" x1="289.369" x2="349.284" y1="111.405" y2="111.405"><stop offset="0" stop-color="#838383"/><stop offset="1" stop-color="#5a5a5a"/></linearGradient><linearGradient id="k" gradientUnits="userSpaceOnUse" x1="220.703" x2="-53.964" xlink:href="#c" y1="340.085" y2="316.752"/><linearGradient id="l" gradientUnits="userSpaceOnUse" x1="247.298" x2="-1.369" xlink:href="#c" y1="323.232" y2="308.565"/><linearGradient id="m" gradientUnits="userSpaceOnUse" x1="237.367" x2="-12.633" xlink:href="#c" y1="145.369" y2="166.369"/><path d="M381.257 82.134c-4.037 8.856-6.278 110.017-6.278 120.257 0 40.576 35.092-17.943 78.38-17.943 13.505 0 26.365-2.912 37.304-8.841 28.429-15.407 22.974-45.001.06-45.001-40.299-.001-91.656-9.688-109.466-48.472z" fill="url(#d)"/><path d="M507.996 152.666c-42.345 3.82-92.501 4.309-131.598-5.382-.93 25.755-1.418 50.328-1.418 55.106 0 40.576 35.092-17.943 78.38-17.943 13.506 0 26.365-2.912 37.304-8.841 11.648-6.313 17.6-15.006 19.001-23.07-.551.037-1.106.08-1.669.13z" fill="url(#e)"/><path d="M405.675 208.335c12.778-20.137 20.299-43.939 20.628-69.476.944-73.112-58.114-133.855-131.225-134.873-74.396-1.035-135.029 58.962-135.029 133.12 0 27.918 8.6 53.825 23.286 75.228-30.641 3.288-59.162 10.904-84.137 21.926-24.891 10.985-53.989 5.362-73.228-13.877C16.387 210.8 0 217.588 0 231.141v24.42c0 154.874 97.387 250.466 217.52 250.466s217.52-66.156 217.52-147.763c0-25.119-9.229-48.772-25.507-69.482-18.206-23.163-19.643-55.572-3.858-80.447z" fill="url(#f)"/><path d="M217.52 506.027c120.133 0 217.52-66.156 217.52-147.763 0-14.737-3.199-28.964-9.113-42.394H5.32c21.847 118.993 108.552 190.157 212.2 190.157z" fill="url(#g)"/><path d="M411.528 425.143L305.427 319.042c-34.136-36.563-90.355-53.731-147.182-40.008a166.94 166.94 0 00-30.48 10.546c-17.703 8.127-27.343 27.799-22.823 46.747l.077.321c5.765 23.874 18.424 44.482 35.707 60.633l107.293 107.293c71.574-6.823 131.973-37.3 163.509-79.431z" fill="url(#h)"/><path d="M156.79 277.58a166.94 166.94 0 00-30.48 10.546c-17.703 8.127-27.344 27.799-22.824 46.746l.077.321c17.275 71.534 96.37 113.805 176.663 94.415a167.051 167.051 0 0030.481-10.546c17.703-8.127 27.343-27.799 22.823-46.746l-.077-.321c-17.274-71.535-96.369-113.806-176.663-94.415z" fill="url(#i)"/><path d="M319.327 149.044c-16.545 0-29.957-13.412-29.957-29.957v-15.363c0-16.545 13.412-29.958 29.957-29.958s29.957 13.412 29.957 29.958v15.363c0 16.544-13.413 29.957-29.957 29.957z" fill="url(#j)"/><path d="M317.091 403.638c4.5-1.087 8.918-2.325 13.259-3.692 4.136-8.347 5.459-18.08 3.181-27.63l-.077-.321c-17.275-71.534-96.37-113.805-176.663-94.415a166.94 166.94 0 00-30.48 10.546c-7.258 3.332-13.157 8.606-17.284 14.973 26.549 78.005 116.654 122.613 208.064 100.539z" fill="url(#k)"/><path d="M156.79 277.58a167.048 167.048 0 00-29.371 10.053c24.184 62.03 97.478 96.926 171.807 78.976a167.02 167.02 0 0029.371-10.053c-24.183-62.031-97.477-96.926-171.807-78.976z" fill="url(#l)"/><path d="M295.078 3.987c-74.396-1.035-135.029 58.962-135.029 133.119 0 27.918 8.6 53.825 23.286 75.228C183.335 212.334 221 269 303 269h95.706c-6.94-19.827-4.686-42.298 6.969-60.665 12.778-20.137 20.299-43.939 20.628-69.476.944-73.112-58.114-133.855-131.225-134.872z" fill="url(#m)"/></svg>