<svg width="512" height="512" viewBox="0 0 512 512" fill="none" xmlns="http://www.w3.org/2000/svg"><g clip-path="url(#illustrations--seaweed__clip0_75_118)"><path d="M214.905 512.192h-46.602a55.768 55.768 0 012.489-6.344c1.667-3.595 1.787-7.61.322-11.295a14.138 14.138 0 00-7.941-8.011c-25.249-10.24-45.388-28.541-57.917-51.26-9.216-16.675-14.336-35.73-14.406-55.718l-.14-39.223c-.02-9.367 5.792-17.398 14.014-20.631a22.246 22.246 0 017.981-1.516c12.188-.04 22.097 9.809 22.137 21.996l.13 39.224c.101 29.254 17.679 55.245 44.775 66.228a57.99 57.99 0 0115.772 9.558c7.308 6.184 13.091 14.135 16.645 23.16 4.257 10.792 5.15 22.618 2.741 33.832z" fill="url(#illustrations--seaweed__paint0_linear_75_118)"/><path d="M329.064 512.192h-46.602a55.768 55.768 0 012.489-6.344c1.667-3.595 1.787-7.61.322-11.295a14.138 14.138 0 00-7.941-8.011c-25.249-10.24-45.388-28.541-57.917-51.26-9.216-16.675-14.336-35.73-14.406-55.718l-.141-39.223c-.02-9.367 5.793-17.398 14.015-20.631a22.246 22.246 0 017.981-1.516c12.188-.04 22.097 9.809 22.137 21.996l.13 39.224c.101 29.254 17.679 55.245 44.775 66.228a57.99 57.99 0 0115.772 9.558c7.308 6.184 13.091 14.135 16.645 23.16 4.257 10.792 5.15 22.618 2.741 33.832z" fill="url(#illustrations--seaweed__paint1_linear_75_118)"/><path d="M344.784 475.198v.472c.03 13.291 4.658 26.232 12.91 36.522h56.401a116.231 116.231 0 00-20.721-26.242c-2.871-2.721-4.458-6.405-4.468-10.371a14.181 14.181 0 014.428-10.38c11.003-10.521 17.217-24.837 17.94-39.565.411-8.463-.994-17.057-4.357-25.138-5.07-12.188-2.249-26.032 7.198-35.258l25.178-24.626c8.714-8.513 8.865-22.488.351-31.202-8.523-8.704-22.487-8.865-31.201-.341l-25.179 24.616c-22.427 21.926-29.134 54.804-17.097 83.757 2.259 5.421.924 11.796-3.323 15.862a58.334 58.334 0 00-13.241 19.085 58.144 58.144 0 00-2.912 8.443 58.017 58.017 0 00-1.907 14.366z" fill="url(#illustrations--seaweed__paint2_linear_75_118)"/><path d="M369.813 475.198v.472c-.03 13.291-4.658 26.232-12.911 36.522h-56.4a116.203 116.203 0 0120.721-26.242c2.871-2.721 4.457-6.405 4.467-10.371a14.184 14.184 0 00-4.427-10.38c-11.003-10.521-17.217-24.837-17.94-39.565-.412-8.463.994-17.057 4.357-25.138 5.07-12.188 2.249-26.032-7.198-35.258l-25.178-24.626c-8.714-8.513-8.865-22.488-.352-31.202 8.523-8.704 22.488-8.865 31.202-.341l25.178 24.616c22.428 21.926 29.134 54.804 17.097 83.757-2.259 5.421-.923 11.796 3.323 15.862a58.337 58.337 0 0113.242 19.085 58.14 58.14 0 012.911 8.443 57.97 57.97 0 011.908 14.366z" fill="url(#illustrations--seaweed__paint3_linear_75_118)"/><path d="M194.85 512.192h54.838l-53.445-127.499c-5.399-12.879-20.216-18.944-33.096-13.545-12.881 5.4-18.944 20.217-13.545 33.097l45.248 107.947z" fill="url(#illustrations--seaweed__paint4_linear_75_118)"/><path d="M293.021 442.791c9.467 22.769 7.338 47.958-4.909 68.337-.201.362-.422.713-.643 1.064h-59.974l2.359-2.309 15.23-14.888c5.551-5.431 8.814-12.448 9.527-19.797a32.102 32.102 0 00-1.908-14.366c-.13-.372-.281-.733-.431-1.105a56.41 56.41 0 01-2.48-7.338c-5.391-20.33.622-42.587 16.063-57.354 2.861-2.741 4.437-6.425 4.427-10.391a14.238 14.238 0 00-4.467-10.37c-34.274-32.507-45.368-81.961-28.261-125.993l14.206-36.562c4.417-11.365 17.197-16.987 28.561-12.58 11.355 4.418 16.987 17.198 12.569 28.562l-14.205 36.563c-10.592 27.256-3.715 57.876 17.498 77.995 11.555 10.962 18.201 26.383 18.231 42.305.031 15.922-6.555 31.362-18.06 42.365-3.905 3.735-5.351 9.407-3.815 14.517.14.452.301.904.482 1.345z" fill="url(#illustrations--seaweed__paint5_linear_75_118)"/><path d="M292.539 441.446c-1.536-5.11-.09-10.782 3.815-14.517 11.505-11.003 18.091-26.443 18.06-42.365-.03-15.922-6.676-31.343-18.231-42.305-21.213-20.119-28.09-50.739-17.498-77.995l14.205-36.563c4.418-11.364-1.214-24.144-12.569-28.561a13.34 13.34 0 00-.18-.07c-5.891-2.226-11.416 4.264-8.308 9.741 3.158 5.567 3.881 12.455 1.379 18.89l-14.205 36.563c-10.591 27.256-3.715 57.876 17.498 77.995 11.555 10.962 18.201 26.383 18.232 42.305.03 15.922-6.556 31.362-18.061 42.365-3.905 3.735-5.351 9.407-3.815 14.517.141.452.301.904.482 1.345 9.467 22.769 7.339 47.958-4.909 68.337-.201.362-.422.713-.643 1.064h19.679c.221-.351.442-.702.643-1.064 12.248-20.379 14.376-45.568 4.909-68.337a16.1 16.1 0 01-.483-1.345z" fill="url(#illustrations--seaweed__paint6_linear_75_118)"/><path d="M254.611 475.198v.472c-.03 13.291-4.658 26.232-12.911 36.522h-56.4a116.231 116.231 0 0120.721-26.242c2.871-2.721 4.457-6.405 4.467-10.371a14.18 14.18 0 00-4.427-10.38c-11.003-10.521-17.217-24.837-17.94-39.565-.412-8.463.994-17.057 4.357-25.138 5.07-12.188 2.249-26.032-7.198-35.258l-25.178-24.626c-8.714-8.513-8.865-22.488-.352-31.202 8.524-8.704 22.488-8.865 31.202-.341l25.179 24.616c22.427 21.926 29.133 54.804 17.096 83.757-2.259 5.421-.923 11.796 3.323 15.862a58.322 58.322 0 0113.242 19.085 58.14 58.14 0 012.911 8.443 57.97 57.97 0 011.908 14.366z" fill="url(#illustrations--seaweed__paint7_linear_75_118)"/><path d="M252.703 460.832a58.26 58.26 0 00-2.911-8.443 58.337 58.337 0 00-13.242-19.085c-4.246-4.066-5.582-10.441-3.323-15.862 12.037-28.953 5.331-61.831-17.097-83.757l-25.178-24.616c-7.995-7.821-20.399-8.309-28.976-1.616.64.5 1.265 1.034 1.86 1.616l25.178 24.616c22.428 21.926 29.134 54.804 17.097 83.757-2.259 5.421-.923 11.796 3.323 15.862a58.337 58.337 0 0113.242 19.085 58.14 58.14 0 012.911 8.443 57.97 57.97 0 011.908 14.366v.472c-.03 13.292-4.658 26.232-12.911 36.522H241.7c8.252-10.29 12.881-23.23 12.911-36.522v-.472a57.97 57.97 0 00-1.908-14.366z" fill="url(#illustrations--seaweed__paint8_linear_75_118)"/><path d="M413.953 438.143l-31.252 16.254c-11.706 6.083-18.432 18.512-17.117 31.643.894 9.015-.371 17.94-3.453 26.152h-59.623a57.902 57.902 0 0111.374-7.559c5.241-2.65 8.373-8.363 7.791-14.216-3.112-31.202 12.85-60.707 40.669-75.173l15.952-8.303 15.3-7.951c10.812-5.612 24.134-1.405 29.756 9.397 5.622 10.812 1.415 24.134-9.397 29.756z" fill="url(#illustrations--seaweed__paint9_linear_75_118)"/><path d="M406.854 417.73l-15.299 7.951-15.953 8.303c-27.818 14.466-43.781 43.972-40.669 75.174a14.1 14.1 0 01-.032 3.034h27.23c3.082-8.212 4.347-17.137 3.453-26.152-1.315-13.131 5.411-25.56 17.117-31.643l31.252-16.254a22.04 22.04 0 004.835-3.401c8.807-8.168-1.038-22.542-11.75-17.107l-.184.095z" fill="url(#illustrations--seaweed__paint10_linear_75_118)"/><path d="M232.735 512.192h-59.613c-3.092-8.212-4.357-17.137-3.453-26.152 1.305-13.131-5.411-25.56-17.127-31.643L121.3 438.143c-10.812-5.622-15.019-18.944-9.397-29.756 5.622-10.802 18.944-15.009 29.757-9.397l31.242 16.254a77.026 77.026 0 0115.219 10.39c18.231 15.953 27.949 39.826 25.459 64.783-.582 5.853 2.55 11.566 7.791 14.216a58.644 58.644 0 018.483 5.25 53.494 53.494 0 012.881 2.309z" fill="url(#illustrations--seaweed__paint11_linear_75_118)"/><path d="M229.854 509.883a58.644 58.644 0 00-8.483-5.25c-5.241-2.65-8.373-8.363-7.791-14.216 2.49-24.957-7.228-48.83-25.459-64.783a77.026 77.026 0 00-15.219-10.39L141.66 398.99c-8.027-4.165-17.433-2.917-24.048 2.42l26.591 13.835a77.004 77.004 0 0115.22 10.39c18.231 15.953 27.949 39.826 25.459 64.783-.582 5.853 2.55 11.566 7.791 14.216a58.698 58.698 0 018.483 5.25 53.494 53.494 0 012.881 2.309h28.698a53.024 53.024 0 00-2.881-2.31z" fill="url(#illustrations--seaweed__paint12_linear_75_118)"/><path d="M378.294 406.941c-8.624 24.476-25.47 45.839-48.69 60.095a14.177 14.177 0 00-6.516 9.216 14.172 14.172 0 002.179 11.083c5.16 7.55 8.342 16.083 9.547 24.857h-46c-.24-.351-.471-.702-.702-1.064-8.433-12.961-11.415-28.953-8.182-44.092 2.028-9.487 6.415-18.282 12.609-25.59a58.024 58.024 0 0113.985-12.017c24.917-15.3 37.978-43.831 33.26-72.694l-6.325-38.711c-1.968-12.027 6.184-23.372 18.211-25.339a21.993 21.993 0 018.122.181c8.643 1.837 15.701 8.794 17.217 18.04l6.325 38.711c3.222 19.727 1.305 39.364-5.04 57.324z" fill="url(#illustrations--seaweed__paint13_linear_75_118)"/><path d="M383.333 349.617l-6.324-38.711c-1.516-9.246-8.574-16.203-17.218-18.04a21.988 21.988 0 00-8.215-.166c-3.753.63-5.401 5.137-3.044 8.126a21.985 21.985 0 014.433 10.079l6.325 38.711c3.222 19.727 1.305 39.364-5.04 57.324-8.624 24.476-25.47 45.839-48.69 60.095a14.17 14.17 0 00-6.516 9.216 14.172 14.172 0 002.179 11.083c5.16 7.55 8.342 16.083 9.547 24.857h24.044c-1.205-8.774-4.387-17.307-9.547-24.857a14.172 14.172 0 01-2.179-11.083 14.17 14.17 0 016.516-9.216c23.22-14.256 40.066-35.619 48.69-60.095 6.345-17.959 8.262-37.596 5.039-57.323z" fill="url(#illustrations--seaweed__paint14_linear_75_118)"/><path d="M248.784 447.814a57.76 57.76 0 001.008 4.575 59.387 59.387 0 00-2.226-4.575H139.89l12.652 6.583c11.716 6.083 18.432 18.512 17.127 31.643-.904 9.016.361 17.94 3.453 26.152h189.009c3.082-8.212 4.347-17.136 3.453-26.152-1.315-13.131 5.411-25.56 17.117-31.643l12.657-6.583H248.784z" fill="url(#illustrations--seaweed__paint15_linear_75_118)"/><path d="M179.251 282.35c15.594 0 28.236-12.641 28.236-28.235s-12.642-28.235-28.236-28.235c-15.594 0-28.235 12.641-28.235 28.235s12.641 28.235 28.235 28.235z" fill="url(#illustrations--seaweed__paint16_linear_75_118)"/><path d="M325.837 286.853c9.041 0 16.369-7.329 16.369-16.369s-7.328-16.369-16.369-16.369c-9.04 0-16.369 7.329-16.369 16.369s7.329 16.369 16.369 16.369z" fill="url(#illustrations--seaweed__paint17_linear_75_118)"/><path d="M51.369 444.307c9.04 0 16.369-7.328 16.369-16.369 0-9.04-7.329-16.369-16.37-16.369-9.04 0-16.368 7.329-16.368 16.369 0 9.041 7.329 16.369 16.369 16.369z" fill="url(#illustrations--seaweed__paint18_linear_75_118)"/><path d="M459.972 404.44c9.04 0 16.369-7.328 16.369-16.369 0-9.04-7.329-16.369-16.369-16.369s-16.369 7.329-16.369 16.369c0 9.041 7.329 16.369 16.369 16.369z" fill="url(#illustrations--seaweed__paint19_linear_75_118)"/><path d="M210.361 225.107c9.04 0 16.369-7.329 16.369-16.369s-7.329-16.369-16.369-16.369-16.369 7.329-16.369 16.369 7.329 16.369 16.369 16.369z" fill="url(#illustrations--seaweed__paint20_linear_75_118)"/><path d="M113.591 208.738c9.04 0 16.369-7.329 16.369-16.369S122.631 176 113.591 176s-16.369 7.329-16.369 16.369 7.329 16.369 16.369 16.369z" fill="url(#illustrations--seaweed__paint21_linear_75_118)"/></g><defs><linearGradient id="illustrations--seaweed__paint0_linear_75_118" x1="179.832" y1="431.746" x2="64.169" y2="379.897" gradientUnits="userSpaceOnUse"><stop stop-color="#68CA44" stop-opacity="0"/><stop offset=".23" stop-color="#5DBF38" stop-opacity=".23"/><stop offset=".676" stop-color="#4DAE27" stop-opacity=".676"/><stop offset="1" stop-color="#47A920"/></linearGradient><linearGradient id="illustrations--seaweed__paint1_linear_75_118" x1="293.991" y1="431.746" x2="178.329" y2="379.897" gradientUnits="userSpaceOnUse"><stop stop-color="#68CA44" stop-opacity="0"/><stop offset=".23" stop-color="#5DBF38" stop-opacity=".23"/><stop offset=".676" stop-color="#4DAE27" stop-opacity=".676"/><stop offset="1" stop-color="#47A920"/></linearGradient><linearGradient id="illustrations--seaweed__paint2_linear_75_118" x1="401.225" y1="414.144" x2="346.01" y2="338.85" gradientUnits="userSpaceOnUse"><stop stop-color="#68CA44" stop-opacity="0"/><stop offset=".23" stop-color="#5DBF38" stop-opacity=".23"/><stop offset=".676" stop-color="#4DAE27" stop-opacity=".676"/><stop offset="1" stop-color="#47A920"/></linearGradient><linearGradient id="illustrations--seaweed__paint3_linear_75_118" x1="313.371" y1="414.144" x2="368.587" y2="338.85" gradientUnits="userSpaceOnUse"><stop stop-color="#68CA44" stop-opacity="0"/><stop offset=".23" stop-color="#5DBF38" stop-opacity=".23"/><stop offset=".676" stop-color="#4DAE27" stop-opacity=".676"/><stop offset="1" stop-color="#47A920"/></linearGradient><linearGradient id="illustrations--seaweed__paint4_linear_75_118" x1="220.023" y1="455.675" x2="130.594" y2="415.586" gradientUnits="userSpaceOnUse"><stop stop-color="#68CA44" stop-opacity="0"/><stop offset=".23" stop-color="#5DBF38" stop-opacity=".23"/><stop offset=".676" stop-color="#4DAE27" stop-opacity=".676"/><stop offset="1" stop-color="#47A920"/></linearGradient><linearGradient id="illustrations--seaweed__paint5_linear_75_118" x1="227.495" y1="354.915" x2="314.414" y2="354.915" gradientUnits="userSpaceOnUse"><stop stop-color="#ADE194"/><stop offset="1" stop-color="#68CA44"/></linearGradient><linearGradient id="illustrations--seaweed__paint6_linear_75_118" x1="326.229" y1="290.138" x2="227.844" y2="431.691" gradientUnits="userSpaceOnUse"><stop stop-color="#68CA44" stop-opacity="0"/><stop offset="1" stop-color="#47A920"/></linearGradient><linearGradient id="illustrations--seaweed__paint7_linear_75_118" x1="153.465" y1="407.485" x2="254.611" y2="407.485" gradientUnits="userSpaceOnUse"><stop stop-color="#ADE194"/><stop offset="1" stop-color="#68CA44"/></linearGradient><linearGradient id="illustrations--seaweed__paint8_linear_75_118" x1="181.926" y1="367.314" x2="254.208" y2="483.1" gradientUnits="userSpaceOnUse"><stop stop-color="#68CA44" stop-opacity="0"/><stop offset="1" stop-color="#47A920"/></linearGradient><linearGradient id="illustrations--seaweed__paint9_linear_75_118" x1="302.508" y1="454.347" x2="425.843" y2="454.347" gradientUnits="userSpaceOnUse"><stop stop-color="#ADE194"/><stop offset="1" stop-color="#68CA44"/></linearGradient><linearGradient id="illustrations--seaweed__paint10_linear_75_118" x1="347.718" y1="457.886" x2="416.863" y2="474.847" gradientUnits="userSpaceOnUse"><stop stop-color="#68CA44" stop-opacity="0"/><stop offset="1" stop-color="#47A920"/></linearGradient><linearGradient id="illustrations--seaweed__paint11_linear_75_118" x1="109.411" y1="454.347" x2="232.735" y2="454.347" gradientUnits="userSpaceOnUse"><stop stop-color="#ADE194"/><stop offset="1" stop-color="#68CA44"/></linearGradient><linearGradient id="illustrations--seaweed__paint12_linear_75_118" x1="150.357" y1="418.245" x2="195.869" y2="471.789" gradientUnits="userSpaceOnUse"><stop stop-color="#68CA44" stop-opacity="0"/><stop offset="1" stop-color="#47A920"/></linearGradient><linearGradient id="illustrations--seaweed__paint13_linear_75_118" x1="278.655" y1="402.292" x2="384.872" y2="402.292" gradientUnits="userSpaceOnUse"><stop stop-color="#ADE194"/><stop offset="1" stop-color="#68CA44"/></linearGradient><linearGradient id="illustrations--seaweed__paint14_linear_75_118" x1="410.19" y1="360.673" x2="304.444" y2="426.263" gradientUnits="userSpaceOnUse"><stop stop-color="#68CA44" stop-opacity="0"/><stop offset="1" stop-color="#47A920"/></linearGradient><linearGradient id="illustrations--seaweed__paint15_linear_75_118" x1="267.624" y1="451.161" x2="267.624" y2="489.985" gradientUnits="userSpaceOnUse"><stop stop-color="#68CA44" stop-opacity="0"/><stop offset=".23" stop-color="#5DBF38" stop-opacity=".23"/><stop offset=".676" stop-color="#4DAE27" stop-opacity=".676"/><stop offset="1" stop-color="#47A920"/></linearGradient><linearGradient id="illustrations--seaweed__paint16_linear_75_118" x1="167.652" y1="242.515" x2="207.207" y2="282.069" gradientUnits="userSpaceOnUse"><stop stop-color="#EDF5FF"/><stop offset="1" stop-color="#C7E9FF"/></linearGradient><linearGradient id="illustrations--seaweed__paint17_linear_75_118" x1="316.634" y1="261.281" x2="334.215" y2="278.862" gradientUnits="userSpaceOnUse"><stop stop-color="#EDF5FF"/><stop offset="1" stop-color="#C7E9FF"/></linearGradient><linearGradient id="illustrations--seaweed__paint18_linear_75_118" x1="42.167" y1="418.736" x2="59.748" y2="436.317" gradientUnits="userSpaceOnUse"><stop stop-color="#EDF5FF"/><stop offset="1" stop-color="#C7E9FF"/></linearGradient><linearGradient id="illustrations--seaweed__paint19_linear_75_118" x1="450.77" y1="378.869" x2="468.351" y2="396.45" gradientUnits="userSpaceOnUse"><stop stop-color="#EDF5FF"/><stop offset="1" stop-color="#C7E9FF"/></linearGradient><linearGradient id="illustrations--seaweed__paint20_linear_75_118" x1="201.159" y1="199.536" x2="218.74" y2="217.117" gradientUnits="userSpaceOnUse"><stop stop-color="#EDF5FF"/><stop offset="1" stop-color="#C7E9FF"/></linearGradient><linearGradient id="illustrations--seaweed__paint21_linear_75_118" x1="104.389" y1="183.167" x2="121.97" y2="200.748" gradientUnits="userSpaceOnUse"><stop stop-color="#EDF5FF"/><stop offset="1" stop-color="#C7E9FF"/></linearGradient><clipPath id="illustrations--seaweed__clip0_75_118"><path fill="#fff" d="M0 0h512v512H0z"/></clipPath></defs></svg>