<svg width="512" height="512" viewBox="0 0 512 512" fill="none" xmlns="http://www.w3.org/2000/svg">
<g clip-path="url(#clip0_75_118)">
<path d="M214.905 512.192H168.303C168.995 510.044 169.829 507.926 170.792 505.848C172.459 502.253 172.579 498.238 171.114 494.553C169.668 490.869 166.837 488.018 163.173 486.542C137.924 476.302 117.785 458.001 105.256 435.282C96.0403 418.607 90.9203 399.552 90.8501 379.564L90.7095 340.341C90.6894 330.974 96.5022 322.943 104.724 319.71C107.204 318.737 109.894 318.215 112.705 318.194C124.893 318.154 134.802 328.003 134.842 340.19L134.972 379.414C135.073 408.668 152.651 434.659 179.747 445.642C185.52 447.981 190.841 451.224 195.519 455.2C202.827 461.384 208.61 469.335 212.164 478.36C216.421 489.152 217.314 500.978 214.905 512.192V512.192Z" fill="url(#paint0_linear_75_118)"/>
<path d="M329.064 512.192H282.462C283.154 510.044 283.988 507.926 284.951 505.848C286.618 502.253 286.738 498.238 285.273 494.553C283.827 490.869 280.996 488.018 277.332 486.542C252.083 476.302 231.944 458.001 219.415 435.282C210.199 418.607 205.079 399.552 205.009 379.564L204.868 340.341C204.848 330.974 210.661 322.943 218.883 319.71C221.363 318.737 224.053 318.215 226.864 318.194C239.052 318.154 248.961 328.003 249.001 340.19L249.131 379.414C249.232 408.668 266.81 434.659 293.906 445.642C299.679 447.981 305 451.224 309.678 455.2C316.986 461.384 322.769 469.335 326.323 478.36C330.58 489.152 331.473 500.978 329.064 512.192V512.192Z" fill="url(#paint1_linear_75_118)"/>
<path d="M344.784 475.198V475.67C344.814 488.961 349.442 501.902 357.694 512.192H414.095C408.593 502.665 401.666 493.81 393.374 485.95C390.503 483.229 388.916 479.545 388.906 475.579C388.896 471.624 390.472 467.929 393.334 465.199C404.337 454.678 410.551 440.362 411.274 425.634C411.685 417.171 410.28 408.577 406.917 400.496C401.847 388.308 404.668 374.464 414.115 365.238L439.293 340.612C448.007 332.099 448.158 318.124 439.644 309.41C431.121 300.706 417.157 300.545 408.443 309.069L383.264 333.685C360.837 355.611 354.13 388.489 366.167 417.442C368.426 422.863 367.091 429.238 362.844 433.304C357.152 438.745 352.675 445.261 349.603 452.389C348.418 455.119 347.444 457.95 346.691 460.832C345.467 465.5 344.814 470.319 344.784 475.198V475.198Z" fill="url(#paint2_linear_75_118)"/>
<path d="M369.813 475.198V475.67C369.783 488.961 365.155 501.902 356.902 512.192H300.502C306.003 502.665 312.931 493.81 321.223 485.95C324.094 483.229 325.68 479.545 325.69 475.579C325.7 471.624 324.124 467.929 321.263 465.199C310.26 454.678 304.046 440.362 303.323 425.634C302.911 417.171 304.317 408.577 307.68 400.496C312.75 388.308 309.929 374.464 300.482 365.238L275.304 340.612C266.59 332.099 266.439 318.124 274.952 309.41C283.475 300.706 297.44 300.545 306.154 309.069L331.332 333.685C353.76 355.611 360.466 388.489 348.429 417.442C346.17 422.863 347.506 429.238 351.752 433.304C357.444 438.745 361.922 445.261 364.994 452.389C366.179 455.119 367.152 457.95 367.905 460.832C369.13 465.5 369.783 470.319 369.813 475.198V475.198Z" fill="url(#paint3_linear_75_118)"/>
<path d="M194.85 512.192H249.688L196.243 384.693C190.844 371.814 176.027 365.749 163.147 371.148C150.266 376.548 144.203 391.365 149.602 404.245L194.85 512.192Z" fill="url(#paint4_linear_75_118)"/>
<path d="M293.021 442.791C302.488 465.56 300.359 490.749 288.112 511.128C287.911 511.49 287.69 511.841 287.469 512.192H227.495L229.854 509.883L245.084 494.995C250.635 489.564 253.898 482.547 254.611 475.198C255.073 470.429 254.46 465.53 252.703 460.832C252.573 460.46 252.422 460.099 252.272 459.727C251.268 457.318 250.445 454.868 249.792 452.389C244.401 432.059 250.414 409.802 265.855 395.035C268.716 392.294 270.292 388.61 270.282 384.644C270.272 380.689 268.686 377.004 265.815 374.274C231.541 341.767 220.447 292.313 237.554 248.281L251.76 211.719C256.177 200.354 268.957 194.732 280.321 199.139C291.676 203.557 297.308 216.337 292.89 227.701L278.685 264.264C268.093 291.52 274.97 322.14 296.183 342.259C307.738 353.221 314.384 368.642 314.414 384.564C314.445 400.486 307.859 415.926 296.354 426.929C292.449 430.664 291.003 436.336 292.539 441.446C292.679 441.898 292.84 442.35 293.021 442.791V442.791Z" fill="url(#paint5_linear_75_118)"/>
<path d="M292.539 441.446C291.003 436.336 292.449 430.664 296.354 426.929C307.859 415.926 314.445 400.486 314.414 384.564C314.384 368.642 307.738 353.221 296.183 342.259C274.97 322.14 268.093 291.52 278.685 264.264L292.89 227.701C297.308 216.337 291.676 203.557 280.321 199.14C280.261 199.116 280.201 199.093 280.141 199.07C274.25 196.844 268.725 203.334 271.833 208.811C274.991 214.378 275.714 221.266 273.212 227.701L259.007 264.264C248.416 291.52 255.292 322.14 276.505 342.259C288.06 353.221 294.706 368.642 294.737 384.564C294.767 400.486 288.181 415.926 276.676 426.929C272.771 430.664 271.325 436.336 272.861 441.446C273.002 441.898 273.162 442.35 273.343 442.791C282.81 465.56 280.682 490.749 268.434 511.128C268.233 511.49 268.012 511.841 267.791 512.192H287.47C287.691 511.841 287.912 511.49 288.113 511.128C300.361 490.749 302.489 465.56 293.022 442.791C292.84 442.35 292.68 441.898 292.539 441.446Z" fill="url(#paint6_linear_75_118)"/>
<path d="M254.611 475.198V475.67C254.581 488.961 249.953 501.902 241.7 512.192H185.3C190.802 502.665 197.729 493.81 206.021 485.95C208.892 483.229 210.478 479.545 210.488 475.579C210.499 471.624 208.922 467.929 206.061 465.199C195.058 454.678 188.844 440.362 188.121 425.634C187.709 417.171 189.115 408.577 192.478 400.496C197.548 388.308 194.727 374.464 185.28 365.238L160.102 340.612C151.388 332.099 151.237 318.124 159.75 309.41C168.274 300.706 182.238 300.545 190.952 309.069L216.131 333.685C238.558 355.611 245.264 388.489 233.227 417.442C230.968 422.863 232.304 429.238 236.55 433.304C242.243 438.745 246.72 445.261 249.792 452.389C250.977 455.119 251.95 457.95 252.703 460.832C253.928 465.5 254.581 470.319 254.611 475.198V475.198Z" fill="url(#paint7_linear_75_118)"/>
<path d="M252.703 460.832C251.95 457.95 250.976 455.119 249.792 452.389C246.72 445.261 242.242 438.745 236.55 433.304C232.304 429.238 230.968 422.863 233.227 417.442C245.264 388.489 238.558 355.611 216.13 333.685L190.952 309.069C182.957 301.248 170.553 300.76 161.976 307.453C162.616 307.953 163.241 308.487 163.836 309.069L189.014 333.685C211.442 355.611 218.148 388.489 206.111 417.442C203.852 422.863 205.188 429.238 209.434 433.304C215.126 438.745 219.604 445.261 222.676 452.389C223.861 455.119 224.834 457.95 225.587 460.832C226.812 465.5 227.465 470.319 227.495 475.198V475.67C227.465 488.962 222.837 501.902 214.584 512.192H241.7C249.952 501.902 254.581 488.962 254.611 475.67V475.198C254.581 470.319 253.928 465.5 252.703 460.832Z" fill="url(#paint8_linear_75_118)"/>
<path d="M413.953 438.143L382.701 454.397C370.995 460.48 364.269 472.909 365.584 486.04C366.478 495.055 365.213 503.98 362.131 512.192H302.508C305.971 509.251 309.786 506.701 313.882 504.633C319.123 501.983 322.255 496.27 321.673 490.417C318.561 459.215 334.523 429.71 362.342 415.244L378.294 406.941L393.594 398.99C404.406 393.378 417.728 397.585 423.35 408.387C428.972 419.199 424.765 432.521 413.953 438.143V438.143Z" fill="url(#paint9_linear_75_118)"/>
<path d="M406.854 417.73L391.555 425.681L375.602 433.984C347.784 448.45 331.821 477.956 334.933 509.158C335.035 510.18 335.017 511.196 334.901 512.192H362.131C365.213 503.98 366.478 495.055 365.584 486.04C364.269 472.909 370.995 460.48 382.701 454.397L413.953 438.143C415.753 437.208 417.369 436.058 418.788 434.742C427.595 426.574 417.75 412.2 407.038 417.635C406.977 417.667 406.916 417.698 406.854 417.73V417.73Z" fill="url(#paint10_linear_75_118)"/>
<path d="M232.735 512.192H173.122C170.03 503.98 168.765 495.055 169.669 486.04C170.974 472.909 164.258 460.48 152.542 454.397L121.3 438.143C110.488 432.521 106.281 419.199 111.903 408.387C117.525 397.585 130.847 393.378 141.66 398.99L172.902 415.244C178.473 418.145 183.563 421.639 188.121 425.634C206.352 441.587 216.07 465.46 213.58 490.417C212.998 496.27 216.13 501.983 221.371 504.633C224.363 506.149 227.194 507.906 229.854 509.883C230.848 510.626 231.802 511.389 232.735 512.192V512.192Z" fill="url(#paint11_linear_75_118)"/>
<path d="M229.854 509.883C227.194 507.906 224.363 506.149 221.371 504.633C216.13 501.983 212.998 496.27 213.58 490.417C216.07 465.46 206.352 441.587 188.121 425.634C183.563 421.639 178.473 418.145 172.902 415.244L141.66 398.99C133.633 394.825 124.227 396.073 117.612 401.41L144.203 415.245C149.775 418.146 154.865 421.64 159.423 425.635C177.654 441.588 187.372 465.461 184.882 490.418C184.3 496.271 187.432 501.984 192.673 504.634C195.664 506.15 198.496 507.907 201.156 509.884C202.15 510.627 203.104 511.39 204.037 512.193H232.735C231.802 511.389 230.848 510.626 229.854 509.883V509.883Z" fill="url(#paint12_linear_75_118)"/>
<path d="M378.294 406.941C369.67 431.417 352.824 452.78 329.604 467.036C326.231 469.104 323.912 472.377 323.088 476.252C322.255 480.127 323.028 484.062 325.267 487.335C330.427 494.885 333.609 503.418 334.814 512.192H288.814C288.574 511.841 288.343 511.49 288.112 511.128C279.679 498.167 276.697 482.175 279.93 467.036C281.958 457.549 286.345 448.754 292.539 441.446C296.504 436.758 301.213 432.682 306.524 429.429C331.441 414.129 344.502 385.598 339.784 356.735L333.459 318.024C331.491 305.997 339.643 294.652 351.67 292.685C354.451 292.233 357.192 292.313 359.792 292.866C368.435 294.703 375.493 301.66 377.009 310.906L383.334 349.617C386.556 369.344 384.639 388.981 378.294 406.941Z" fill="url(#paint13_linear_75_118)"/>
<path d="M383.333 349.617L377.009 310.906C375.493 301.66 368.435 294.703 359.791 292.866C357.191 292.313 354.451 292.233 351.67 292.685C351.639 292.69 351.608 292.695 351.576 292.7C347.823 293.33 346.175 297.837 348.532 300.826C350.768 303.663 352.338 307.088 352.965 310.905L359.29 349.616C362.512 369.343 360.595 388.98 354.25 406.94C345.626 431.416 328.78 452.779 305.56 467.035C302.186 469.103 299.867 472.376 299.044 476.251C298.211 480.126 298.984 484.061 301.223 487.334C306.383 494.884 309.565 503.417 310.77 512.191H334.814C333.609 503.417 330.427 494.884 325.267 487.334C323.028 484.061 322.255 480.126 323.088 476.251C323.911 472.376 326.23 469.103 329.604 467.035C352.824 452.779 369.67 431.416 378.294 406.94C384.639 388.981 386.556 369.344 383.333 349.617V349.617Z" fill="url(#paint14_linear_75_118)"/>
<path d="M248.784 447.814C249.06 449.347 249.39 450.873 249.792 452.389C249.12 450.831 248.369 449.309 247.566 447.814H139.89L152.542 454.397C164.258 460.48 170.974 472.909 169.669 486.04C168.765 495.056 170.03 503.98 173.122 512.192H362.131C365.213 503.98 366.478 495.056 365.584 486.04C364.269 472.909 370.995 460.48 382.701 454.397L395.358 447.814H248.784Z" fill="url(#paint15_linear_75_118)"/>
<path d="M179.251 282.35C194.845 282.35 207.487 269.709 207.487 254.115C207.487 238.521 194.845 225.88 179.251 225.88C163.657 225.88 151.016 238.521 151.016 254.115C151.016 269.709 163.657 282.35 179.251 282.35Z" fill="url(#paint16_linear_75_118)"/>
<path d="M325.837 286.853C334.878 286.853 342.206 279.524 342.206 270.484C342.206 261.444 334.878 254.115 325.837 254.115C316.797 254.115 309.468 261.444 309.468 270.484C309.468 279.524 316.797 286.853 325.837 286.853Z" fill="url(#paint17_linear_75_118)"/>
<path d="M51.3689 444.307C60.4093 444.307 67.7379 436.979 67.7379 427.938C67.7379 418.898 60.4093 411.569 51.3689 411.569C42.3286 411.569 35 418.898 35 427.938C35 436.979 42.3286 444.307 51.3689 444.307Z" fill="url(#paint18_linear_75_118)"/>
<path d="M459.972 404.44C469.012 404.44 476.341 397.112 476.341 388.071C476.341 379.031 469.012 371.702 459.972 371.702C450.932 371.702 443.603 379.031 443.603 388.071C443.603 397.112 450.932 404.44 459.972 404.44Z" fill="url(#paint19_linear_75_118)"/>
<path d="M210.361 225.107C219.401 225.107 226.73 217.778 226.73 208.738C226.73 199.698 219.401 192.369 210.361 192.369C201.321 192.369 193.992 199.698 193.992 208.738C193.992 217.778 201.321 225.107 210.361 225.107Z" fill="url(#paint20_linear_75_118)"/>
<path d="M113.591 208.738C122.631 208.738 129.96 201.409 129.96 192.369C129.96 183.329 122.631 176 113.591 176C104.551 176 97.2222 183.329 97.2222 192.369C97.2222 201.409 104.551 208.738 113.591 208.738Z" fill="url(#paint21_linear_75_118)"/>
</g>
<defs>
<linearGradient id="paint0_linear_75_118" x1="179.832" y1="431.746" x2="64.1689" y2="379.897" gradientUnits="userSpaceOnUse">
<stop stop-color="#68CA44" stop-opacity="0"/>
<stop offset="0.2297" stop-color="#5DBF38" stop-opacity="0.23"/>
<stop offset="0.676" stop-color="#4DAE27" stop-opacity="0.676"/>
<stop offset="1" stop-color="#47A920"/>
</linearGradient>
<linearGradient id="paint1_linear_75_118" x1="293.991" y1="431.746" x2="178.329" y2="379.897" gradientUnits="userSpaceOnUse">
<stop stop-color="#68CA44" stop-opacity="0"/>
<stop offset="0.2297" stop-color="#5DBF38" stop-opacity="0.23"/>
<stop offset="0.676" stop-color="#4DAE27" stop-opacity="0.676"/>
<stop offset="1" stop-color="#47A920"/>
</linearGradient>
<linearGradient id="paint2_linear_75_118" x1="401.225" y1="414.144" x2="346.01" y2="338.85" gradientUnits="userSpaceOnUse">
<stop stop-color="#68CA44" stop-opacity="0"/>
<stop offset="0.2297" stop-color="#5DBF38" stop-opacity="0.23"/>
<stop offset="0.676" stop-color="#4DAE27" stop-opacity="0.676"/>
<stop offset="1" stop-color="#47A920"/>
</linearGradient>
<linearGradient id="paint3_linear_75_118" x1="313.371" y1="414.144" x2="368.587" y2="338.85" gradientUnits="userSpaceOnUse">
<stop stop-color="#68CA44" stop-opacity="0"/>
<stop offset="0.2297" stop-color="#5DBF38" stop-opacity="0.23"/>
<stop offset="0.676" stop-color="#4DAE27" stop-opacity="0.676"/>
<stop offset="1" stop-color="#47A920"/>
</linearGradient>
<linearGradient id="paint4_linear_75_118" x1="220.023" y1="455.675" x2="130.594" y2="415.586" gradientUnits="userSpaceOnUse">
<stop stop-color="#68CA44" stop-opacity="0"/>
<stop offset="0.2297" stop-color="#5DBF38" stop-opacity="0.23"/>
<stop offset="0.676" stop-color="#4DAE27" stop-opacity="0.676"/>
<stop offset="1" stop-color="#47A920"/>
</linearGradient>
<linearGradient id="paint5_linear_75_118" x1="227.495" y1="354.915" x2="314.414" y2="354.915" gradientUnits="userSpaceOnUse">
<stop stop-color="#ADE194"/>
<stop offset="1" stop-color="#68CA44"/>
</linearGradient>
<linearGradient id="paint6_linear_75_118" x1="326.229" y1="290.138" x2="227.844" y2="431.691" gradientUnits="userSpaceOnUse">
<stop stop-color="#68CA44" stop-opacity="0"/>
<stop offset="1" stop-color="#47A920"/>
</linearGradient>
<linearGradient id="paint7_linear_75_118" x1="153.465" y1="407.485" x2="254.611" y2="407.485" gradientUnits="userSpaceOnUse">
<stop stop-color="#ADE194"/>
<stop offset="1" stop-color="#68CA44"/>
</linearGradient>
<linearGradient id="paint8_linear_75_118" x1="181.926" y1="367.314" x2="254.208" y2="483.1" gradientUnits="userSpaceOnUse">
<stop stop-color="#68CA44" stop-opacity="0"/>
<stop offset="1" stop-color="#47A920"/>
</linearGradient>
<linearGradient id="paint9_linear_75_118" x1="302.508" y1="454.347" x2="425.843" y2="454.347" gradientUnits="userSpaceOnUse">
<stop stop-color="#ADE194"/>
<stop offset="1" stop-color="#68CA44"/>
</linearGradient>
<linearGradient id="paint10_linear_75_118" x1="347.718" y1="457.886" x2="416.863" y2="474.847" gradientUnits="userSpaceOnUse">
<stop stop-color="#68CA44" stop-opacity="0"/>
<stop offset="1" stop-color="#47A920"/>
</linearGradient>
<linearGradient id="paint11_linear_75_118" x1="109.411" y1="454.347" x2="232.735" y2="454.347" gradientUnits="userSpaceOnUse">
<stop stop-color="#ADE194"/>
<stop offset="1" stop-color="#68CA44"/>
</linearGradient>
<linearGradient id="paint12_linear_75_118" x1="150.357" y1="418.245" x2="195.869" y2="471.789" gradientUnits="userSpaceOnUse">
<stop stop-color="#68CA44" stop-opacity="0"/>
<stop offset="1" stop-color="#47A920"/>
</linearGradient>
<linearGradient id="paint13_linear_75_118" x1="278.655" y1="402.292" x2="384.872" y2="402.292" gradientUnits="userSpaceOnUse">
<stop stop-color="#ADE194"/>
<stop offset="1" stop-color="#68CA44"/>
</linearGradient>
<linearGradient id="paint14_linear_75_118" x1="410.19" y1="360.673" x2="304.444" y2="426.263" gradientUnits="userSpaceOnUse">
<stop stop-color="#68CA44" stop-opacity="0"/>
<stop offset="1" stop-color="#47A920"/>
</linearGradient>
<linearGradient id="paint15_linear_75_118" x1="267.624" y1="451.161" x2="267.624" y2="489.985" gradientUnits="userSpaceOnUse">
<stop stop-color="#68CA44" stop-opacity="0"/>
<stop offset="0.2297" stop-color="#5DBF38" stop-opacity="0.23"/>
<stop offset="0.676" stop-color="#4DAE27" stop-opacity="0.676"/>
<stop offset="1" stop-color="#47A920"/>
</linearGradient>
<linearGradient id="paint16_linear_75_118" x1="167.652" y1="242.515" x2="207.207" y2="282.069" gradientUnits="userSpaceOnUse">
<stop stop-color="#EDF5FF"/>
<stop offset="1" stop-color="#C7E9FF"/>
</linearGradient>
<linearGradient id="paint17_linear_75_118" x1="316.634" y1="261.281" x2="334.215" y2="278.862" gradientUnits="userSpaceOnUse">
<stop stop-color="#EDF5FF"/>
<stop offset="1" stop-color="#C7E9FF"/>
</linearGradient>
<linearGradient id="paint18_linear_75_118" x1="42.167" y1="418.736" x2="59.7477" y2="436.317" gradientUnits="userSpaceOnUse">
<stop stop-color="#EDF5FF"/>
<stop offset="1" stop-color="#C7E9FF"/>
</linearGradient>
<linearGradient id="paint19_linear_75_118" x1="450.77" y1="378.869" x2="468.351" y2="396.45" gradientUnits="userSpaceOnUse">
<stop stop-color="#EDF5FF"/>
<stop offset="1" stop-color="#C7E9FF"/>
</linearGradient>
<linearGradient id="paint20_linear_75_118" x1="201.159" y1="199.536" x2="218.74" y2="217.117" gradientUnits="userSpaceOnUse">
<stop stop-color="#EDF5FF"/>
<stop offset="1" stop-color="#C7E9FF"/>
</linearGradient>
<linearGradient id="paint21_linear_75_118" x1="104.389" y1="183.167" x2="121.97" y2="200.748" gradientUnits="userSpaceOnUse">
<stop stop-color="#EDF5FF"/>
<stop offset="1" stop-color="#C7E9FF"/>
</linearGradient>
<clipPath id="clip0_75_118">
<rect width="512" height="512" fill="white"/>
</clipPath>
</defs>
</svg>
