<svg height="512" viewBox="0 0 510 510" width="512" xmlns="http://www.w3.org/2000/svg" xmlns:xlink="http://www.w3.org/1999/xlink"><radialGradient id="illustrations--stethoscope__e" cx="230.176" cy="150.977" gradientUnits="userSpaceOnUse" r="179.797"><stop offset="0" stop-color="#f8f6fb"/><stop offset=".59" stop-color="#f7f4fb"/><stop offset=".802" stop-color="#f5edfb"/><stop offset=".953" stop-color="#f1e2fb"/><stop offset="1" stop-color="#efdcfb"/></radialGradient><linearGradient id="illustrations--stethoscope__a"><stop offset="0" stop-color="#8a7889"/><stop offset="1" stop-color="#6e566e"/></linearGradient><linearGradient id="illustrations--stethoscope__f" gradientUnits="userSpaceOnUse" x1="336.314" x2="425.952" xlink:href="#illustrations--stethoscope__a" y1="363.967" y2="453.605"/><linearGradient id="illustrations--stethoscope__g" gradientTransform="rotate(-135 279.761 323.283)" gradientUnits="userSpaceOnUse" x1="132.213" x2="192.112" xlink:href="#illustrations--stethoscope__a" y1="309.186" y2="369.085"/><linearGradient id="illustrations--stethoscope__h" gradientUnits="userSpaceOnUse" x1="358.569" x2="395.455" xlink:href="#illustrations--stethoscope__a" y1="386.222" y2="423.108"/><linearGradient id="illustrations--stethoscope__i" gradientUnits="userSpaceOnUse" x1="388.691" x2="357.024" y1="465.798" y2="410.12"><stop offset="0" stop-color="#6e566e" stop-opacity="0"/><stop offset=".294" stop-color="#674d66" stop-opacity=".294"/><stop offset="1" stop-color="#593b56"/></linearGradient><linearGradient id="illustrations--stethoscope__b"><stop offset="0" stop-color="#65e0db"/><stop offset=".199" stop-color="#60dcd6"/><stop offset=".428" stop-color="#53d0c8"/><stop offset=".671" stop-color="#3cbcb1"/><stop offset=".923" stop-color="#1ca191"/><stop offset="1" stop-color="#119786"/></linearGradient><linearGradient id="illustrations--stethoscope__j" gradientUnits="userSpaceOnUse" x1="151.333" x2="300.274" xlink:href="#illustrations--stethoscope__b" y1="299.769" y2="486.293"/><linearGradient id="illustrations--stethoscope__c"><stop offset="0" stop-color="#119786" stop-opacity="0"/><stop offset="1" stop-color="#119786"/></linearGradient><linearGradient id="illustrations--stethoscope__k" gradientUnits="userSpaceOnUse" x1="269.835" x2="215.691" xlink:href="#illustrations--stethoscope__c" y1="341.129" y2="286.985"/><linearGradient id="illustrations--stethoscope__l" gradientUnits="userSpaceOnUse" x1="230.172" x2="230.172" xlink:href="#illustrations--stethoscope__b" y1="232.769" y2="318.612"/><linearGradient id="illustrations--stethoscope__m" gradientUnits="userSpaceOnUse" x1="227.52" x2="377.157" xlink:href="#illustrations--stethoscope__c" y1="254.38" y2="409.585"/><linearGradient id="illustrations--stethoscope__d"><stop offset="0" stop-color="#ffd945"/><stop offset=".304" stop-color="#ffcd3e"/><stop offset=".856" stop-color="#ffad2b"/><stop offset="1" stop-color="#ffa325"/></linearGradient><linearGradient id="illustrations--stethoscope__n" gradientTransform="rotate(-21.4 126.16 58.397)" gradientUnits="userSpaceOnUse" x1="140.318" x2="170.519" xlink:href="#illustrations--stethoscope__d" y1="39.49" y2="62.75"/><linearGradient id="illustrations--stethoscope__o" gradientTransform="rotate(-21.4 126.16 58.397)" gradientUnits="userSpaceOnUse" x1="151.148" x2="196.43" xlink:href="#illustrations--stethoscope__d" y1="36.022" y2="70.897"/><linearGradient id="illustrations--stethoscope__p" gradientTransform="scale(-1 1) rotate(-21.4 1.538 717.704)" gradientUnits="userSpaceOnUse" x1="-56.207" x2="-26.006" xlink:href="#illustrations--stethoscope__d" y1="-37.606" y2="-14.346"/><linearGradient id="illustrations--stethoscope__q" gradientTransform="scale(-1 1) rotate(-21.4 1.538 717.704)" gradientUnits="userSpaceOnUse" x1="-45.377" x2="-.095" xlink:href="#illustrations--stethoscope__d" y1="-41.074" y2="-6.199"/><linearGradient id="illustrations--stethoscope__r" gradientUnits="userSpaceOnUse" x1="283.304" x2="242.146" xlink:href="#illustrations--stethoscope__c" y1="400.043" y2="400.043"/><linearGradient id="illustrations--stethoscope__s" gradientUnits="userSpaceOnUse" x1="182.734" x2="242.122" xlink:href="#illustrations--stethoscope__c" y1="400.043" y2="400.043"/><path d="M230.176 308.173c-92.872 0-168.428-68.844-168.428-153.465 0-48.682 25.727-94.954 68.82-123.777 6.386-4.273 15.033-2.56 19.309 3.831 4.274 6.39 2.558 15.035-3.832 19.309-35.88 23.999-56.458 60.679-56.458 100.636 0 69.27 63.068 125.625 140.589 125.625s140.589-56.355 140.589-125.625c0-39.958-20.578-76.639-56.458-100.636-6.39-4.274-8.106-12.919-3.832-19.309 4.274-6.391 12.919-8.106 19.309-3.831 43.093 28.822 68.82 75.094 68.82 123.777.001 84.621-75.556 153.465-168.428 153.465z" fill="url(#illustrations--stethoscope__e)"/><circle cx="374.13" cy="401.783" fill="url(#illustrations--stethoscope__f)" r="74.122"/><circle cx="374.13" cy="401.783" fill="url(#illustrations--stethoscope__g)" r="49.531"/><circle cx="374.13" cy="401.783" fill="url(#illustrations--stethoscope__h)" r="30.502"/><path d="M303.535 379.163a74.063 74.063 0 00-3.528 22.62c0 40.937 33.186 74.122 74.122 74.122 26.886 0 50.428-14.316 63.422-35.74l-53.993-53.993c-3.824-4.291-9.376-7.009-15.576-7.009z" fill="url(#illustrations--stethoscope__i)"/><path d="M186.794 510c-35.435 0-64.263-28.828-64.263-64.263v-2.312c0-35.435 28.828-64.262 64.263-64.262h22.503v-84.91c0-11.531 9.348-20.88 20.88-20.88 11.531 0 20.88 9.348 20.88 20.88v84.91h116.926c11.531 0 20.88 9.348 20.88 20.88 0 11.531-9.348 20.88-20.88 20.88H251.056v24.815c0 35.434-28.828 64.262-64.262 64.262zm0-89.078c-12.408 0-22.504 10.095-22.504 22.503v2.312c0 12.409 10.096 22.504 22.504 22.504s22.503-10.095 22.503-22.504v-24.815z" fill="url(#illustrations--stethoscope__j)"/><path d="M251.056 294.253c0-11.531-9.348-20.88-20.88-20.88-11.531 0-20.88 9.348-20.88 20.88v23.083l41.759 41.759v-64.842z" fill="url(#illustrations--stethoscope__k)"/><path d="M230.172 318.612c-44.743 0-87.557-15.2-120.555-42.798-10.319-8.631-11.688-23.994-3.057-34.313 8.63-10.322 23.995-11.689 34.314-3.058 24.248 20.281 55.962 31.45 89.298 31.45s65.05-11.169 89.298-31.45c10.317-8.63 25.681-7.264 34.314 3.058 8.63 10.319 7.262 25.682-3.057 34.313-32.998 27.599-75.812 42.798-120.555 42.798z" fill="url(#illustrations--stethoscope__l)"/><path d="M353.784 241.502a24.347 24.347 0 00-5.249-4.683c.818 7.795-2.132 15.842-8.595 21.249-32.998 27.598-75.812 42.798-120.555 42.798-43.741 0-85.634-14.534-118.319-40.971.684 5.993 3.56 11.745 8.552 15.921 32.998 27.598 75.812 42.798 120.555 42.798s87.557-15.2 120.555-42.798c10.318-8.632 11.687-23.995 3.056-34.314z" fill="url(#illustrations--stethoscope__m)"/><path d="M156.853 55.046l-8.64 3.39c-5.495 2.156-11.697-.551-13.852-6.046l-5.752-14.662c-2.156-5.495.551-11.697 6.046-13.852l8.64-3.39c5.495-2.156 11.697.551 13.852 6.046l5.752 14.662c2.156 5.494-.551 11.696-6.046 13.852z" fill="url(#illustrations--stethoscope__n)"/><path d="M169.77 68.332a7.594 7.594 0 01-9.843-4.296l-20.491-52.234a7.593 7.593 0 014.296-9.842c14.532-5.701 30.935 1.458 36.636 15.991l5.392 13.746c5.701 14.532-1.458 30.934-15.99 36.635z" fill="url(#illustrations--stethoscope__o)"/><g><path d="M303.499 55.046l8.64 3.39c5.495 2.156 11.697-.551 13.852-6.046l5.752-14.662c2.156-5.495-.551-11.697-6.046-13.852l-8.64-3.39c-5.495-2.156-11.697.551-13.852 6.046l-5.752 14.662c-2.155 5.494.552 11.696 6.046 13.852z" fill="url(#illustrations--stethoscope__p)"/><path d="M290.583 68.332a7.594 7.594 0 009.843-4.296l20.491-52.234a7.593 7.593 0 00-4.296-9.842c-14.532-5.701-30.935 1.458-36.636 15.991l-5.392 13.746c-5.702 14.532 1.458 30.934 15.99 36.635z" fill="url(#illustrations--stethoscope__q)"/></g><path d="M367.982 379.163H251.056v41.759h116.926c11.531 0 20.88-9.348 20.88-20.88-.001-11.531-9.349-20.879-20.88-20.879z" fill="url(#illustrations--stethoscope__r)"/><path d="M126.607 420.922h82.69v-41.759h-22.503c-27.52 0-51.047 17.392-60.187 41.759z" fill="url(#illustrations--stethoscope__s)"/></svg>