<svg width="512" height="512" viewBox="0 0 512 512" fill="none" xmlns="http://www.w3.org/2000/svg"><path d="M290.393 124.709l-150.224 34.448c-46.638 10.695-74.992 60.583-63.333 111.43l6.667 29.073c2.356 10.276 11.909 16.855 21.335 14.694l284.979-65.351c9.426-2.161 15.156-12.244 12.8-22.521l-6.667-29.073c-11.66-50.846-58.919-83.395-105.557-72.7z" fill="url(#illustrations--treasure__paint0_linear_72_18)"/><path d="M76.837 270.587l6.667 29.073c2.356 10.277 11.909 16.855 21.335 14.694l284.979-65.35c9.426-2.162 15.156-12.245 12.8-22.521l-6.667-29.074c-6.208-27.067-22.502-48.947-43.421-61.881L88.957 195.969c-13.193 20.757-18.327 47.551-12.12 74.618z" fill="url(#illustrations--treasure__paint1_linear_72_18)"/><path d="M76.837 270.587l6.667 29.073c2.356 10.276 11.909 16.855 21.334 14.694l284.98-65.351c9.425-2.161 15.156-12.244 12.8-22.521l-6.667-29.073c-3.082-13.441-8.654-25.599-16.042-36.022L75.58 231.175c-2.108 12.599-1.825 25.971 1.257 39.412z" fill="url(#illustrations--treasure__paint2_linear_72_18)"/><path d="M367.073 152.613l5.536 24.142c1.632 7.119-2.815 14.213-9.934 15.845l-252.739 57.958c-7.119 1.632-14.213-2.815-15.845-9.934l-7.081-30.877c-1.465-6.388-10.087-7.525-13.151-1.732-10.212 19.316-13.81 42.245-8.543 65.213l6.667 29.074c2.356 10.276 12.597 16.697 22.875 14.34l304.935-69.926c10.276-2.357 16.697-12.598 14.34-22.875l-6.667-29.073c-4.504-19.64-14.829-36.43-28.736-48.972-5.144-4.64-13.205.064-11.657 6.817z" fill="url(#illustrations--treasure__paint3_linear_72_18)"/><path d="M386.773 210.792L90.928 278.634c-9.888 2.268-16.112 11.926-13.9 21.572l33.576 146.42c2.212 9.645 12.022 15.627 21.911 13.359l295.844-67.842c9.889-2.268 16.112-11.926 13.901-21.572l-33.577-146.42c-2.211-9.645-12.022-15.627-21.91-13.359z" fill="url(#illustrations--treasure__paint4_linear_72_18)"/><path d="M402.423 279.039l-295.845 67.842c-9.888 2.268-16.787 8.983-15.407 14.999l20.941 91.318c1.379 6.016 10.514 9.055 20.404 6.787l295.844-67.842c9.889-2.268 16.788-8.983 15.408-14.999l-20.941-91.318c-1.381-6.016-10.515-9.055-20.404-6.787z" fill="url(#illustrations--treasure__paint5_linear_72_18)"/><path d="M411.8 319.931l-295.845 67.842c-9.889 2.268-17.191 7.219-16.31 11.06l13.369 58.303c.881 3.841 9.612 5.116 19.501 2.848l295.844-67.842c9.889-2.268 17.191-7.22 16.311-11.06l-13.37-58.303c-.881-3.841-9.611-5.116-19.5-2.848z" fill="url(#illustrations--treasure__paint6_linear_72_18)"/><path d="M147.396 265.685l-56.469 12.948c-9.889 2.268-16.112 11.926-13.9 21.571l33.576 146.42c2.212 9.646 12.022 15.627 21.911 13.36l56.468-12.949-41.586-181.35z" fill="url(#illustrations--treasure__paint7_linear_72_18)"/><path d="M389.958 203.822L85.023 273.748c-10.276 2.356-16.696 12.597-14.34 22.875l35.772 155.991c2.356 10.276 12.597 16.697 22.874 14.34l304.935-69.926c10.276-2.356 16.698-12.597 14.34-22.875l-35.771-155.991c-2.357-10.276-12.598-16.696-22.875-14.34zm24.478 155.637c1.792 7.815-3.09 15.603-10.906 17.395l-255.329 58.551c-7.815 1.792-15.603-3.09-17.395-10.906l-25.954-113.183c-1.792-7.815 3.09-15.603 10.905-17.395l255.33-58.551c7.814-1.792 15.603 3.09 17.395 10.906l25.954 113.183z" fill="url(#illustrations--treasure__paint8_linear_72_18)"/><path d="M140.533 449.152l275.889-63.265c9.038-2.073 14.741-10.835 12.737-19.572l-30.412-132.623c-2.004-8.737-10.955-14.139-19.994-12.067L102.865 284.89c-9.039 2.073-14.742 10.835-12.738 19.572l30.413 132.623c2.004 8.737 10.955 14.14 19.993 12.067zm-35.681-137.835c-1.792-7.814 3.09-15.603 10.905-17.395l255.33-58.551c7.814-1.792 15.602 3.09 17.394 10.906l25.955 113.183c1.792 7.815-3.09 15.603-10.906 17.395l-255.329 58.551c-7.815 1.792-15.603-3.09-17.395-10.906l-25.954-113.183z" fill="url(#illustrations--treasure__paint9_linear_72_18)"/><path d="M412.256 349.956l2.18 9.504c1.792 7.814-3.09 15.603-10.906 17.395l-255.329 58.551c-7.815 1.792-15.603-3.09-17.395-10.906l-2.18-9.504-29.259 6.71 7.088 30.909c2.356 10.276 12.597 16.697 22.874 14.34l304.935-69.926c10.277-2.357 16.698-12.598 14.34-22.875l-7.087-30.908-29.261 6.71z" fill="url(#illustrations--treasure__paint10_linear_72_18)"/><path d="M448.605 374.155l-14.156-61.73-166.894-104.63c-3.067-3.068-7.587-4.548-12.128-3.507l-46.648 10.697c-7.015 1.608-11.397 8.599-9.787 15.612l6.26 27.303c2.265 9.875 8.759 17.679 17.131 21.946l193.6 121.372 18.281-4.192c10.277-2.354 16.697-12.595 14.341-22.871z" fill="url(#illustrations--treasure__paint11_linear_72_18)"/><path d="M251.09 279.825l-7.957 1.825c-17.698 4.059-35.336-6.998-39.394-24.697l-6.262-27.303c-1.608-7.014 2.774-14.004 9.788-15.612l46.648-10.697c7.014-1.608 14.004 2.774 15.612 9.787l6.26 27.303c4.06 17.698-6.997 35.335-24.695 39.394z" fill="url(#illustrations--treasure__paint12_linear_72_18)"/><path d="M241.645 268.821l5.193-1.191c11.551-2.649 18.769-14.16 16.12-25.712l-4.087-17.821a8.504 8.504 0 00-10.19-6.388l-30.447 6.983a8.503 8.503 0 00-6.387 10.189l4.086 17.821c2.649 11.551 14.161 18.768 25.712 16.119z" fill="url(#illustrations--treasure__paint13_linear_72_18)"/><path d="M250.052 235.768c-1.594-6.953-8.524-11.297-15.478-9.703-6.953 1.594-11.297 8.524-9.702 15.477 1.17 5.105 5.22 8.793 10.04 9.768l1.848 8.059a5.315 5.315 0 0010.359-2.375l-1.848-8.06c3.914-2.977 5.951-8.061 4.781-13.166z" fill="url(#illustrations--treasure__paint14_linear_72_18)"/><path d="M368.574 169.177c15.594 0 28.235-12.642 28.235-28.236 0-15.594-12.641-28.235-28.235-28.235s-28.236 12.641-28.236 28.235 12.642 28.236 28.236 28.236z" fill="url(#illustrations--treasure__paint15_linear_72_18)"/><path d="M410.123 219.538c9.04 0 16.369-7.328 16.369-16.369 0-9.04-7.329-16.369-16.369-16.369s-16.369 7.329-16.369 16.369c0 9.041 7.329 16.369 16.369 16.369z" fill="url(#illustrations--treasure__paint16_linear_72_18)"/><path d="M38.513 331.133c9.04 0 16.368-7.328 16.368-16.369 0-9.04-7.328-16.368-16.368-16.368s-16.37 7.328-16.37 16.368c0 9.041 7.33 16.369 16.37 16.369z" fill="url(#illustrations--treasure__paint17_linear_72_18)"/><path d="M399.683 111.933c9.041 0 16.369-7.328 16.369-16.369 0-9.04-7.328-16.369-16.369-16.369-9.04 0-16.369 7.329-16.369 16.37 0 9.04 7.329 16.368 16.369 16.368z" fill="url(#illustrations--treasure__paint18_linear_72_18)"/><path d="M302.912 95.564c9.041 0 16.369-7.329 16.369-16.369s-7.328-16.369-16.369-16.369c-9.04 0-16.369 7.329-16.369 16.37 0 9.04 7.329 16.368 16.369 16.368z" fill="url(#illustrations--treasure__paint19_linear_72_18)"/><defs><linearGradient id="illustrations--treasure__paint0_linear_72_18" x1="194.32" y1="149.73" x2="265.784" y2="300.995" gradientUnits="userSpaceOnUse"><stop stop-color="#F6A96C"/><stop offset="1" stop-color="#CA6E59"/></linearGradient><linearGradient id="illustrations--treasure__paint1_linear_72_18" x1="242.094" y1="196.021" x2="254.912" y2="30.012" gradientUnits="userSpaceOnUse"><stop stop-color="#CA6E59" stop-opacity="0"/><stop offset="1" stop-color="#883F2E"/></linearGradient><linearGradient id="illustrations--treasure__paint2_linear_72_18" x1="239.167" y1="233.939" x2="250.454" y2="87.75" gradientUnits="userSpaceOnUse"><stop stop-color="#CA6E59" stop-opacity="0"/><stop offset="1" stop-color="#883F2E"/></linearGradient><linearGradient id="illustrations--treasure__paint3_linear_72_18" x1="200.699" y1="163.412" x2="266.88" y2="303.497" gradientUnits="userSpaceOnUse"><stop stop-color="#FFE177"/><stop offset="1" stop-color="#FE9738"/></linearGradient><linearGradient id="illustrations--treasure__paint4_linear_72_18" x1="216.144" y1="242.794" x2="309.233" y2="439.833" gradientUnits="userSpaceOnUse"><stop stop-color="#F6A96C"/><stop offset="1" stop-color="#CA6E59"/></linearGradient><linearGradient id="illustrations--treasure__paint5_linear_72_18" x1="242.89" y1="400.991" x2="437.482" y2="154.257" gradientUnits="userSpaceOnUse"><stop stop-color="#CA6E59" stop-opacity="0"/><stop offset="1" stop-color="#883F2E"/></linearGradient><linearGradient id="illustrations--treasure__paint6_linear_72_18" x1="238.748" y1="444.082" x2="392.017" y2="197.717" gradientUnits="userSpaceOnUse"><stop stop-color="#CA6E59" stop-opacity="0"/><stop offset="1" stop-color="#883F2E"/></linearGradient><linearGradient id="illustrations--treasure__paint7_linear_72_18" x1="136.493" y1="363.717" x2="75.756" y2="377.671" gradientUnits="userSpaceOnUse"><stop stop-color="#CA6E59" stop-opacity="0"/><stop offset=".196" stop-color="#B5604B" stop-opacity=".196"/><stop offset=".499" stop-color="#9D4E3B" stop-opacity=".499"/><stop offset=".775" stop-color="#8D4331" stop-opacity=".775"/><stop offset="1" stop-color="#883F2E"/></linearGradient><linearGradient id="illustrations--treasure__paint8_linear_72_18" x1="213.689" y1="237.599" x2="312.003" y2="445.694" gradientUnits="userSpaceOnUse"><stop stop-color="#FFE177"/><stop offset="1" stop-color="#FE9738"/></linearGradient><linearGradient id="illustrations--treasure__paint9_linear_72_18" x1="308.334" y1="436.582" x2="211.767" y2="232.182" gradientUnits="userSpaceOnUse"><stop stop-color="#FFE177"/><stop offset="1" stop-color="#FE9738"/></linearGradient><linearGradient id="illustrations--treasure__paint10_linear_72_18" x1="275.024" y1="401.287" x2="282.564" y2="434.103" gradientUnits="userSpaceOnUse"><stop stop-color="#FE9738" stop-opacity="0"/><stop offset="1" stop-color="#FE7701"/></linearGradient><linearGradient id="illustrations--treasure__paint11_linear_72_18" x1="330.139" y1="299.398" x2="125.526" y2="223.532" gradientUnits="userSpaceOnUse"><stop stop-color="#CA6E59" stop-opacity="0"/><stop offset=".196" stop-color="#B5604B" stop-opacity=".196"/><stop offset=".499" stop-color="#9D4E3B" stop-opacity=".499"/><stop offset=".775" stop-color="#8D4331" stop-opacity=".775"/><stop offset="1" stop-color="#883F2E"/></linearGradient><linearGradient id="illustrations--treasure__paint12_linear_72_18" x1="225.938" y1="212.503" x2="255.749" y2="275.6" gradientUnits="userSpaceOnUse"><stop stop-color="#EDF5FF"/><stop offset="1" stop-color="#C7E9FF"/></linearGradient><linearGradient id="illustrations--treasure__paint13_linear_72_18" x1="264.723" y1="257.585" x2="214.788" y2="226.308" gradientUnits="userSpaceOnUse"><stop stop-color="#EDF5FF"/><stop offset="1" stop-color="#C7E9FF"/></linearGradient><linearGradient id="illustrations--treasure__paint14_linear_72_18" x1="233.162" y1="239.669" x2="248.757" y2="249.437" gradientUnits="userSpaceOnUse"><stop stop-color="#537983"/><stop offset="1" stop-color="#3E5959"/></linearGradient><linearGradient id="illustrations--treasure__paint15_linear_72_18" x1="356.973" y1="129.341" x2="396.528" y2="168.896" gradientUnits="userSpaceOnUse"><stop stop-color="#EDF5FF"/><stop offset="1" stop-color="#C7E9FF"/></linearGradient><linearGradient id="illustrations--treasure__paint16_linear_72_18" x1="400.921" y1="193.966" x2="418.502" y2="211.547" gradientUnits="userSpaceOnUse"><stop stop-color="#EDF5FF"/><stop offset="1" stop-color="#C7E9FF"/></linearGradient><linearGradient id="illustrations--treasure__paint17_linear_72_18" x1="29.311" y1="305.563" x2="46.891" y2="323.143" gradientUnits="userSpaceOnUse"><stop stop-color="#EDF5FF"/><stop offset="1" stop-color="#C7E9FF"/></linearGradient><linearGradient id="illustrations--treasure__paint18_linear_72_18" x1="390.48" y1="86.362" x2="408.061" y2="103.943" gradientUnits="userSpaceOnUse"><stop stop-color="#EDF5FF"/><stop offset="1" stop-color="#C7E9FF"/></linearGradient><linearGradient id="illustrations--treasure__paint19_linear_72_18" x1="293.71" y1="69.993" x2="311.291" y2="87.574" gradientUnits="userSpaceOnUse"><stop stop-color="#EDF5FF"/><stop offset="1" stop-color="#C7E9FF"/></linearGradient></defs></svg>