<svg height="512" viewBox="0 0 510 510" width="512" xmlns="http://www.w3.org/2000/svg" xmlns:xlink="http://www.w3.org/1999/xlink"><linearGradient id="illustrations--trolley__a"><stop offset="0" stop-color="#fee45a"/><stop offset="1" stop-color="#fe860a"/></linearGradient><linearGradient id="illustrations--trolley__e" gradientTransform="rotate(-19.78 246.464 234.886)" gradientUnits="userSpaceOnUse" x1="207.537" x2="359.762" xlink:href="#illustrations--trolley__a" y1="43.486" y2="195.711"/><linearGradient id="illustrations--trolley__b"><stop offset="0" stop-color="#fe860a" stop-opacity="0"/><stop offset="1" stop-color="#fe7701"/></linearGradient><linearGradient id="illustrations--trolley__f" gradientTransform="rotate(-19.78 246.464 234.886)" gradientUnits="userSpaceOnUse" x1="353.26" x2="156.983" xlink:href="#illustrations--trolley__b" y1="110.21" y2="-29.24"/><linearGradient id="illustrations--trolley__g" gradientTransform="rotate(-19.78 246.464 234.886)" gradientUnits="userSpaceOnUse" x1="372.514" x2="252.419" xlink:href="#illustrations--trolley__b" y1="67.753" y2="194.41"/><linearGradient id="illustrations--trolley__h" gradientTransform="rotate(-19.78 246.464 234.886)" gradientUnits="userSpaceOnUse" x1="270.843" x2="270.843" xlink:href="#illustrations--trolley__b" y1="160.475" y2="194.943"/><linearGradient id="illustrations--trolley__c"><stop offset="0" stop-color="#eaf6ff"/><stop offset=".258" stop-color="#dce8fa"/><stop offset=".742" stop-color="#b8c4ed"/><stop offset="1" stop-color="#a2aee6"/></linearGradient><linearGradient id="illustrations--trolley__i" gradientTransform="rotate(-19.78 246.464 234.886)" gradientUnits="userSpaceOnUse" x1="225.15" x2="279.381" xlink:href="#illustrations--trolley__c" y1="30.447" y2="84.678"/><linearGradient id="illustrations--trolley__j" gradientUnits="userSpaceOnUse" x1="130.18" x2="159.513" xlink:href="#illustrations--trolley__c" y1="347.121" y2="338.455"/><linearGradient id="illustrations--trolley__k" gradientTransform="rotate(-19.78 246.464 234.886)" gradientUnits="userSpaceOnUse" x1="94.444" x2="174.45" xlink:href="#illustrations--trolley__c" y1="215.435" y2="215.435"/><linearGradient id="illustrations--trolley__l" gradientTransform="rotate(-19.78 246.464 234.886)" gradientUnits="userSpaceOnUse" x1="149.084" x2="110.931" y1="113.536" y2="75.382"><stop offset="0" stop-color="#8795de" stop-opacity="0"/><stop offset=".468" stop-color="#7d8ddc" stop-opacity=".468"/><stop offset="1" stop-color="#6c7fd8"/></linearGradient><linearGradient id="illustrations--trolley__m" gradientTransform="rotate(-19.78 246.464 234.886)" gradientUnits="userSpaceOnUse" x1="287.553" x2="287.553" xlink:href="#illustrations--trolley__c" y1="395.364" y2="428.326"/><linearGradient id="illustrations--trolley__n" gradientTransform="rotate(-19.78 246.464 234.886)" gradientUnits="userSpaceOnUse" x1="211.589" x2="428.355" xlink:href="#illustrations--trolley__a" y1="189.631" y2="406.397"/><linearGradient id="illustrations--trolley__o" gradientTransform="rotate(-19.78 246.464 234.886)" gradientUnits="userSpaceOnUse" x1="419.096" x2="139.602" xlink:href="#illustrations--trolley__b" y1="284.645" y2="86.071"/><linearGradient id="illustrations--trolley__p" gradientTransform="rotate(-19.78 246.464 234.886)" gradientUnits="userSpaceOnUse" x1="446.514" x2="275.502" xlink:href="#illustrations--trolley__b" y1="224.187" y2="404.544"/><linearGradient id="illustrations--trolley__q" gradientTransform="rotate(-19.78 246.464 234.886)" gradientUnits="userSpaceOnUse" x1="301.736" x2="301.736" xlink:href="#illustrations--trolley__b" y1="356.221" y2="405.303"/><linearGradient id="illustrations--trolley__r" gradientTransform="rotate(-19.78 246.464 234.886)" gradientUnits="userSpaceOnUse" x1="236.671" x2="313.894" xlink:href="#illustrations--trolley__c" y1="171.064" y2="248.287"/><linearGradient id="illustrations--trolley__d"><stop offset="0" stop-color="#537983"/><stop offset="1" stop-color="#3e5959"/></linearGradient><linearGradient id="illustrations--trolley__s" gradientTransform="rotate(-19.78 246.464 234.886)" gradientUnits="userSpaceOnUse" x1="111.834" x2="78.066" xlink:href="#illustrations--trolley__d" y1="18.211" y2="51.979"/><linearGradient id="illustrations--trolley__t" gradientTransform="matrix(-.351 .745 .905 .426 1799.165 -910.415)" gradientUnits="userSpaceOnUse" x1="2011.399" x2="2011.399" xlink:href="#illustrations--trolley__d" y1="-1136.463" y2="-1120.906"/><linearGradient id="illustrations--trolley__u" gradientTransform="matrix(-.351 .745 .905 .426 1799.165 -910.415)" gradientUnits="userSpaceOnUse" x1="2011.399" x2="2011.399" y1="-1136.108" y2="-1097.482"><stop offset="0" stop-color="#384949" stop-opacity="0"/><stop offset="1" stop-color="#384949"/></linearGradient><linearGradient id="illustrations--trolley__v" gradientUnits="userSpaceOnUse" x1="165.96" x2="250.709" xlink:href="#illustrations--trolley__d" y1="404.255" y2="489.004"/><linearGradient id="illustrations--trolley__w" gradientUnits="userSpaceOnUse" x1="229.068" x2="167.805" xlink:href="#illustrations--trolley__d" y1="467.364" y2="406.101"/><linearGradient id="illustrations--trolley__x" gradientUnits="userSpaceOnUse" x1="187.947" x2="229.971" y1="426.242" y2="468.267"><stop offset="0" stop-color="#26a6fe"/><stop offset=".221" stop-color="#26a3fb"/><stop offset=".393" stop-color="#2599f1"/><stop offset=".55" stop-color="#2389e0"/><stop offset=".697" stop-color="#2173c9"/><stop offset=".837" stop-color="#1e56ab"/><stop offset=".971" stop-color="#1a3386"/><stop offset="1" stop-color="#192a7d"/></linearGradient><path d="M336.372 152.132l-165.94 59.619a7.173 7.173 0 01-9.175-4.325L111.602 69.218a7.173 7.173 0 014.325-9.175L281.867.424a7.173 7.173 0 019.175 4.325l49.656 138.209a7.173 7.173 0 01-4.326 9.174z" fill="url(#illustrations--trolley__e)"/><path d="M291.041 4.748l49.656 138.21a7.172 7.172 0 01-4.324 9.173l-22.025 7.913-147.765-69.651-15.449-42.999L281.868.424a7.173 7.173 0 019.173 4.324z" fill="url(#illustrations--trolley__f)"/><path d="M281.867.424L234.72 17.363a7.173 7.173 0 019.175 4.325l49.656 138.209a7.173 7.173 0 01-4.325 9.175l47.147-16.939a7.172 7.172 0 004.325-9.175L291.041 4.749a7.172 7.172 0 00-9.174-4.325z" fill="url(#illustrations--trolley__g)"/><path d="M150.537 177.585l10.722 29.842a7.172 7.172 0 009.175 4.325l165.94-59.619a7.172 7.172 0 004.325-9.175l-10.722-29.842z" fill="url(#illustrations--trolley__h)"/><path d="M173.926 89.06l.161.033a9.951 9.951 0 009.823-3.62 10.263 10.263 0 019.983-3.587 10.26 10.26 0 009.983-3.587c1.127-1.335 2.694-1.918 4.386-2.19 1.93-.31 3.122-2.269 2.461-4.109l-14.149-39.383a2.523 2.523 0 00-3.228-1.521L152.005 45.95a2.523 2.523 0 00-1.521 3.228l14.129 39.327c.657 1.829 2.812 2.6 4.488 1.618 1.494-.876 3.094-1.415 4.825-1.063z" fill="url(#illustrations--trolley__i)"/><path d="M164.623 416.471a6.997 6.997 0 004.292-8.916l-35.006-100a22.353 22.353 0 01.963-17.191l6.719-13.956a6.996 6.996 0 10-12.608-6.07l-6.719 13.956c-4.228 8.782-4.783 18.685-1.562 27.884l35.006 100a6.996 6.996 0 008.915 4.293z" fill="url(#illustrations--trolley__j)"/><g><path d="M217.377 449.503c-10.141 3.643-21.315-1.623-24.958-11.764L92.524 159.695c-5.665-15.769-17.133-28.388-32.29-35.533l-39.068-18.415c-9.747-4.594-13.924-16.22-9.33-25.967s16.22-13.924 25.966-9.329l39.069 18.416c24.585 11.589 43.186 32.058 52.375 57.635l99.896 278.043c3.643 10.14-1.624 21.314-11.765 24.958z" fill="url(#illustrations--trolley__k)"/><path d="M68.81 129.062c10.903 7.395 19.174 17.999 23.714 30.634l13.257 36.898 36.723-13.194-13.257-36.898c-8.071-22.463-23.402-40.984-43.669-53.011z" fill="url(#illustrations--trolley__l)"/><path d="M500.584 350.424L201.417 457.909c-7.391 2.656-15.536-1.184-18.192-8.575l-2.21-6.151c-2.656-7.391 1.184-15.536 8.575-18.192l299.166-107.485c7.391-2.656 15.536 1.184 18.192 8.575l2.21 6.151c2.656 7.392-1.183 15.537-8.574 18.192z" fill="url(#illustrations--trolley__m)"/><path d="M470.668 324.006l-236.295 84.896c-5.308 1.907-11.157-.85-13.064-6.158L150.6 205.937c-1.907-5.308.85-11.157 6.158-13.064l236.295-84.896c5.308-1.907 11.157.85 13.064 6.158l70.709 196.807c1.908 5.308-.85 11.157-6.158 13.064z" fill="url(#illustrations--trolley__n)"/><path d="M406.117 114.134l70.71 196.808c1.906 5.306-.851 11.156-6.157 13.062l-31.363 11.268-210.415-99.182-21.998-61.229 186.162-66.884c5.305-1.906 11.155.851 13.061 6.157z" fill="url(#illustrations--trolley__o)"/><path d="M393.053 107.977l-67.136 24.121c5.308-1.907 11.157.85 13.064 6.158l70.709 196.807c1.907 5.308-.85 11.157-6.158 13.064l67.136-24.121c5.308-1.907 8.065-7.756 6.158-13.064l-70.709-196.807c-1.907-5.308-7.756-8.065-13.064-6.158z" fill="url(#illustrations--trolley__p)"/><path d="M206.042 360.25l15.267 42.494c1.907 5.308 7.756 8.065 13.064 6.158l236.295-84.896c5.308-1.907 8.065-7.756 6.158-13.064l-15.267-42.494z" fill="url(#illustrations--trolley__q)"/><path d="M239.348 234.192l.23.047a14.174 14.174 0 0013.988-5.154 14.61 14.61 0 0114.216-5.107 14.614 14.614 0 0014.216-5.107v-.001c1.604-1.901 3.837-2.732 6.246-3.119 2.748-.442 4.446-3.231 3.505-5.851L271.6 153.82a3.593 3.593 0 00-4.596-2.166l-58.87 21.151a3.593 3.593 0 00-2.166 4.596l20.12 56.001c.935 2.604 4.004 3.702 6.391 2.303 2.126-1.247 4.404-2.014 6.869-1.513z" fill="url(#illustrations--trolley__r)"/><path d="M56.824 127.01l-43.14-20.335C1.772 101.06-3.333 86.851 2.282 74.938 7.897 63.026 22.106 57.92 34.019 63.536l43.14 20.335c11.912 5.615-8.422 48.754-20.335 43.139z" fill="url(#illustrations--trolley__s)"/><g><path d="M71.84 135.641L93.373 89.96a4.282 4.282 0 00-2.048-5.7l-12.119-5.712a4.282 4.282 0 00-5.7 2.048l-21.532 45.681a4.282 4.282 0 002.048 5.7l12.119 5.712a4.282 4.282 0 005.699-2.048z" fill="url(#illustrations--trolley__t)"/><g fill="url(#illustrations--trolley__u)"><path d="M75.767 127.31l13.678-29.018a3.482 3.482 0 00-1.665-4.634l-13.567-6.395a3.482 3.482 0 00-4.634 1.665l-13.678 29.018a3.482 3.482 0 001.665 4.634l13.567 6.395c1.74.82 3.814.074 4.634-1.665z"/><path d="M80.536 117.193l4.141-8.786a2.074 2.074 0 00-.992-2.761l-16.113-7.595a2.074 2.074 0 00-2.761.992l-4.141 8.786a2.074 2.074 0 00.992 2.761l16.113 7.595a2.074 2.074 0 002.761-.992z"/></g></g></g><g><circle cx="207.207" cy="445.503" fill="url(#illustrations--trolley__v)" r="64.497"/><circle cx="207.207" cy="445.503" fill="url(#illustrations--trolley__w)" r="47.26"/><circle cx="207.207" cy="445.503" fill="url(#illustrations--trolley__x)" r="29.411"/></g></svg>