<svg xmlns="http://www.w3.org/2000/svg" width="32" height="32" viewBox="0 0 32 32"><path fill="#4285f4" d="M30.437 16.332c0-.971-.086-1.893-.233-2.79h-13.89v5.543h7.953c-.357 1.819-1.401 3.356-2.95 4.4v3.688h4.745c2.778-2.569 4.376-6.355 4.376-10.841z"/><path fill="#34a853" d="M16.313 30.75c3.983 0 7.314-1.328 9.747-3.577l-4.745-3.688c-1.328.885-3.011 1.426-5.003 1.426-3.847 0-7.105-2.593-8.272-6.097H3.148v3.798c2.421 4.818 7.4 8.137 13.164 8.137z"/><path fill="#fbbc05" d="M8.041 18.815c-.307-.885-.467-1.831-.467-2.815s.172-1.93.467-2.815V9.387H3.149a14.576 14.576 0 000 13.226l4.892-3.798z"/><path fill="#ea4335" d="M16.313 7.088c2.176 0 4.118.75 5.654 2.213l4.204-4.204c-2.544-2.385-5.875-3.847-9.858-3.847-5.765 0-10.743 3.319-13.164 8.137l4.892 3.798c1.168-3.503 4.425-6.097 8.272-6.097z"/></svg>