<svg xmlns="http://www.w3.org/2000/svg" width="32" height="32" viewBox="0 0 32 32"><path fill="currentColor" d="M16 1.282C7.868 1.282 1.282 7.868 1.282 16c0 6.513 4.213 12.014 10.064 13.964.736.129 1.012-.313 1.012-.699 0-.35-.018-1.509-.018-2.741-3.698.681-4.655-.902-4.949-1.729-.166-.423-.883-1.729-1.509-2.079-.515-.276-1.251-.957-.018-.975 1.159-.018 1.987 1.067 2.263 1.509 1.325 2.226 3.44 1.601 4.287 1.214.129-.957.515-1.601.938-1.969-3.275-.368-6.697-1.637-6.697-7.267 0-1.601.57-2.925 1.509-3.956-.147-.368-.662-1.877.147-3.9 0 0 1.233-.386 4.047 1.509 1.178-.331 2.429-.497 3.68-.497s2.502.166 3.68.497c2.815-1.913 4.047-1.509 4.047-1.509.81 2.024.294 3.532.147 3.9.938 1.03 1.509 2.337 1.509 3.956 0 5.648-3.44 6.899-6.715 7.267.534.46.993 1.343.993 2.723 0 1.969-.018 3.551-.018 4.047 0 .386.276.846 1.012.699C26.507 28.014 30.72 22.494 30.72 16c0-8.132-6.586-14.718-14.718-14.718z"/></svg>