<svg xmlns="http://www.w3.org/2000/svg" width="24" height="24" viewBox="0 0 24 24"><path fill="currentColor" d="M23 12c0-3.037-1.232-5.789-3.222-7.778S15.037 1 12 1 6.211 2.232 4.222 4.222 1 8.963 1 12s1.232 5.789 3.222 7.778S8.963 23 12 23s5.789-1.232 7.778-3.222S23 15.037 23 12zm-2 0c0 2.486-1.006 4.734-2.636 6.364S14.486 21 12 21s-4.734-1.006-6.364-2.636S3 14.486 3 12s1.006-4.734 2.636-6.364S9.514 3 12 3s4.734 1.006 6.364 2.636S21 9.514 21 12zm-3.811-3.924a1 1 0 00-1.265-1.264l-6.36 2.12a.999.999 0 00-.632.632l-2.12 6.36a1 1 0 001.265 1.264l6.36-2.12a.999.999 0 00.632-.632zm-2.53 1.265l-1.33 3.988-3.988 1.33 1.329-3.988z"/></svg>