<svg xmlns="http://www.w3.org/2000/svg" width="24" height="24" viewBox="0 0 24 24"><path fill="currentColor" d="M18.111 15.792a.996.996 0 00.183-.184l2.653-2.661c1.367-1.367 2.051-3.161 2.051-4.952s-.684-3.585-2.051-4.952S17.786.992 15.995.992s-3.585.684-4.952 2.051l-6.75 6.75A.997.997 0 004 10.5v8.086l-2.707 2.707a.999.999 0 101.414 1.414L5.414 20H13.5a.994.994 0 00.708-.294zM9.414 16h5.665l-1.994 2H7.414zm7.659-2h-5.659l5.293-5.293a.999.999 0 10-1.414-1.414L6 16.586v-5.672l6.457-6.457c.977-.977 2.256-1.465 3.538-1.465s2.561.488 3.538 1.465 1.465 2.256 1.465 3.538-.488 2.561-1.465 3.538z"/></svg>