<svg xmlns="http://www.w3.org/2000/svg" width="24" height="24" viewBox="0 0 24 24"><path fill="currentColor" d="M21 13v5c0 .276-.111.525-.293.707S20.276 19 20 19H4c-.276 0-.525-.111-.707-.293S3 18.276 3 18v-5h4.465l1.703 2.555A1 1 0 0010 16h4c.326-.002.64-.158.832-.445L16.535 13zM6.344 5.558c.066-.131.16-.246.272-.337A.985.985 0 017.24 5h9.513c.15.001.295.034.426.094.201.092.37.249.477.464L20.381 11H16a1 1 0 00-.832.445L13.465 14h-2.93l-1.703-2.555A1.002 1.002 0 008 11H3.619zm-1.788-.896l-3.441 6.872A.987.987 0 001 12v6a2.997 2.997 0 003 3h16a2.997 2.997 0 003-3v-6a.984.984 0 00-.091-.417l-.015-.031-.009-.018-3.441-6.872a2.978 2.978 0 00-1.433-1.387A3.05 3.05 0 0016.767 3H7.24c-.711 0-1.367.249-1.883.667a3.038 3.038 0 00-.801.995z"/></svg>