<svg xmlns="http://www.w3.org/2000/svg" width="24" height="24" viewBox="0 0 24 24"><path fill="currentColor" d="M22 11.497V11l-.002-.058a9.515 9.515 0 00-2.642-6.051A9.43 9.43 0 0013 2h-.489a9.266 9.266 0 00-4.264 1.008 9.676 9.676 0 00-3.139 2.535A9.432 9.432 0 003 11.489a9.229 9.229 0 00.824 3.877l-1.772 5.317a1 1 0 001.265 1.264l5.314-1.771a9.338 9.338 0 003.876.823 9.672 9.672 0 003.941-.866 9.431 9.431 0 004.541-4.375A9.27 9.27 0 0022 11.497zm-2 .006a7.274 7.274 0 01-.789 3.339 7.443 7.443 0 01-3.592 3.472 7.657 7.657 0 01-3.126.686 7.27 7.27 0 01-3.335-.789.997.997 0 00-.775-.06L4.58 19.419l1.268-3.803a.996.996 0 00-.056-.767A7.275 7.275 0 015 11.511a7.442 7.442 0 011.663-4.709 7.661 7.661 0 012.49-2.01A7.262 7.262 0 0112.489 4h.456a7.426 7.426 0 014.969 2.277A7.52 7.52 0 0120 11.03z"/></svg>