<svg xmlns="http://www.w3.org/2000/svg" width="24" height="24" viewBox="0 0 24 24"><path fill="currentColor" d="M7 3v3c0 .276-.111.525-.293.707S6.276 7 6 7H3a1 1 0 000 2h3a2.997 2.997 0 003-3V3a1 1 0 00-2 0zm14 4h-3c-.276 0-.525-.111-.707-.293S17 6.276 17 6V3a1 1 0 00-2 0v3a2.997 2.997 0 003 3h3a1 1 0 000-2zm-4 14v-3c0-.276.111-.525.293-.707S17.724 17 18 17h3a1 1 0 000-2h-3a2.997 2.997 0 00-3 3v3a1 1 0 002 0zM3 17h3c.276 0 .525.111.707.293S7 17.724 7 18v3a1 1 0 002 0v-3a2.997 2.997 0 00-3-3H3a1 1 0 000 2z"/></svg>