<svg xmlns="http://www.w3.org/2000/svg" width="24" height="24" viewBox="0 0 24 24"><path fill="currentColor" d="M16 12c0-1.104-.449-2.106-1.172-2.828a3.994 3.994 0 00-5.656 0 3.994 3.994 0 000 5.656 3.994 3.994 0 005.656 0A3.994 3.994 0 0016 12zm-2 0c0 .553-.223 1.051-.586 1.414S12.553 14 12 14s-1.051-.223-1.414-.586S10 12.553 10 12s.223-1.051.586-1.414S11.447 10 12 10s1.051.223 1.414.586S14 11.447 14 12zm6.315 3.404a.687.687 0 01.192-.257.637.637 0 01.403-.147H21a2.997 2.997 0 002.121-5.121A2.997 2.997 0 0021 9h-.159a.684.684 0 01-.308-.076.64.64 0 01-.292-.312.87.87 0 01-.004-.089.685.685 0 01-.049-.168c.02-.334.077-.454.168-.547l.062-.062a2.997 2.997 0 00-2.126-5.121 2.995 2.995 0 00-2.12.879l-.046.046a.688.688 0 01-.288.166.68.68 0 01-.691-.223A.637.637 0 0115 3.09V3A2.997 2.997 0 009.879.879 2.997 2.997 0 009 3v.159a.684.684 0 01-.076.308.64.64 0 01-.312.292.87.87 0 01-.089.004.685.685 0 01-.168.049c-.335-.021-.455-.078-.548-.169l-.062-.062a2.996 2.996 0 00-4.244.004 2.996 2.996 0 00.001 4.242l.048.047c.08.083.136.183.166.288a.64.64 0 01-.031.434.947.947 0 01-.021.052.682.682 0 01-.191.275.625.625 0 01-.383.156H3a3 3 0 100 6.001h.159c.11.001.215.028.308.076a.642.642 0 01.296.321c.024.055.04.111.049.168-.02.334-.077.454-.168.547l-.062.062a2.997 2.997 0 002.126 5.121 2.995 2.995 0 002.12-.879l.047-.048a.688.688 0 01.288-.166.64.64 0 01.434.031.947.947 0 01.052.021.682.682 0 01.275.191c.095.11.153.25.156.383V21a2.997 2.997 0 005.121 2.121A2.997 2.997 0 0015.08 21v-.159a.684.684 0 01.076-.308.642.642 0 01.321-.296.685.685 0 01.168-.049c.334.02.454.077.547.168l.062.062a2.997 2.997 0 005.121-2.126 2.995 2.995 0 00-.879-2.12l-.048-.047a.688.688 0 01-.166-.288.64.64 0 01.031-.434zm-1.919-6.102a1.014 1.014 0 00-.076-.382V9c0 .043.003.084.008.125.021.06.043.119.068.177l.005.092c.249.581.684 1.03 1.208 1.303A2.69 2.69 0 0020.82 11H21c.276 0 .525.111.707.293S22 11.724 22 12s-.111.525-.293.707S21.276 13 21 13h-.09a2.643 2.643 0 00-1.675.603 2.68 2.68 0 00-.75.993 2.633 2.633 0 00-.127 1.782c.119.423.341.814.652 1.136l.072.073c.196.196.294.45.294.707s-.097.512-.292.707c-.197.197-.451.295-.709.295s-.512-.097-.707-.292l-.061-.061a2.64 2.64 0 00-1.632-.752 2.685 2.685 0 00-1.293.212 2.639 2.639 0 00-1.3 1.206 2.69 2.69 0 00-.303 1.211v.181a.994.994 0 01-.999.999c-.276 0-.525-.111-.707-.293s-.293-.431-.293-.707v-.09a2.653 2.653 0 00-1.702-2.436 2.634 2.634 0 00-1.756-.116 2.678 2.678 0 00-1.136.652l-.073.072c-.196.196-.45.294-.707.294s-.512-.097-.707-.292c-.197-.197-.295-.451-.295-.709s.097-.512.292-.707l.061-.061a2.64 2.64 0 00.752-1.632 2.685 2.685 0 00-.212-1.293 2.639 2.639 0 00-1.206-1.3 2.69 2.69 0 00-1.211-.303L3 13.08c-.276 0-.525-.111-.707-.293S2 12.356 2 12.08s.111-.525.293-.707.431-.293.707-.293h.09a2.653 2.653 0 002.436-1.702 2.634 2.634 0 00.116-1.756 2.678 2.678 0 00-.652-1.136l-.073-.073c-.196-.196-.294-.45-.294-.707s.097-.512.292-.707c.197-.197.451-.295.709-.295s.512.097.707.292l.061.061a2.64 2.64 0 001.632.752c.37.032.745-.014 1.101-.137a.93.93 0 00.266-.072l-.089.004a1.014 1.014 0 00-.382.076H9c.043 0 .084-.003.125-.008.06-.021.119-.043.177-.068l.092-.005a2.636 2.636 0 001.303-1.208c.193-.37.298-.785.303-1.21V3c0-.276.111-.525.293-.707S11.724 2 12 2s.525.111.707.293S13 2.724 13 3v.09c.003.637.228 1.22.603 1.675.266.323.607.581.996.751a2.632 2.632 0 001.778.125 2.678 2.678 0 001.136-.652l.073-.072c.196-.196.45-.294.707-.294s.512.097.707.292c.197.197.295.451.295.709s-.097.512-.292.707l-.061.061a2.64 2.64 0 00-.752 1.632c-.032.37.014.745.137 1.101a.983.983 0 00.072.266 2.159 2.159 0 00-.004-.089z"/></svg>