<svg xmlns="http://www.w3.org/2000/svg" width="24" height="24" viewBox="0 0 24 24"><path fill="currentColor" d="M17 21v-2c0-1.38-.561-2.632-1.464-3.536S13.38 14 12 14H5c-1.38 0-2.632.561-3.536 1.464S0 17.62 0 19v2a1 1 0 002 0v-2c0-.829.335-1.577.879-2.121S4.171 16 5 16h7c.829 0 1.577.335 2.121.879S15 18.171 15 19v2a1 1 0 002 0zM13.5 7c0-1.38-.561-2.632-1.464-3.536S9.88 2 8.5 2s-2.632.561-3.536 1.464S3.5 5.62 3.5 7s.561 2.632 1.464 3.536S7.12 12 8.5 12s2.632-.561 3.536-1.464S13.5 8.38 13.5 7zm-2 0c0 .829-.335 1.577-.879 2.121S9.329 10 8.5 10s-1.577-.335-2.121-.879S5.5 7.829 5.5 7s.335-1.577.879-2.121S7.671 4 8.5 4s1.577.335 2.121.879S11.5 6.171 11.5 7zM23 10h-2V8a1 1 0 00-2 0v2h-2a1 1 0 000 2h2v2a1 1 0 002 0v-2h2a1 1 0 000-2z"/></svg>