<svg width="24" height="24" viewBox="0 0 24 24" fill="none" xmlns="http://www.w3.org/2000/svg"><path d="M12 11a1 1 0 100 2v-2zm3 2a1 1 0 100-2v2zm-3 2a1 1 0 100 2v-2zm3 2a1 1 0 100-2v2zm-6-6a1 1 0 100 2v-2zm.01 2a1 1 0 100-2v2zM9 15a1 1 0 100 2v-2zm.01 2a1 1 0 100-2v2zM18 7v12h2V7h-2zm-1 13H7v2h10v-2zM6 19V7H4v12h2zM7 6h2V4H7v2zm8 0h2V4h-2v2zM7 20a1 1 0 01-1-1H4a3 3 0 003 3v-2zm11-1a1 1 0 01-1 1v2a3 3 0 003-3h-2zm2-12a3 3 0 00-3-3v2a1 1 0 011 1h2zM6 7a1 1 0 011-1V4a3 3 0 00-3 3h2zm6 6h3v-2h-3v2zm0 4h3v-2h-3v2zM11 4h2V2h-2v2zm2 2h-2v2h2V6zm-2 0a1 1 0 01-1-1H8a3 3 0 003 3V6zm3-1a1 1 0 01-1 1v2a3 3 0 003-3h-2zm-1-1a1 1 0 011 1h2a3 3 0 00-3-3v2zm-2-2a3 3 0 00-3 3h2a1 1 0 011-1V2zM9 13h.01v-2H9v2zm0 4h.01v-2H9v2z" fill="currentColor"/></svg>