<svg width="24" height="24" viewBox="0 0 24 24" fill="none" xmlns="http://www.w3.org/2000/svg"><g clip-path="url(#clip0_828_112)" stroke="currentColor" stroke-width="2" stroke-linecap="round" stroke-linejoin="round"><path d="M5.583 6.042a3.208 3.208 0 013.209-3.209H12V9.25H8.792a3.208 3.208 0 01-3.209-3.208zM12 2.833h3.208a3.208 3.208 0 110 6.417H12V2.833z"/><path d="M12 12.458a3.208 3.208 0 116.417 0 3.208 3.208 0 01-6.417 0v0zm-6.417 6.417a3.209 3.209 0 013.209-3.208H12v3.208a3.208 3.208 0 11-6.417 0zm0-6.417A3.208 3.208 0 018.792 9.25H12v6.417H8.792a3.209 3.209 0 01-3.209-3.209z"/></g><defs><clipPath id="clip0_828_112"><path fill="#fff" transform="translate(1 1)" d="M0 0h22v22H0z"/></clipPath></defs></svg>