<svg width="24" height="24" viewBox="0 0 24 24" fill="none" xmlns="http://www.w3.org/2000/svg"><path d="M9.5 17.833c-4.167 1.25-4.167-2.083-5.833-2.5m11.666 5v-3.225a2.807 2.807 0 00-.783-2.175c2.617-.291 5.367-1.283 5.367-5.833a4.534 4.534 0 00-1.25-3.125 4.225 4.225 0 00-.075-3.142s-.984-.291-3.259 1.234a11.15 11.15 0 00-5.833 0C7.225 2.542 6.242 2.833 6.242 2.833a4.225 4.225 0 00-.075 3.142 4.533 4.533 0 00-1.25 3.15c0 4.517 2.75 5.508 5.366 5.833a2.808 2.808 0 00-.783 2.15v3.225" stroke="currentColor" stroke-width="2" stroke-linecap="round" stroke-linejoin="round"/></svg>