<svg width="24" height="24" viewBox="0 0 24 24" fill="none" xmlns="http://www.w3.org/2000/svg"><g clip-path="url(#clip0_828_125)"><path d="M20.875 13.992L12 20.442l-8.875-6.45a.7.7 0 01-.25-.784l1.017-3.15L5.925 3.8a.358.358 0 01.575-.133.35.35 0 01.092.15l2.033 6.241h6.75L17.408 3.8a.358.358 0 01.575-.133.35.35 0 01.092.15l2.033 6.258 1.059 3.133a.7.7 0 01-.292.784v0z" stroke="currentColor" stroke-width="2" stroke-linecap="round" stroke-linejoin="round"/></g><defs><clipPath id="clip0_828_125"><path fill="#fff" transform="translate(2 2)" d="M0 0h20v20H0z"/></clipPath></defs></svg>