<svg width="24" height="24" viewBox="0 0 24 24" fill="none" xmlns="http://www.w3.org/2000/svg"><path d="M16 11v1h1v-1h-1zm-8 0H7v1h1v-1zm5 4a1 1 0 10-2 0h2zm-2 2a1 1 0 102 0h-2zm-5-5h12v-2H6v2zm13 1v6h2v-6h-2zm-1 7H6v2h12v-2zM5 19v-6H3v6h2zm1 1a1 1 0 01-1-1H3a3 3 0 003 3v-2zm13-1a1 1 0 01-1 1v2a3 3 0 003-3h-2zm-1-7a1 1 0 011 1h2a3 3 0 00-3-3v2zM6 10a3 3 0 00-3 3h2a1 1 0 011-1v-2zm9-3v4h2V7h-2zm1 3H8v2h8v-2zm-7 1V7H7v4h2zm3-7a3 3 0 013 3h2a5 5 0 00-5-5v2zm0-2a5 5 0 00-5 5h2a3 3 0 013-3V2zm-1 13v2h2v-2h-2z" fill="currentColor"/></svg>