<svg width="24" height="24" viewBox="0 0 24 24" fill="none" xmlns="http://www.w3.org/2000/svg"><path d="M13 4a1 1 0 10-2 0h2zm-2 1a1 1 0 102 0h-2zm7 10a1 1 0 100 2v-2zm2 2a1 1 0 100-2v2zm-8-1v-1a1 1 0 00-1 1h1zm2 1a1 1 0 100-2v2zm-3 3a1 1 0 102 0h-2zm2-11a1 1 0 10-2 0h2zm-1 3h-1a1 1 0 001 1v-1zm4 7a1 1 0 100 2v-2zm4 2a1 1 0 100-2v2zM4 11a1 1 0 100 2v-2zm4 2a1 1 0 100-2v2zm4.01 0a1 1 0 100-2v2zm4 0a1 1 0 100-2v2zM20 11a1 1 0 100 2v-2zm.01 2a1 1 0 100-2v2zM5 5h2V3H5v2zm2 0v2h2V5H7zm0 2H5v2h2V7zM5 7V5H3v2h2zm0 0H3a2 2 0 002 2V7zm2 0v2a2 2 0 002-2H7zm0-2h2a2 2 0 00-2-2v2zM5 3a2 2 0 00-2 2h2V3zm12 2h2V3h-2v2zm2 0v2h2V5h-2zm0 2h-2v2h2V7zm-2 0V5h-2v2h2zm0 0h-2a2 2 0 002 2V7zm2 0v2a2 2 0 002-2h-2zm0-2h2a2 2 0 00-2-2v2zm-2-2a2 2 0 00-2 2h2V3zM5 17h2v-2H5v2zm2 0v2h2v-2H7zm0 2H5v2h2v-2zm-2 0v-2H3v2h2zm0 0H3a2 2 0 002 2v-2zm2 0v2a2 2 0 002-2H7zm0-2h2a2 2 0 00-2-2v2zm-2-2a2 2 0 00-2 2h2v-2zm6-11v1h2V4h-2zm7 13h2v-2h-2v2zm-6 0h2v-2h-2v2zm-1-1v4h2v-4h-2zm0-7v3h2V9h-2zm5 12h4v-2h-4v2zM4 13h4v-2H4v2zm8 0h.01v-2H12v2zm8 0h.01v-2H20v2zm-8 0h4.01v-2H12v2z" fill="currentColor"/></svg>