<svg width="24" height="24" viewBox="0 0 24 24" fill="none" xmlns="http://www.w3.org/2000/svg"><path d="M20 21l-.447.894A1 1 0 0021 21h-1zM4 21H3a1 1 0 001.447.894L4 21zm8 0l-.447.894a1 1 0 00.894 0L12 21zm-4-2l.447-.894a1 1 0 00-.894 0L8 19zm8 0l.447-.894a1 1 0 00-.894 0L16 19zm-1-4a1 1 0 102 0h-2zm-7-5l-.707-.707a1 1 0 000 1.414L8 10zm2.293 3.707a1 1 0 001.414-1.414l-1.414 1.414zm1.414-6a1 1 0 00-1.414-1.414l1.414 1.414zM6 4h12V2H6v2zm13 1v16h2V5h-2zM5 21V5H3v16h2zm7.447-.894l-4-2-.894 1.788 4 2 .894-1.788zm-4.894-2l-4 2 .894 1.788 4-2-.894-1.788zm12.894 2l-4-2-.894 1.788 4 2 .894-1.788zm-4.894-2l-4 2 .894 1.788 4-2-.894-1.788zM18 4a1 1 0 011 1h2a3 3 0 00-3-3v2zM6 2a3 3 0 00-3 3h2a1 1 0 011-1V2zm11 13v-1h-2v1h2zm-5-6H8v2h4V9zm5 5a5 5 0 00-5-5v2a3 3 0 013 3h2zm-5.293-1.707l-3-3-1.414 1.414 3 3 1.414-1.414zm-3-1.586l3-3-1.414-1.414-3 3 1.414 1.414z" fill="currentColor"/></svg>