<svg width="24" height="24" viewBox="0 0 24 24" fill="none" xmlns="http://www.w3.org/2000/svg"><path d="M13.5 3.677l-.75.662.043.045.707-.707zm6.823 9.823l-.662-.75a.96.96 0 00-.045.043l.707.707zm.177-2.823l.75-.662a.947.947 0 00-.043-.045l-.707.707zM10.677 20.5l-.707.707.045.043.662-.75zm2.646 0l.662.75a.96.96 0 00.045-.043l-.707-.707zm-9.646-7l.707-.707-.022-.022-.023-.02-.662.749zM7 6a1 1 0 000 2V6zm.01 2a1 1 0 000-2v2zM4 7a3 3 0 013-3V2a5 5 0 00-5 5h2zm0 5V7H2v5h2zm3-8h5V2H7v2zm5 0c.299 0 .566.13.75.339l1.5-1.324A2.995 2.995 0 0012 2v2zm8 8c0 .299-.13.566-.339.75l1.324 1.5A2.995 2.995 0 0022 12h-2zm-.25-.661c.156.177.25.407.25.661h2c0-.76-.284-1.456-.75-1.985l-1.5 1.324zM12 20a.993.993 0 01-.661-.25l-1.324 1.5c.529.466 1.225.75 1.985.75v-2zm.661-.25A.993.993 0 0112 20v2c.76 0 1.456-.284 1.985-.75l-1.324-1.5zm-8.322-7A.995.995 0 014 12H2c0 .896.394 1.701 1.015 2.25l1.324-1.5zm8.454-8.366l7 7 1.414-1.414-7-7-1.414 1.414zm-1.409 15.409l-7-7-1.414 1.414 7 7 1.414-1.414zm8.232-7l-7 7 1.414 1.414 7-7-1.414-1.414zM7 8h.01V6H7v2z" fill="currentColor"/></svg>