<svg width="24" height="24" viewBox="0 0 24 24" fill="none" xmlns="http://www.w3.org/2000/svg"><path d="M21 10v1a1 1 0 001-1h-1zm0 4h1a1 1 0 00-1-1v1zM3 14v-1a1 1 0 00-1 1h1zm0-4H2a1 1 0 001 1v-1zm13-5a1 1 0 10-2 0h2zm-2 2a1 1 0 102 0h-2zm2 4a1 1 0 10-2 0h2zm-2 2a1 1 0 102 0h-2zm2 4a1 1 0 10-2 0h2zm-2 2a1 1 0 102 0h-2zM5 4a3 3 0 00-3 3h2a1 1 0 011-1V4zm14 0H5v2h14V4zm3 3a3 3 0 00-3-3v2a1 1 0 011 1h2zm0 3V7h-2v3h2zm-2 2a1 1 0 011-1V9a3 3 0 00-3 3h2zm1 1a1 1 0 01-1-1h-2a3 3 0 003 3v-2zm1 4v-3h-2v3h2zm-3 3a3 3 0 003-3h-2a1 1 0 01-1 1v2zM5 20h14v-2H5v2zm-3-3a3 3 0 003 3v-2a1 1 0 01-1-1H2zm0-3v3h2v-3H2zm2-2a1 1 0 01-1 1v2a3 3 0 003-3H4zm-1-1a1 1 0 011 1h2a3 3 0 00-3-3v2zM2 7v3h2V7H2zm12-2v2h2V5h-2zm0 6v2h2v-2h-2zm0 6v2h2v-2h-2z" fill="currentColor"/></svg>