<svg width="24" height="24" viewBox="0 0 24 24" fill="none" xmlns="http://www.w3.org/2000/svg"><g clip-path="url(#clip0_828_128)" stroke="currentColor" stroke-width="2" stroke-linecap="round" stroke-linejoin="round"><path d="M21.662 6.885a2.549 2.549 0 00-1.779-1.833C18.307 4.667 12 4.667 12 4.667s-6.307 0-7.883.421a2.548 2.548 0 00-1.779 1.834c-.288 1.6-.43 3.223-.421 4.849a26.6 26.6 0 00.421 4.886 2.548 2.548 0 001.779 1.76c1.576.421 7.883.421 7.883.421s6.307 0 7.883-.421a2.549 2.549 0 001.779-1.834c.286-1.588.427-3.199.421-4.812.01-1.638-.13-3.274-.421-4.886v0z"/><path d="M9.938 14.768l5.27-2.997-5.27-2.998v5.995z"/></g><defs><clipPath id="clip0_828_128"><path fill="#fff" transform="translate(1 1)" d="M0 0h22v22H0z"/></clipPath></defs></svg>