<svg width="48" height="32" viewBox="0 0 48 32" fill="none" xmlns="http://www.w3.org/2000/svg"><path fill-rule="evenodd" clip-rule="evenodd" d="M2.5 8.5h1.7l2.4 5.6H5.1L4.6 13H2l-.5 1.2H0l2.5-5.7zm.4 2.1l-.5 1.3h1.8l-.5-1.3-.4-.9-.4.9z" fill="currentColor"/><path d="M12.6 9.6l-.3.8-1.3 3.7H9.8l-1.3-3.7-.3-.8v4.5H6.9V8.5h2.2l1.1 3.3.2.6.2-.6 1.1-3.3h2.2v5.6h-1.3V9.6zM16.3 9.7v1h3.1v1.2h-3.1v1h3.2v1.2H15V8.5h4.5v1.2h-3.2z" fill="currentColor"/><path fill-rule="evenodd" clip-rule="evenodd" d="M25.5 10.3c.1.9-.6 1.7-1.5 1.8l1.8 2h-1.7l-1.7-2h-.6v2h-1.4V8.5h3.1c1-.2 1.9.5 2 1.5v.3zm-2.1-.6H21.7v1.2h1.6c.3 0 .6-.2.7-.5v-.1c0-.2 0-.3-.1-.4l-.1-.1c-.05 0-.075-.025-.1-.05-.025-.025-.05-.05-.1-.05h-.2z" fill="currentColor"/><path fill="currentColor" d="M26.1 8.5h1.4v5.6h-1.4zM31 8.5h1.6v1.2h-1.5c-.8 0-1.4.6-1.5 1.3V11.3c-.1.8.4 1.5 1.2 1.6H31.4l-.4 1.2h-.1c-1.4.1-2.6-1-2.6-2.4v-.5c-.1-1.4.9-2.6 2.3-2.8.1.1.3.1.4.1z"/><path fill-rule="evenodd" clip-rule="evenodd" d="M34.1 8.5h1.8l2.5 5.6h-1.5l-.5-1.1h-2.7l-.5 1.2h-1.5l2.4-5.7zm.5 2.1l-.5 1.3h1.8l-.6-1.3-.3-.9-.4.9z" fill="currentColor"/><path d="M39.9 14.2h-1.3V8.5h1.6l2 3 .4.6V8.5H44v5.6h-1.7l-2-3.1-.4-.6v3.8zM11.5 20.4v1h3.2v1.1h-3.2v1h3.2v1.2h-4.5v-5.5h4.5v1.2h-3.2zM15 24.8l2.2-2.8-2.3-2.8h1.7l1.4 1.7 1.4-1.7H21L18.8 22l2.3 2.8h-1.7L18 23l-1.4 1.8H15z" fill="currentColor"/><path fill-rule="evenodd" clip-rule="evenodd" d="M24.4 19.2c1-.1 1.9.6 2 1.6 0 .1 0 .2-.1.2 0 1-.8 1.9-1.8 1.9h-1.9v1.9h-1.3v-5.6h3.1zm-1.7 2.5h1.6c.4 0 .7-.3.7-.7 0-.4-.3-.7-.7-.7h-1.6v1.4zM32.2 20.7c.1 1-.6 1.9-1.6 2l1.8 2h-1.7l-1.7-2h-.6v2h-1.3v-5.6h3.1c1-.1 1.9.6 2 1.6zm-3.7.9h1.6c.3.1.6-.2.7-.5V21c0-.3-.3-.6-.6-.6H28.5v1.2z" fill="currentColor"/><path d="M34.2 20.4v1h3.1v1.1h-3.1v1h3.2v1.2h-4.6v-5.5h4.6l-.1 1.2h-3.1zM41.6 23.2c.1-.3-.1-.5-.4-.6h-1.5c-.9.1-1.6-.5-1.8-1.4v-.3c0-1 .8-1.8 1.7-1.8h3.1l-.5 1.2h-2.4c-.3-.1-.5.1-.6.4-.1.3.1.5.4.6h1.5c.8-.1 1.6.5 1.8 1.3v.3c0 1-.7 1.8-1.7 1.8h-3.1v-1.2H41c.3.2.5 0 .6-.3z" fill="currentColor"/><path d="M48 17.9H18.9l-.9 1.2-.8-1.2H8.9v8.2h8.3l.9-1.2.8 1.2h5v-1.8h.6c.5 0 1-.1 1.5-.2v2.1h3.4v-1.5l1.2 1.5h15.6c.6 0 1.3-.2 1.8-.5v-1.9c-.3.8-1 1.2-1.8 1.1h-2.9v-1.2h2.9c.3.1.5-.1.6-.4.1-.3-.1-.5-.4-.6h-1.5c-.9.1-1.6-.5-1.8-1.4V21c0-1 .7-1.8 1.7-1.8H48V28c0 2.2-1.8 4-4 4H4c-2.2 0-4-1.8-4-4V15.4h2.3l.5-1.2h1.1l.5 1.2h18.3v-1.5l1.2 1.5h4.8v-.7c.7.5 1.5.8 2.4.7H34l.5-1.2h1.1l.5 1.2H41v-1.6l1 1.6h3.4V7.2h-3.6v1.7l-1.1-1.7h-3.1v2.1l-1-2.1h-5.3c-.9 0-1.8.3-2.5.8v-.8H11L10.4 9l-.6-1.8h-4v2.1l-.9-2.1H1.6L0 11V4c0-2.2 1.8-4 4-4h40c2.2 0 4 1.8 4 4v13.9z" fill="currentColor"/><g fill="#fff"><path fill-rule="evenodd" clip-rule="evenodd" d="M23.4 10.9c.3.1.6-.1.7-.5-.1.3-.4.6-.7.5z"/><path d="M47.5 20.4H45c-.3-.1-.5.1-.6.4-.1.3.1.5.4.6h1.5c.7-.1 1.3.3 1.6.9v-3.1l-.4 1.2z"/></g></svg>