<svg width="48" height="32" viewBox="0 0 48 32" fill="none" xmlns="http://www.w3.org/2000/svg"><g fill-rule="evenodd" clip-rule="evenodd" fill="currentColor"><path d="M28.68 14.48c.2-1.4-.86-2.16-2.34-2.66l.48-1.92-1.16-.28-.46 1.86-.16-.04c-.261-.066-.514-.13-.78-.18l.46-1.88-1.16-.3-.48 1.92-.74-.18-1.6-.4-.3 1.24s.84.2.84.22a.6.6 0 01.54.66l-.54 2.18-.76 3a.43.43 0 01-.54.28c-.06 0-.84-.2-.84-.2l-.58 1.32 1.52.38.82.22-.48 1.92 1.16.3.48-1.92c.302.096.61.176.92.24l-.46 1.92 1.16.28.48-1.92c2 .36 3.48.22 4.1-1.58a2 2 0 00-1.06-2.76 1.87 1.87 0 001.48-1.72zM26 18.22c-.333 1.333-2.449.764-3.38.513l-.2-.053.64-2.56c.079.02.175.041.283.066.99.224 3.017.682 2.657 2.034zm-2.467-3.215c.773.205 2.532.672 2.827-.545h.02c.3-1.198-1.31-1.574-2.15-1.77a8.57 8.57 0 01-.29-.07l-.58 2.34.173.045z"/><path d="M4 0h40a4 4 0 014 4v24a4 4 0 01-4 4H4a4 4 0 01-4-4V4a4 4 0 014-4zm17.445 26.273c5.674 1.414 11.42-2.04 12.835-7.713a10.58 10.58 0 00-7.72-12.84c-5.675-1.41-11.42 2.045-12.832 7.72-1.412 5.674 2.042 11.42 7.717 12.833z"/></g></svg>