<svg width="48" height="32" viewBox="0 0 48 32" fill="none" xmlns="http://www.w3.org/2000/svg"><g fill="currentColor"><path d="M7.3 15.44a2.31 2.31 0 01-1.72.56h-.32v-4.28h.32a2.34 2.34 0 011.72.52c.453.407.709.99.7 1.6a2.14 2.14 0 01-.7 1.6z"/><path fill-rule="evenodd" clip-rule="evenodd" d="M4 0h40a4 4 0 014 4v12.14c-.6.5-1.28 1-2 1.5-6.44 4.36-17.88 8.8-31.1 11.82l-.762.171h-.001c-.567.13-1.137.259-1.717.369-3.18.68-6.42 1.28-9.78 1.76A4 4 0 010 28V4a4 4 0 014-4zm39.644 10.578a.38.38 0 01.276-.118h.02l.004.004a.38.38 0 00-.22.114l-.002.002a.39.39 0 00-.032.04h-.01v.014a.378.378 0 00-.03.056.38.38 0 00-.05.21.39.39 0 00.08.268v.022a.387.387 0 01-.14-.33.38.38 0 01.104-.282zm.048.622l-.006-.005-.006-.005v.01h.012zm.015 0h-.015a.39.39 0 00.051.033.39.39 0 00.237.087.32.32 0 00.26-.12h-.018a.32.32 0 00.038-.04h-.067a.46.46 0 00.087-.26.38.38 0 00-.321-.438.384.384 0 01.04-.002h-.059l.019.002h-.001l-.014.002.036.036a.38.38 0 00-.276.118l-.002.002h-.012a.442.442 0 00-.01.014v.012a.373.373 0 00-.03.044.38.38 0 00-.03.17.39.39 0 00.06.24v.068a.435.435 0 00.02.024l.007.008zm.065 0h-.065a.389.389 0 00.036.033.39.39 0 00.225.045l.032.002a.32.32 0 00.222-.08h-.062a.478.478 0 00.033-.04h-.013a.307.307 0 01-.027.03l-.173-.25a.15.15 0 00.12-.14c0-.12-.08-.18-.22-.18h-.178a.394.394 0 00-.022.026v.454a.396.396 0 00.04.052l.007.008a.394.394 0 00.045.04zm.37 0a.265.265 0 00.01-.01l.008.01h-.018zm0 0H44l-.18-.24v.24h-.048a.39.39 0 00.196.078.32.32 0 00.174-.078zm-.202-.44c0 .025-.007.04-.02.049a.059.059 0 01-.02.007v-.076h.04v.02zm.06.049a.12.12 0 000-.009c0-.025 0-.04-.007-.048-.008-.009-.023-.011-.053-.012 0-.013-.002-.022-.007-.028a.025.025 0 00-.013-.008c-.014-.004-.038-.004-.08-.004v.12c.023 0 .044 0 .06-.004v.044c.057 0 .096 0 .1-.051zm-.08.011c.034 0 .062 0 .08-.011-.018.011-.046.011-.08.011zm.1-.06c0-.056-.017-.06-.1-.06.058 0 .083 0 .093.012.007.008.007.023.007.048zM15.34 31.42l-.76.16c-.58.14-1.18.28-1.78.38H44a4 4 0 004-4v-9.3a14.36 14.36 0 01-.49.355c-.121.086-.246.174-.37.265-6.8 4.6-18.68 9.14-31.8 12.14zm-7.22-15.1a3.41 3.41 0 01-2.3.72H4v-6.4h1.82a3.22 3.22 0 012.3 5.68zm1.74.74h1.26l-.02-6.42H9.86v6.42zM11.58 16a2.5 2.5 0 002.225 1.2 2.07 2.07 0 002.315-2.08c0-1-.42-1.48-1.86-2-.78-.28-1-.42-1-.82 0-.4.38-.7.92-.7a1.26 1.26 0 011 .52l.66-.86a2.78 2.78 0 00-1.9-.72 1.9 1.9 0 00-2 1.84c0 .88.4 1.34 1.58 1.76a9.791 9.791 0 01.88.36.81.81 0 01.36.68.9.9 0 01-1 .9 1.51 1.51 0 01-1.38-.86l-.8.78zm8.24-4.36a2 2 0 011.56.72l-.02-1.52a3.16 3.16 0 00-1.54-.4 3.38 3.38 0 00-3.4 3.36 3.32 3.32 0 003.38 3.36 3.51 3.51 0 001.56-.38V15.3a2 2 0 01-1.5.7 2.09 2.09 0 01-2.14-2.16 2.12 2.12 0 012.1-2.2zm5.38 5.62a3.41 3.41 0 113.42-3.42 3.43 3.43 0 01-3.44 3.42h.02zm5.76 0h.68l2.7-6.62H33l-1.68 4.34-1.72-4.3h-1.36l2.72 6.58zm7.56-5.5H36.2v1.42h2.22v1.1H36.2V16h2.3v1.1H35v-6.46h3.5l.02 1.12zm2.26 2.74l1.74 2.58L44 17l-2-2.64a1.73 1.73 0 001.46-1.88c0-1.2-.82-1.88-2.28-1.88h-1.84V17h1.26v-2.5h.18zm3.2-3.12a.47.47 0 01-.48-.48.5.5 0 011 0 .47.47 0 01-.56.44l.04.04zm-3.38.26h.4c.74 0 1.2.28 1.2.94 0 .66-.42 1-1.2 1h-.4v-1.94z"/></g></svg>