<svg width="48" height="32" viewBox="0 0 48 32" fill="none" xmlns="http://www.w3.org/2000/svg"><path fill-rule="evenodd" clip-rule="evenodd" d="M4 0h40a4 4 0 014 4v24a4 4 0 01-4 4H4a4 4 0 01-4-4V4a4 4 0 014-4zm9.88 28a4 4 0 004-4l-.03-20H12a4 4 0 00-4 4v9.87a7.91 7.91 0 003.48.92 1.92 1.92 0 002.14-2v-4.66h3.41v4.64c0 1.8-1.12 3.27-4.92 3.27a17 17 0 01-4.11-.5V28h5.88zM29 24a4 4 0 01-4 4h-5.91v-9.23c1 .86 2.77 1.41 5.6 1.27 1.06-.061 2.11-.222 3.14-.48v-1.69a8.099 8.099 0 01-3 .88c-2.15.17-3.45-.88-3.45-2.75s1.3-2.9 3.45-2.75a7.591 7.591 0 013 .88v-1.69a17.277 17.277 0 00-3.14-.44c-2.83-.14-4.59.41-5.6 1.27V8a4 4 0 014-4H29v20zm7 4a4 4 0 004-4V4h-5.86a4 4 0 00-4 4v4.14h5.65c.133-.016.267-.016.4 0 1.27.06 2.22.72 2.22 1.86a1.88 1.88 0 01-1.83 1.91c1.29.09 2.29.74 2.29 1.94s-1.1 2-2.55 2h-6.2V28H36zm-1.58-11.52c.093-.01.187-.01.28 0 .463.116.793.523.81 1a1 1 0 01-.81 1H32.1v-2.02l2.32.02zm-2.32-3.14v1.93l2.09.01a.93.93 0 001.03-.94.94.94 0 00-.81-1H32.1z" fill="currentColor"/></svg>