<svg width="48" height="32" viewBox="0 0 48 32" fill="none" xmlns="http://www.w3.org/2000/svg"><path fill-rule="evenodd" clip-rule="evenodd" d="M4 0h40a4 4 0 014 4v24a4 4 0 01-4 4H4a4 4 0 01-4-4V4a4 4 0 014-4zm18.22 25.46A12.65 12.65 0 0117.94 16a12.47 12.47 0 014.28-9.46 10.61 10.61 0 100 18.92zM24 7.66a10.61 10.61 0 010 16.68 10.6 10.6 0 010-16.68zm1.78 17.8a10.59 10.59 0 004.78 1.14 10.6 10.6 0 10-4.8-20.06 11.44 11.44 0 011.6 1.66c4.122 5.266 3.43 12.83-1.58 17.26z" fill="currentColor"/><path fill-rule="evenodd" clip-rule="evenodd" d="M4.65 28.8V3.2h38.7v25.6H4.65zm3.824-18.518A10.6 10.6 0 0010.9 24.34a10.56 10.56 0 0011.32 1.12A12.65 12.65 0 0117.94 16a12.47 12.47 0 014.3-9.46 10.6 10.6 0 00-13.766 3.742zM24 24.34a10.6 10.6 0 010-16.68 10.61 10.61 0 010 16.68zm1.78 1.12a10.59 10.59 0 004.78 1.14 10.6 10.6 0 10-4.8-20.06 11.44 11.44 0 011.6 1.66c4.122 5.266 3.43 12.83-1.58 17.26z" fill="currentColor" opacity=".01"/><path fill-rule="evenodd" clip-rule="evenodd" d="M39.94 22.23v-.07h.35v.07h-.15v.34h-.06v-.34h-.14zm.65.22l.13-.29h.1v.41h-.07v-.31l-.11.27h-.08l-.12-.27v.31h-.08v-.41h.11l.12.29z" fill="currentColor"/></svg>