<svg width="48" height="32" viewBox="0 0 48 32" fill="none" xmlns="http://www.w3.org/2000/svg"><path fill-rule="evenodd" clip-rule="evenodd" d="M44 0H4a4 4 0 00-4 4v24a4 4 0 004 4h40a4 4 0 004-4V4a4 4 0 00-4-4zM29.44 8c.33.34.564.76.68 1.22.114.464.148.944.1 1.42h-.98a9.841 9.841 0 00-1.6-.12h-4.88a.84.84 0 00-.32 0 .74.74 0 00-.44.58l-.68 3.56-.48 3v.2L20 23.1h-3.78l2.64-16.24a.18.18 0 010-.14h6.36A5.46 5.46 0 0129.44 8zM26 20.44a5.7 5.7 0 006.34-4.94 4.22 4.22 0 00-.62-3.74 3.039 3.039 0 00-.88-.68A4 4 0 0030 7.5 6.22 6.22 0 0025.22 6H19a.9.9 0 00-.94.76l-2.58 16.4a.54.54 0 00.52.62h3.9l-.26 1.68a.46.46 0 00.46.54h3.26a.78.78 0 00.78-.66v-.16l.6-3.86v-.22a.78.78 0 01.76-.66h.5zm4.66-8.64a6.46 6.46 0 01-7.12 5.3h-2l-1.28 8.2h3.14v-.14l.6-3.96V21a1.5 1.5 0 011.44-1.24H26a8.912 8.912 0 002-.22 5.139 5.139 0 001.64-.74 4.48 4.48 0 001.2-1.32 6.478 6.478 0 00.76-2.12 5.54 5.54 0 00.1-1.86 2.62 2.62 0 00-.58-1.28 1.78 1.78 0 00-.46-.42z" fill="currentColor"/></svg>