<svg width="48" height="32" viewBox="0 0 48 32" fill="none" xmlns="http://www.w3.org/2000/svg"><path fill-rule="evenodd" clip-rule="evenodd" d="M4 0h40a4 4 0 014 4v24a4 4 0 01-4 4H4a4 4 0 01-4-4V4a4 4 0 014-4zm8.09 13.25L14 20.64h2.53l3.88-9.25h-2.52l-2.49 6.29-1-5.35a1.12 1.12 0 00-1.11-.94H9.22l-.06.27a9.89 9.89 0 012.36.78 1 1 0 01.57.81zm7.36 7.39l2-9.25h2.4l-2 9.25h-2.4zm4.04-.35a7.18 7.18 0 002.66.49h.03c2.51 0 4.16-1.24 4.17-3.16.006-1.463-1.2-2.1-2.166-2.61-.645-.34-1.184-.624-1.184-1.06 0-.33.31-.68 1-.77a4.48 4.48 0 012.3.48l.42-2a6.44 6.44 0 00-2.24-.41c-2.32 0-4 1.26-4 3.06-.02 1.33 1.16 2.05 2.09 2.51.93.46 1.24.75 1.24 1.15 0 .62-.74.91-1.43.91a5 5 0 01-2.46-.59l-.43 2zm13.07.35l-.29-1.38h-3.04l-.49 1.38h-2.52l3.59-8.57a1.09 1.09 0 011-.68h2l1.94 9.25h-2.19zm-.67-3.28h-2l1.27-3.47.73 3.47z" fill="currentColor"/></svg>